<?xml version="1.0" encoding="UTF-8" standalone="no"?>
<!-- Created with Inkscape (http://www.inkscape.org/) -->

<svg
   sodipodi:docname="logo-nord-dark.svg"
   id="svg5"
   version="1.1"
   viewBox="0 0 22.065907 21.166722"
   height="21.166721mm"
   width="22.065907mm"
   inkscape:version="1.1.2 (b8e25be8, 2022-02-05)"
   xmlns:inkscape="http://www.inkscape.org/namespaces/inkscape"
   xmlns:sodipodi="http://sodipodi.sourceforge.net/DTD/sodipodi-0.dtd"
   xmlns="http://www.w3.org/2000/svg"
   xmlns:svg="http://www.w3.org/2000/svg">
  <sodipodi:namedview
     id="namedview7"
     pagecolor="#ffffff"
     bordercolor="#666666"
     borderopacity="1.0"
     inkscape:pageshadow="2"
     inkscape:pageopacity="0.0"
     inkscape:pagecheckerboard="0"
     inkscape:document-units="mm"
     showgrid="false"
     inkscape:zoom="6.2145901"
     inkscape:cx="75.869847"
     inkscape:cy="66.93925"
     inkscape:window-width="1904"
     inkscape:window-height="1036"
     inkscape:window-x="908"
     inkscape:window-y="273"
     inkscape:window-maximized="0"
     inkscape:current-layer="layer1" />
  <defs
     id="defs2" />
  <g
     inkscape:label="Layer 1"
     inkscape:groupmode="layer"
     id="layer1"
     transform="translate(-28.522025,-22.766532)">
    <path
       style="fill:#2e3440;stroke-width:0.0364746"
       d="m 38.25955,43.918148 c -0.551577,-0.03046 -1.294968,-0.147727 -1.512444,-0.238595 -0.06961,-0.02909 -0.183503,-0.05288 -0.253089,-0.05288 -0.06959,0 -0.256581,-0.03106 -0.415542,-0.06903 -0.327826,-0.0783 -1.039258,-0.333775 -1.010251,-0.362781 0.04791,-0.04791 0.458065,0.0097 0.77828,0.109277 0.193729,0.06025 0.478668,0.13141 0.633198,0.158123 0.154531,0.02671 0.302253,0.06178 0.328271,0.07794 0.02602,0.01615 0.227856,0.04151 0.448527,0.05636 0.573503,0.03858 0.756972,0.06801 0.831836,0.133442 0.05335,0.04663 0.07929,0.0492 0.136433,0.0135 0.04952,-0.03093 0.318072,-0.04462 0.900706,-0.04592 1.019774,-0.0023 1.149931,-0.0092 1.547978,-0.0828 0.174136,-0.03218 0.425195,-0.06964 0.557908,-0.08323 0.194175,-0.01989 0.239117,-0.03617 0.230149,-0.08335 -0.01526,-0.08027 -0.403503,-0.102443 -0.515428,-0.02943 -0.159267,0.103897 -2.431723,0.170115 -2.736088,0.07973 -0.09806,-0.02912 -0.188845,-0.04643 -0.201742,-0.03846 -0.0129,0.008 -0.105248,-0.0012 -0.205227,-0.02039 -0.181234,-0.03478 -0.243801,-0.04096 -0.963069,-0.09514 -0.248045,-0.01869 -0.385305,-0.04433 -0.395141,-0.07384 -0.0086,-0.02583 -0.07704,-0.04522 -0.159569,-0.04522 -0.07947,0 -0.312,-0.04269 -0.516723,-0.09488 -0.204724,-0.05218 -0.470448,-0.116604 -0.590499,-0.143162 -0.152064,-0.03363 -0.240575,-0.07614 -0.291797,-0.140121 -0.04044,-0.05051 -0.172003,-0.128709 -0.292369,-0.17377 -0.120366,-0.04506 -0.265244,-0.11986 -0.321951,-0.166219 -0.05671,-0.04636 -0.128088,-0.08429 -0.158623,-0.08429 -0.03054,0 -0.107241,-0.02271 -0.170456,-0.05047 -0.362467,-0.159158 -0.48159,-0.215722 -0.497919,-0.236434 -0.01003,-0.01272 -0.100304,-0.08019 -0.20061,-0.149917 -0.100305,-0.06973 -0.305474,-0.254943 -0.455931,-0.41158 -0.211989,-0.220697 -0.318712,-0.301891 -0.474169,-0.360746 -0.110336,-0.04177 -0.229334,-0.07755 -0.264441,-0.07952 -0.03511,-0.0021 -0.06383,-0.02159 -0.06383,-0.04361 0,-0.07557 -0.219864,-0.207306 -0.308751,-0.184996 -0.104129,0.02613 -0.154693,-0.03076 -0.193852,-0.218122 -0.02296,-0.109857 -0.04715,-0.143042 -0.10426,-0.143042 -0.0409,0 -0.09753,-0.01894 -0.125852,-0.0421 -0.02832,-0.02315 -0.09252,-0.04777 -0.142675,-0.05471 -0.06854,-0.0095 -0.09406,-0.0376 -0.102759,-0.113252 -0.0078,-0.06768 -0.0464,-0.118647 -0.117926,-0.155635 -0.103648,-0.0536 -0.217009,-0.219642 -0.217009,-0.317863 0,-0.02688 -0.14669,-0.203305 -0.325978,-0.39205 -0.332424,-0.349958 -0.512937,-0.635245 -0.512937,-0.810659 0,-0.05388 -0.0239,-0.111346 -0.05312,-0.127694 -0.09358,-0.05237 -0.509655,-1.026275 -0.680876,-1.593714 -0.05999,-0.198794 -0.135221,-0.412027 -0.167192,-0.473851 -0.314423,-0.608028 -0.56257,-3.67005 -0.30076,-3.711259 0.115297,-0.01816 0.12095,-0.0077 0.11219,0.206928 -0.0049,0.120831 0.01028,0.268553 0.0338,0.328271 0.05886,0.149449 0.142133,0.50568 0.122742,0.52507 -0.0087,0.0087 -0.04118,-0.01576 -0.07211,-0.05441 -0.05125,-0.06406 -0.05448,-0.03473 -0.03643,0.330932 0.03502,0.709332 0.0575,0.853411 0.142467,0.91292 0.04213,0.02951 0.08749,0.05366 0.100783,0.05366 0.04031,0 0.01204,-0.372376 -0.04118,-0.542419 -0.04484,-0.143254 -0.04363,-0.16402 0.01191,-0.20463 0.08436,-0.06169 0.0779,-0.08755 -0.03234,-0.129468 -0.05178,-0.01969 -0.08744,-0.04801 -0.07925,-0.06293 0.0082,-0.01493 0.03775,-0.08048 0.06567,-0.145673 0.03454,-0.08064 0.07556,-0.118544 0.128304,-0.118544 0.07479,0 0.07848,-0.02101 0.104237,-0.592712 0.01469,-0.32599 0.02954,-0.633743 0.03301,-0.683897 0.0047,-0.06853 -0.01357,-0.09401 -0.07369,-0.102571 -0.06287,-0.009 -0.0824,-0.03957 -0.09119,-0.142955 -0.0097,-0.114453 -0.03847,-0.150171 -0.220914,-0.274527 l -0.209729,-0.142955 3.93e-4,-0.553005 c 4.14e-4,-0.587767 0.03788,-0.79401 0.188453,-1.037648 0.04432,-0.07171 0.08346,-0.189764 0.08698,-0.262346 0.01028,-0.211925 0.04919,-0.29059 0.155181,-0.313732 0.05383,-0.01175 0.117588,-0.02738 0.141684,-0.03473 0.0241,-0.0073 0.07963,0.01563 0.123398,0.05108 0.06627,0.05366 0.07274,0.07724 0.03867,0.140893 -0.0225,0.04204 -0.0452,0.175889 -0.05045,0.297431 -0.0081,0.188329 0.0027,0.233191 0.07304,0.303587 0.123196,0.123233 0.178823,0.06256 0.341958,-0.372997 0.197331,-0.526854 0.51695,-1.176983 0.827807,-1.683819 0.143745,-0.234368 0.261354,-0.441097 0.261354,-0.459398 0,-0.0183 -0.03047,-0.06085 -0.06772,-0.09456 -0.06045,-0.05471 -0.07267,-0.05532 -0.11389,-0.0056 -0.02539,0.0306 -0.06767,0.05563 -0.09396,0.05563 -0.02628,0 -0.05889,0.03498 -0.07246,0.07773 -0.01357,0.04275 -0.162397,0.224949 -0.330729,0.404881 -0.168332,0.179934 -0.306058,0.34446 -0.306058,0.365618 0,0.02116 -0.03145,0.01001 -0.06988,-0.02477 -0.06868,-0.06216 -0.0687,-0.06584 -8.06e-4,-0.215383 0.03799,-0.08368 0.06963,-0.184969 0.07031,-0.22509 6.83e-4,-0.04012 0.05892,-0.171431 0.129434,-0.291798 0.07051,-0.120365 0.147436,-0.263092 0.170949,-0.317171 0.03246,-0.07465 0.07734,-0.104168 0.186414,-0.122594 0.101394,-0.01712 0.187796,-0.06903 0.293666,-0.1764 0.147224,-0.149307 0.387089,-0.560102 0.387089,-0.662932 0,-0.02872 0.01325,-0.05222 0.02944,-0.05222 0.04697,0 0.267896,-0.185399 0.426489,-0.357916 0.08024,-0.08729 0.274176,-0.290423 0.430961,-0.451411 0.156785,-0.160988 0.299382,-0.330372 0.316885,-0.376406 0.02359,-0.06204 0.07232,-0.09054 0.18831,-0.110136 0.190307,-0.03215 0.300704,-0.09665 0.468114,-0.273485 0.07021,-0.07417 0.179016,-0.161133 0.241783,-0.193261 0.06277,-0.03213 0.122907,-0.08131 0.133645,-0.10929 0.01074,-0.02798 0.06607,-0.06078 0.122962,-0.07288 0.05689,-0.0121 0.160887,-0.05892 0.231101,-0.104031 0.125021,-0.08033 0.401942,-0.228814 0.80244,-0.430272 0.232787,-0.117098 0.728986,-0.303142 1.029088,-0.385848 0.216332,-0.05962 0.395166,-0.172587 0.348059,-0.219868 -0.04281,-0.04297 -0.467157,0.100179 -0.581056,0.19602 -0.0735,0.06185 -0.103075,0.07173 -0.103075,0.03443 0,-0.05958 0.113496,-0.173031 0.173103,-0.173031 0.02183,0 0.119022,-0.03466 0.215975,-0.07701 0.152223,-0.06651 0.166323,-0.08109 0.103329,-0.10686 -0.04012,-0.01642 -0.126293,-0.031 -0.191492,-0.03241 -0.156109,-0.0034 -0.149907,-0.04688 0.01824,-0.127932 0.276917,-0.133476 0.544863,-0.206421 0.814198,-0.221651 0.215501,-0.01218 0.315696,-0.0379 0.455932,-0.11698 0.178845,-0.100857 0.183247,-0.101372 0.890987,-0.10437 0.391189,-0.0017 0.801527,-0.01572 0.911864,-0.03126 0.133128,-0.01876 0.255823,-0.01274 0.364745,0.01789 l 0.164136,0.04614 -0.288045,0.04635 c -0.158424,0.02549 -0.327335,0.05621 -0.375356,0.06826 -0.154901,0.03888 -0.05001,0.0927 0.182266,0.09353 0.145587,4.13e-4 0.282303,0.02643 0.384812,0.07295 0.208473,0.0946 0.420713,0.09427 0.51578,-8.27e-4 0.08707,-0.08707 0.298835,-0.09765 0.364746,-0.01824 0.02863,0.0345 0.03108,0.05471 0.0066,0.05471 -0.02133,0 -0.04893,-0.01642 -0.06133,-0.03647 -0.03406,-0.05511 -0.190034,-0.0437 -0.212778,0.01557 -0.03435,0.08951 0.06121,0.127069 0.342366,0.134575 0.149398,0.004 0.357883,0.03047 0.463301,0.05885 0.10542,0.02838 0.220314,0.04511 0.255323,0.03717 0.03501,-0.0079 0.107995,0.0073 0.162192,0.03386 0.07529,0.0369 0.119695,0.03865 0.188215,0.0074 0.07163,-0.03264 0.106651,-0.02897 0.174018,0.01822 0.04639,0.03249 0.139079,0.05907 0.205982,0.05907 0.0669,0 0.272524,0.04783 0.456935,0.10628 0.184411,0.05845 0.499429,0.157714 0.700039,0.220581 0.200608,0.06287 0.426531,0.154944 0.502047,0.204618 0.08266,0.05438 0.256843,0.112652 0.437694,0.146445 0.233247,0.04358 0.418609,0.115636 0.829273,0.322359 0.290885,0.146428 0.578121,0.277491 0.638304,0.29125 0.06018,0.01375 0.138147,0.03355 0.173254,0.04398 0.186347,0.05536 0.01154,-0.107117 -0.612777,-0.569545 -0.06771,-0.05015 -0.123722,-0.104602 -0.12447,-0.121001 -0.0034,-0.07413 0.178411,0.03962 0.36306,0.227156 0.13336,0.135444 0.253531,0.220862 0.352394,0.250484 0.107014,0.03206 0.198171,0.101302 0.317951,0.241506 0.09236,0.108108 0.254314,0.253967 0.3599,0.324134 0.185625,0.123353 0.496989,0.429529 0.684555,0.673152 0.05006,0.06502 0.110335,0.11836 0.133951,0.118542 0.02361,1.82e-4 0.08927,0.05505 0.145898,0.121935 0.05663,0.06688 0.180787,0.174264 0.275906,0.238625 0.112032,0.07581 0.18055,0.151805 0.194537,0.215784 0.03805,0.174033 0.04835,0.189953 0.122868,0.189953 0.06117,0 0.06974,-0.01722 0.05218,-0.105001 -0.03802,-0.190073 0.05415,-0.164045 0.14478,0.04089 0.04744,0.10727 0.14305,0.27637 0.212468,0.375778 0.06942,0.09941 0.157199,0.254602 0.19507,0.344878 0.03787,0.09027 0.131191,0.252978 0.207376,0.361563 0.07618,0.108587 0.138627,0.223481 0.138759,0.255322 1.45e-4,0.03184 0.03285,0.107135 0.07271,0.167317 0.03986,0.06018 0.07258,0.169469 0.07271,0.242855 1.82e-4,0.108127 0.03058,0.16465 0.160223,0.298043 0.159893,0.164516 0.213495,0.283307 0.386957,0.857532 0.03842,0.127185 0.08064,0.373389 0.09382,0.54712 0.01781,0.234647 0.04636,0.355057 0.11106,0.468264 0.09113,0.15947 0.114491,0.370974 0.04828,0.437188 -0.0422,0.0422 0.115428,0.748437 0.207892,0.931421 0.03643,0.07209 0.04977,0.270585 0.04977,0.74042 0,0.469129 0.01338,0.668441 0.04967,0.740422 0.109206,0.216537 0.149731,1.045705 0.07077,1.448053 -0.02362,0.120365 -0.07787,0.423621 -0.120546,0.673901 -0.04268,0.25028 -0.09524,0.476308 -0.116798,0.502287 -0.02156,0.02598 -0.04328,0.08438 -0.04826,0.129774 -0.01923,0.175148 -0.250158,0.855593 -0.438287,1.291418 -0.0278,0.06441 -0.05358,0.227114 -0.05728,0.36156 -0.0061,0.22019 -0.01855,0.257523 -0.125821,0.376267 -0.09573,0.105963 -0.111769,0.144921 -0.08175,0.198566 0.02862,0.05114 0.01935,0.09106 -0.03959,0.170802 -0.04231,0.05723 -0.07694,0.128375 -0.07694,0.158096 0,0.02972 -0.01456,0.06303 -0.03234,0.07402 -0.01778,0.011 -0.04327,0.08172 -0.05662,0.157169 -0.05007,0.282908 -0.212879,0.642319 -0.353315,0.779976 -0.149615,0.146651 -0.166437,0.193178 -0.188527,0.521453 -0.01942,0.288556 -0.122618,0.385923 -0.409042,0.385923 -0.108272,0 -0.234562,0.01528 -0.280644,0.03395 -0.04608,0.01867 -0.128024,0.04338 -0.182095,0.05491 -0.05407,0.01152 -0.174563,0.08695 -0.267757,0.167611 -0.0932,0.08066 -0.234744,0.179967 -0.314551,0.220681 -0.07981,0.04072 -0.242308,0.163389 -0.361112,0.272609 -0.118804,0.109219 -0.234538,0.198582 -0.257187,0.198582 -0.04255,0 -0.746359,0.496231 -0.907791,0.640054 -0.05015,0.04468 -0.127692,0.09226 -0.172308,0.105734 -0.04462,0.01346 -0.113907,0.07054 -0.15398,0.126817 -0.05307,0.07453 -0.113587,0.107786 -0.222809,0.122437 -0.16996,0.0228 -0.182107,0.03041 -0.195635,0.122584 -0.0062,0.04217 -0.06197,0.08201 -0.15228,0.10875 -0.07838,0.02321 -0.240816,0.101931 -0.360964,0.174932 -0.120146,0.073 -0.333522,0.166946 -0.474167,0.208766 -0.140647,0.04182 -0.337787,0.117598 -0.438092,0.168395 -0.136594,0.06917 -0.269354,0.09925 -0.528881,0.119819 -0.19058,0.0151 -0.403835,0.04554 -0.473902,0.06763 -0.07007,0.02209 -0.176755,0.03099 -0.237085,0.01977 -0.06033,-0.01121 -0.167138,0.003 -0.237351,0.03169 -0.07177,0.02928 -0.21929,0.04833 -0.336958,0.0435 -0.123465,-0.0051 -0.223568,0.0086 -0.244095,0.03334 -0.01915,0.02306 -0.127707,0.04582 -0.241258,0.05057 -0.113553,0.0048 -0.233499,0.02287 -0.266549,0.04025 -0.09104,0.0479 -1.231492,0.07258 -1.829106,0.03958 z m -5.209547,-6.532003 c 0.05385,-0.02882 0.0855,-0.02882 0.114321,0 0.02192,0.02192 0.06094,0.03985 0.08671,0.03985 0.06203,0 0.02409,-0.421855 -0.04839,-0.538 -0.06966,-0.111629 -0.335166,-0.116689 -0.433294,-0.0083 -0.100858,0.111447 -0.02224,0.165325 0.121145,0.08303 0.08593,-0.04932 0.123813,-0.05491 0.155728,-0.023 0.06118,0.06118 0.0086,0.12148 -0.105995,0.12148 -0.202815,0 -0.338406,0.200085 -0.217516,0.320975 0.05464,0.05464 0.22862,0.05672 0.32729,0.0039 z M 32.84308,37.280099 c -0.03618,-0.05853 0.0091,-0.09981 0.12882,-0.117373 0.133182,-0.01954 0.166728,0.01723 0.08776,0.0962 -0.06488,0.06488 -0.18246,0.07638 -0.216576,0.02118 z m 1.652775,0.08207 c -0.0067,-0.03511 -0.04835,-0.069 -0.09257,-0.07532 -0.07571,-0.01082 -0.08101,-0.03209 -0.09081,-0.364746 l -0.01041,-0.353259 h -0.161096 c -0.192491,0 -0.248199,0.08045 -0.07912,0.114268 l 0.112558,0.02251 v 0.284815 c 0,0.283368 -5.17e-4,0.284873 -0.09999,0.296356 -0.06031,0.007 -0.104798,0.03687 -0.112098,0.07537 -0.01067,0.05628 0.02088,0.06383 0.266803,0.06383 0.245945,0 0.27747,-0.0075 0.266742,-0.06383 z m 1.236847,0.0033 c 0.0077,-0.02325 -0.03556,-0.05315 -0.0961,-0.06644 l -0.110067,-0.02417 -0.01041,-0.353013 -0.01041,-0.35301 h -0.161096 c -0.193373,0 -0.247993,0.08049 -0.07773,0.114546 l 0.113955,0.02279 -0.01051,0.296076 c -0.0099,0.279437 -0.01519,0.296311 -0.09374,0.300271 -0.101266,0.0051 -0.132885,0.03241 -0.0997,0.0861 0.03373,0.05458 0.537043,0.03363 0.555802,-0.02314 z m 2.216814,-0.379193 c 0,-0.36762 -0.0075,-0.417892 -0.06383,-0.428744 -0.05209,-0.01003 -0.06383,0.01421 -0.06383,0.131801 v 0.144091 l -0.158276,-0.01785 c -0.139821,-0.01576 -0.167466,-0.0062 -0.237084,0.08235 -0.09994,0.127052 -0.100976,0.307654 -0.0025,0.432871 0.07033,0.08941 0.09398,0.09605 0.300915,0.08448 l 0.224587,-0.01255 v -0.416451 z m -0.412162,0.250033 c -0.02407,-0.02407 -0.04377,-0.07824 -0.04377,-0.120365 0,-0.04213 0.0197,-0.09629 0.04377,-0.120365 0.02407,-0.02407 0.07824,-0.04377 0.120366,-0.04377 0.04213,0 0.09629,0.01969 0.120366,0.04377 0.02407,0.02407 0.04377,0.07824 0.04377,0.120365 0,0.04213 -0.0197,0.09629 -0.04377,0.120365 -0.02407,0.02407 -0.07824,0.04377 -0.120366,0.04377 -0.04213,0 -0.09629,-0.01971 -0.120366,-0.04377 z m 1.458001,0.149816 c 0.05385,-0.02882 0.0855,-0.02882 0.114321,0 0.02192,0.02192 0.06094,0.03985 0.08671,0.03985 0.06203,0 0.02409,-0.421856 -0.04839,-0.538001 -0.0894,-0.14326 -0.487227,-0.09077 -0.487227,0.06428 0,0.06509 0.07367,0.07371 0.157965,0.01846 0.08435,-0.05527 0.206779,-0.0434 0.206779,0.02004 0,0.01714 -0.06976,0.04982 -0.155017,0.07261 -0.08526,0.0228 -0.175533,0.05827 -0.20061,0.07882 -0.05791,0.04747 -0.05894,0.182874 -0.0019,0.239994 0.05464,0.05464 0.228621,0.05672 0.327291,0.0039 z M 38.806668,37.28008 c 0,-0.02006 -8.27e-4,-0.04878 -0.0019,-0.06382 -0.0029,-0.04225 0.219182,-0.07758 0.243216,-0.0387 0.02683,0.04342 -0.09278,0.13629 -0.177523,0.13783 -0.03511,6.21e-4 -0.06383,-0.01526 -0.06383,-0.03531 z m 2.609945,0.05602 c 0.113392,-0.113393 0.118392,-0.300831 0.01164,-0.436538 -0.06545,-0.08321 -0.100963,-0.09684 -0.227966,-0.08751 -0.150086,0.01102 -0.150463,0.01073 -0.16189,-0.127427 -0.0088,-0.106924 -0.02546,-0.135798 -0.07295,-0.12671 -0.05216,0.01 -0.06308,0.06945 -0.07196,0.39186 -0.0057,0.209049 -0.0037,0.397612 0.0045,0.419031 0.0082,0.02142 0.10823,0.04289 0.222209,0.04771 0.17773,0.0075 0.219931,-0.0039 0.29641,-0.08041 z m -0.35099,-0.133579 c -0.06091,-0.113811 0.01015,-0.250708 0.130129,-0.250708 0.06222,0 0.105735,0.0285 0.132196,0.08657 0.0538,0.118074 -0.01381,0.241699 -0.132196,0.241699 -0.05305,0 -0.105282,-0.03114 -0.130129,-0.07756 z m 1.549653,0.201321 c 0.03173,-0.01218 0.05769,-0.04575 0.05769,-0.0746 0,-0.04023 -0.02985,-0.04686 -0.128059,-0.02844 -0.0809,0.01518 -0.147916,0.0075 -0.181971,-0.02072 -0.08796,-0.073 -0.02652,-0.109427 0.184522,-0.109427 0.184355,0 0.198458,-0.0061 0.198458,-0.08627 0,-0.04745 -0.03402,-0.129516 -0.0756,-0.182374 -0.167014,-0.212323 -0.510697,-0.07318 -0.518724,0.210013 -0.0066,0.233966 0.228609,0.382014 0.463675,0.29181 z m -0.287681,-0.37725 c -0.03747,-0.06063 0.117419,-0.118696 0.199479,-0.07478 0.04012,0.02147 0.07295,0.05488 0.07295,0.07423 0,0.04556 -0.24431,0.04604 -0.272429,6.21e-4 z m 1.565875,0.350211 c 0.09849,-0.07202 0.04176,-0.14171 -0.07285,-0.08949 -0.067,0.03053 -0.113624,0.03014 -0.183129,-0.0014 -0.139956,-0.06377 -0.07299,-0.115123 0.15011,-0.115123 0.191028,0 0.198455,-0.0037 0.198455,-0.09795 0,-0.242375 -0.315686,-0.355639 -0.494062,-0.177262 -0.192965,0.192965 -0.05815,0.530539 0.211875,0.530539 0.06729,0 0.152612,-0.02213 0.189603,-0.04918 z m -0.345109,-0.350759 c 0,-0.06807 0.141002,-0.115892 0.218847,-0.07423 0.116366,0.06228 0.08493,0.109424 -0.07295,0.109424 -0.08024,0 -0.145897,-0.01584 -0.145897,-0.03519 z m 1.63755,0.366586 c 0.08595,-0.05443 0.02187,-0.142359 -0.08839,-0.121281 -0.116131,0.0222 -0.16178,-0.03359 -0.162572,-0.198683 -4.14e-4,-0.104544 0.01133,-0.117381 0.117683,-0.127661 0.07787,-0.0075 0.122373,-0.03322 0.130336,-0.07526 0.0097,-0.05095 -0.01371,-0.06383 -0.115706,-0.06383 -0.104763,0 -0.1299,-0.01479 -0.139454,-0.08207 -0.0064,-0.04514 -0.03628,-0.08207 -0.06637,-0.08207 -0.03009,0 -0.05996,0.03693 -0.06637,0.08207 -0.0071,0.04968 -0.03704,0.08207 -0.07599,0.08207 -0.03538,0 -0.07415,0.0098 -0.08614,0.0218 -0.04083,0.04083 0.0172,0.124096 0.0865,0.124096 0.05789,0 0.06905,0.02753 0.06905,0.170382 0,0.107357 0.02233,0.195056 0.06037,0.237085 0.06356,0.07023 0.249721,0.08865 0.337051,0.03335 z m 1.188562,-0.02591 c 0.125105,-0.125104 0.01528,-0.269504 -0.245539,-0.32284 -0.05517,-0.01129 -0.100305,-0.03486 -0.100305,-0.05239 0,-0.06439 0.121131,-0.07566 0.229904,-0.0214 0.143153,0.07141 0.214258,0.01667 0.117385,-0.09037 -0.08438,-0.09323 -0.350289,-0.102073 -0.437811,-0.01456 -0.125105,0.125105 -0.01528,0.269504 0.245539,0.32284 0.125708,0.02571 0.129577,0.08333 0.0077,0.113937 -0.06109,0.01534 -0.114882,0.0031 -0.157891,-0.03578 -0.03588,-0.03247 -0.08446,-0.05903 -0.107954,-0.05903 -0.06646,0 -0.05024,0.137896 0.02111,0.179452 0.101395,0.05906 0.361044,0.047 0.42791,-0.01987 z M 33.553197,35.702583 c 0.01858,-0.04514 0.06895,-0.270824 0.111942,-0.501525 0.09854,-0.528784 0.103773,-0.546278 0.141798,-0.474168 0.01587,0.03009 0.06613,0.243466 0.11169,0.474168 0.123955,0.627647 0.08979,0.583594 0.452583,0.583594 0.306622,0 0.308135,-4.14e-4 0.32909,-0.100305 0.01158,-0.05517 0.07917,-0.453198 0.150202,-0.884508 0.07103,-0.431312 0.154477,-0.937118 0.18543,-1.124014 0.03095,-0.186896 0.04659,-0.365072 0.03474,-0.395947 -0.0175,-0.0456 -0.0757,-0.05368 -0.310107,-0.04303 -0.15871,0.0072 -0.297186,0.02173 -0.307725,0.03226 -0.01054,0.01055 -0.05607,0.318685 -0.101191,0.68477 -0.05888,0.477799 -0.09191,0.647946 -0.117056,0.603018 -0.01926,-0.03442 -0.08245,-0.285088 -0.140404,-0.557033 -0.05796,-0.271945 -0.118837,-0.507903 -0.135287,-0.524352 -0.0496,-0.04961 -0.339686,-0.01228 -0.370799,0.04772 -0.01561,0.03009 -0.05369,0.169607 -0.08462,0.310035 -0.149802,0.680006 -0.17585,0.788504 -0.186702,0.777651 -0.01268,-0.01268 -0.06955,-0.488607 -0.127805,-1.069447 -0.05834,-0.581696 -0.02198,-0.533427 -0.392533,-0.521168 -0.314236,0.0104 -0.318024,0.01164 -0.311429,0.101711 0.0037,0.05015 0.08151,0.583592 0.172981,1.185421 0.09147,0.601831 0.176034,1.159891 0.187925,1.240136 0.03635,0.24529 0.02383,0.237085 0.361546,0.237085 0.289191,0 0.314426,-0.006 0.345735,-0.08207 z m 3.32032,-0.319151 v -0.401221 h -0.474169 -0.474169 v -0.144665 -0.144664 l 0.392101,-0.01036 0.392102,-0.01036 v -0.255321 -0.255322 l -0.382983,-0.01824 -0.382983,-0.01824 -0.01122,-0.155016 -0.01122,-0.155018 h 0.476266 0.476267 v -0.40193 -0.401932 l -0.793322,0.0098 -0.793321,0.0098 -0.0096,1.376914 -0.0096,1.376916 h 0.802878 0.802879 z m 1.750047,0.361493 c 0.233749,-0.05013 0.383396,-0.174068 0.424712,-0.351752 0.01758,-0.07557 0.02374,-0.315206 0.01371,-0.532522 -0.01805,-0.390981 -0.01948,-0.396235 -0.137602,-0.501745 -0.11612,-0.103728 -0.117855,-0.109547 -0.06383,-0.214018 0.06936,-0.134136 0.0758,-0.742716 0.0093,-0.876981 -0.02485,-0.05015 -0.118984,-0.128438 -0.209189,-0.17397 -0.15617,-0.07882 -0.198024,-0.08231 -0.875266,-0.07295 l -0.711254,0.0098 -0.0106,0.301257 c -0.01032,0.293291 -0.0081,0.302185 0.08207,0.336486 l 0.09267,0.03523 v 0.731297 0.731296 l -0.09119,0.03467 c -0.08503,0.03233 -0.09119,0.05156 -0.09119,0.284815 0,0.13758 0.01094,0.261089 0.02432,0.274461 0.04032,0.04032 1.34421,0.0273 1.543358,-0.01541 z m -0.648516,-0.514688 c -0.02656,-0.02656 -0.04377,-0.155624 -0.04377,-0.328271 v -0.284501 l 0.136779,6.21e-4 c 0.204354,8.27e-4 0.239158,0.03935 0.256873,0.28425 0.01342,0.185424 0.0043,0.229066 -0.06129,0.294696 -0.08519,0.08519 -0.221008,0.100849 -0.28859,0.03327 z m -0.02839,-1.099473 c -0.01034,-0.02695 -0.01393,-0.170572 -0.008,-0.319152 0.0099,-0.246564 0.01783,-0.271142 0.09102,-0.281554 0.0441,-0.0063 0.11386,0.0066 0.155017,0.02864 0.0644,0.03447 0.07483,0.07526 0.07483,0.292803 0,0.212563 -0.01123,0.25876 -0.07055,0.290514 -0.0985,0.05272 -0.219958,0.04708 -0.24234,-0.01125 z m 2.478409,1.152362 c 0.05629,-0.275838 0.111447,-0.526145 0.122574,-0.556236 0.0273,-0.07384 0.115307,0.259711 0.247811,0.939219 l 0.02311,0.118543 h 0.322475 0.322475 l 0.01975,-0.100305 c 0.01086,-0.05517 0.06982,-0.412164 0.131017,-0.793322 0.0612,-0.38116 0.136597,-0.832532 0.167549,-1.003051 0.03095,-0.170519 0.05947,-0.383894 0.06337,-0.474168 l 0.0071,-0.164135 -0.273558,-0.0093 c -0.150458,-0.0051 -0.292255,0.0031 -0.315107,0.01824 -0.04007,0.02661 -0.131018,0.566467 -0.181317,1.076237 -0.02697,0.273289 -0.07111,0.31794 -0.108179,0.109422 -0.01338,-0.07523 -0.06797,-0.325535 -0.121327,-0.556237 l -0.09701,-0.419457 -0.122458,-0.01181 c -0.237987,-0.02294 -0.275353,0.0065 -0.326115,0.25681 -0.08897,0.438789 -0.19979,0.903782 -0.212385,0.891187 -0.007,-0.007 -0.04524,-0.322917 -0.08503,-0.702096 -0.03979,-0.37918 -0.08188,-0.734554 -0.09352,-0.789722 l -0.02118,-0.100305 h -0.325375 c -0.178953,0 -0.325276,0.0123 -0.32516,0.02736 1.09e-4,0.01505 0.01673,0.125837 0.03693,0.246205 0.0202,0.120365 0.06074,0.382982 0.09011,0.583592 0.02936,0.20061 0.07866,0.528881 0.10955,0.729491 0.03089,0.200611 0.08172,0.536481 0.112946,0.746382 0.03123,0.209899 0.06476,0.394552 0.07452,0.410338 0.0098,0.01578 0.16092,0.0287 0.335918,0.0287 h 0.318178 z m 2.867241,0.461799 c 0.217157,-0.04657 0.389163,-0.178638 0.468593,-0.359792 0.07428,-0.169404 0.105338,-1.365261 0.04548,-1.751078 -0.05098,-0.328584 -0.128461,-0.442237 -0.373276,-0.547552 -0.163859,-0.07049 -0.238825,-0.0799 -0.540154,-0.0678 -0.454087,0.01824 -0.643293,0.115397 -0.761973,0.391279 -0.07222,0.167872 -0.07795,0.242504 -0.07647,0.995396 0.0017,0.847772 0.02472,1.007737 0.168186,1.167023 0.165984,0.184289 0.650415,0.262424 1.069617,0.172521 z m -0.508883,-0.910757 c -0.13302,-0.05601 -0.145756,-0.09471 -0.146368,-0.444668 -6.2e-4,-0.407639 0.04355,-0.465051 0.358534,-0.465051 0.301254,0 0.333921,0.0451 0.333921,0.460952 0,0.215234 -0.01667,0.350329 -0.04859,0.393993 -0.05791,0.0792 -0.360397,0.112504 -0.4975,0.05477 z m 2.344919,0.686043 c 0.03242,-0.145442 0.08628,-0.393952 0.119675,-0.552243 0.06618,-0.313645 0.09329,-0.311166 0.155678,0.01425 0.07102,0.370404 0.154267,0.742124 0.172983,0.77241 0.01022,0.01652 0.156795,0.03003 0.325746,0.03003 0.289371,0 0.308141,-0.0048 0.323648,-0.08207 0.0091,-0.04514 0.04241,-0.237997 0.07412,-0.428576 0.03171,-0.190579 0.105758,-0.625538 0.164544,-0.966576 0.05879,-0.341036 0.118145,-0.722651 0.1319,-0.848033 l 0.02501,-0.227966 -0.28739,6.21e-4 c -0.158064,2.06e-4 -0.306523,0.01274 -0.329913,0.02761 -0.03435,0.02185 -0.194559,1.066753 -0.194559,1.268929 0,0.02885 -0.01352,0.05246 -0.03004,0.05246 -0.01652,0 -0.04882,-0.09438 -0.07178,-0.209728 -0.09183,-0.461295 -0.191661,-0.864311 -0.2215,-0.89415 -0.05086,-0.05086 -0.340773,-0.01493 -0.372138,0.04612 -0.01547,0.03009 -0.05615,0.186022 -0.09042,0.34651 -0.0793,0.37139 -0.157206,0.68168 -0.175821,0.700297 -0.01462,0.01462 -0.06114,-0.350324 -0.142756,-1.119754 l -0.04449,-0.419459 -0.306644,-0.01069 c -0.168651,-0.0059 -0.318163,0.0023 -0.332245,0.01824 -0.01408,0.0159 0.01311,0.283332 0.06043,0.594279 0.118636,0.779609 0.180359,1.190328 0.249405,1.659593 0.03247,0.22067 0.06593,0.421735 0.07436,0.446812 0.01073,0.0319 0.112604,0.04559 0.33929,0.04559 h 0.323968 z m -5.212148,-3.911209 c 0.389524,-0.06941 0.699153,-0.228567 0.968341,-0.497755 0.945666,-0.945667 0.586837,-2.5422 -0.679428,-3.022959 -0.171604,-0.06515 -0.287472,-0.08071 -0.596,-0.08005 -0.450296,0.001 -0.680821,0.06791 -1.014749,0.294681 -0.53185,0.361172 -0.808113,0.880163 -0.808113,1.518133 0,0.537942 0.158538,0.911251 0.551344,1.298243 0.13741,0.135378 0.329356,0.280851 0.439186,0.332851 0.168954,0.08 0.284173,0.112421 0.668197,0.188044 0.126118,0.02483 0.174967,0.0216 0.471222,-0.03119 z m -8.823895,-3.964701 c 0.100305,-0.142274 0.294026,-0.387765 0.430491,-0.545538 0.241022,-0.278655 0.261999,-0.398015 0.03118,-0.177436 -0.06298,0.06018 -0.131065,0.109424 -0.151308,0.109424 -0.02025,0 -0.03681,0.03738 -0.03681,0.08307 0,0.111951 -0.08282,0.222809 -0.238191,0.318833 -0.124965,0.07723 -0.272452,0.303143 -0.272452,0.417321 0,0.10173 0.05242,0.05625 0.237084,-0.205674 z m 0.145898,13.027931 c -0.0124,-0.02006 -0.0061,-0.03648 0.01393,-0.03648 0.02006,0 0.04662,0.01642 0.05902,0.03648 0.0124,0.02006 0.0061,0.03647 -0.01393,0.03647 -0.02006,0 -0.04662,-0.01642 -0.05902,-0.03647 z m 18.036665,-2.753827 c 0,-0.144464 -0.0096,-0.164136 -0.07972,-0.164136 -0.04384,0 -0.117642,0.03563 -0.163993,0.07917 -0.123988,0.116482 -0.136409,0.06302 -0.03129,-0.134679 0.05094,-0.09581 0.09273,-0.216899 0.09287,-0.269079 1.47e-4,-0.05218 0.03285,-0.144112 0.07271,-0.204295 0.03986,-0.06018 0.07258,-0.151482 0.07271,-0.202887 2.07e-4,-0.108924 0.17407,-0.637929 0.284782,-0.866858 0.04353,-0.09001 0.08581,-0.270326 0.09835,-0.419457 0.0121,-0.143867 0.03919,-0.329427 0.06019,-0.412352 0.02808,-0.110878 0.0267,-0.172239 -0.0052,-0.231882 -0.03139,-0.05866 -0.03237,-0.09214 -0.0036,-0.120961 0.02192,-0.02192 0.03985,-0.08447 0.03985,-0.138999 0,-0.05453 0.01,-0.125107 0.02214,-0.15684 0.03852,-0.100384 0.08728,-0.0625 0.08728,0.06781 0,0.06903 0.0189,0.137192 0.04201,0.151472 0.05859,0.03621 0.140363,-0.08778 0.140363,-0.212812 0,-0.05735 0.02556,-0.153697 0.05681,-0.214114 0.03224,-0.06234 0.05791,-0.207469 0.05937,-0.335578 0.0019,-0.17053 0.02457,-0.263637 0.09256,-0.380747 0.09367,-0.161338 0.156011,-0.198813 0.156011,-0.09377 0,0.03368 0.02004,0.116647 0.04452,0.184365 0.03719,0.102849 0.03569,0.128765 -0.0091,0.157378 -0.04384,0.028 -0.03199,0.05143 0.0649,0.128312 0.09572,0.07595 0.118544,0.120239 0.118544,0.230019 0,0.07478 -0.01632,0.152268 -0.03624,0.1722 -0.01993,0.01993 -0.05451,0.175042 -0.07684,0.344686 -0.02966,0.225317 -0.06167,0.331352 -0.118775,0.393449 -0.07364,0.08008 -0.07447,0.08771 -0.01435,0.131681 0.03511,0.02567 0.06383,0.0764 0.06383,0.112731 0,0.03633 -0.02873,0.09784 -0.06383,0.13668 -0.03511,0.03884 -0.06586,0.122202 -0.06834,0.185244 -0.0073,0.186127 -0.153834,0.712707 -0.248866,0.894508 -0.04843,0.09265 -0.122739,0.283347 -0.165132,0.423775 -0.110988,0.367636 -0.2885,0.711447 -0.386584,0.748739 -0.04526,0.0172 -0.09301,0.06505 -0.106106,0.106322 -0.04138,0.130368 -0.09185,0.08141 -0.09185,-0.0891 z m 0.802441,-4.630115 c 0,-0.06903 0.01751,-0.136327 0.0389,-0.149551 0.05605,-0.03464 0.06221,-0.01489 0.04312,0.138279 -0.02138,0.171511 -0.08202,0.179845 -0.08202,0.01127 z M 30.228739,28.528256 c 0.03467,-0.08159 0.0749,-0.130167 0.09296,-0.112234 0.01809,0.01797 -0.0027,0.08007 -0.04808,0.14385 -0.106626,0.149743 -0.118416,0.141438 -0.04489,-0.03162 z m 0.0064,-1.066377 c 0,-0.06604 0.255759,-0.442848 0.282461,-0.416146 0.02984,0.02984 -0.181746,0.431998 -0.236868,0.450206 -0.02508,0.0083 -0.04559,-0.0071 -0.04559,-0.03406 z m 0.382982,-0.358178 c 0.0124,-0.02006 0.03799,-0.03647 0.05687,-0.03647 0.01888,0 0.03432,0.01642 0.03432,0.03647 0,0.02006 -0.02559,0.03647 -0.05687,0.03647 -0.03127,0 -0.04672,-0.01642 -0.03432,-0.03647 z m -0.02045,-0.194802 c 0.06039,-0.158837 0.287503,-0.485563 0.379361,-0.545752 0.04991,-0.0327 0.143316,-0.132667 0.207579,-0.222151 0.06426,-0.08949 0.162536,-0.181628 0.218384,-0.204761 0.05585,-0.02313 0.138853,-0.08178 0.184453,-0.130314 0.16854,-0.179402 0.193421,-0.08329 0.03721,0.143755 -0.148068,0.215209 -0.839818,0.931185 -0.960269,0.993899 -0.09731,0.05067 -0.09886,0.04986 -0.06672,-0.03468 z m 1.44569,-1.405373 c 0.03862,-0.03753 0.07666,-0.06255 0.08453,-0.05559 0.023,0.02033 -0.07425,0.123835 -0.11635,0.123835 -0.02111,0 -0.0068,-0.03071 0.03182,-0.06824 z m -0.203346,-0.01658 c 0,-0.06511 0.154802,-0.206968 0.225851,-0.206968 0.03136,0 0.07745,-0.02462 0.10242,-0.05471 0.02497,-0.03009 0.06391,-0.05397 0.08653,-0.05306 0.0454,0.0019 -0.337933,0.363089 -0.385276,0.363089 -0.01624,0 -0.02953,-0.02176 -0.02953,-0.04835 z m 0.656542,-0.536083 c 0,-0.01772 0.04337,-0.06171 0.09638,-0.09776 0.05301,-0.03604 0.138732,-0.110671 0.190495,-0.165839 0.05176,-0.05517 0.108212,-0.100305 0.125442,-0.100305 0.0271,0 -0.08764,0.221541 -0.156174,0.301552 -0.03864,0.04511 -0.256143,0.09805 -0.256143,0.06235 z m 11.544196,-0.874545 c -0.07122,-0.04717 -0.08855,-0.07255 -0.04963,-0.07271 0.06366,-2.06e-4 0.257308,0.142558 0.195531,0.144206 -0.02006,6.2e-4 -0.08571,-0.03164 -0.145897,-0.0715 z M 34.129688,23.85733 c 0.06568,-0.04005 0.139301,-0.07281 0.163596,-0.07281 0.02429,0 -0.01708,0.03283 -0.09194,0.07295 -0.176073,0.09437 -0.226506,0.09427 -0.07166,-1.37e-4 z m 8.449951,-0.345213 c -0.05374,-0.04065 -0.05762,-0.05371 -0.01609,-0.05421 0.09417,-0.0012 0.218847,0.0419 0.218847,0.07555 0,0.05075 -0.124816,0.03762 -0.202757,-0.02133 z m -2.386937,-0.238245 c 0,-0.02006 0.02559,-0.03647 0.05686,-0.03647 0.03128,0 0.04672,0.01642 0.03432,0.03647 -0.01241,0.02006 -0.03799,0.03647 -0.05686,0.03647 -0.01888,0 -0.03432,-0.01642 -0.03432,-0.03647 z m 1.702146,0.01216 c -0.04772,-0.04772 -0.02313,-0.07797 0.04822,-0.05931 0.0399,0.01042 0.06355,0.03352 0.05256,0.0513 -0.02371,0.03836 -0.06699,0.0418 -0.100783,0.008 z m -1.015967,-0.32887 c 0.02633,-0.01055 0.05779,-0.0092 0.06991,0.0029 0.01212,0.01212 -0.0094,0.02074 -0.04787,0.01915 -0.04249,-0.0017 -0.05113,-0.0104 -0.02204,-0.02204 z M 39.7258,22.836673 c -0.06622,-0.01567 -0.131871,-0.0409 -0.145899,-0.05605 -0.03773,-0.04073 0.405185,0.01572 0.446352,0.05688 0.04188,0.04188 -0.122001,0.04143 -0.300453,-8.27e-4 z m 0.603682,0.01024 c 0.04514,-0.0087 0.118999,-0.0087 0.164136,0 0.04514,0.0087 0.0082,0.0158 -0.08207,0.0158 -0.09027,0 -0.127205,-0.0071 -0.08207,-0.0158 z"
       id="path53" />
  </g>
</svg>
