<?xml version="1.0" encoding="UTF-8" standalone="no"?>
<!-- Created with Inkscape (http://www.inkscape.org/) -->

<svg
   width="210mm"
   height="297mm"
   viewBox="0 0 210 297"
   version="1.1"
   id="svg5"
   inkscape:version="1.1.2 (b8e25be8, 2022-02-05)"
   sodipodi:docname="logo.svg"
   xmlns:inkscape="http://www.inkscape.org/namespaces/inkscape"
   xmlns:sodipodi="http://sodipodi.sourceforge.net/DTD/sodipodi-0.dtd"
   xmlns="http://www.w3.org/2000/svg"
   xmlns:svg="http://www.w3.org/2000/svg">
  <sodipodi:namedview
     id="namedview7"
     pagecolor="#ffffff"
     bordercolor="#666666"
     borderopacity="1.0"
     inkscape:pageshadow="2"
     inkscape:pageopacity="0.0"
     inkscape:pagecheckerboard="0"
     inkscape:document-units="mm"
     showgrid="false"
     inkscape:zoom="1.5536476"
     inkscape:cx="284.4918"
     inkscape:cy="243.29842"
     inkscape:window-width="1904"
     inkscape:window-height="1036"
     inkscape:window-x="908"
     inkscape:window-y="273"
     inkscape:window-maximized="0"
     inkscape:current-layer="layer1" />
  <defs
     id="defs2" />
  <g
     inkscape:label="Layer 1"
     inkscape:groupmode="layer"
     id="layer1">
    <path
       style="fill:#000000;stroke-width:0.176389"
       d="m 75.612144,125.05455 c -2.667395,-0.14728 -6.262397,-0.7144 -7.314096,-1.15383 -0.336642,-0.14066 -0.887409,-0.25574 -1.223927,-0.25574 -0.33652,0 -1.24081,-0.15022 -2.009536,-0.33383 -1.585348,-0.37865 -5.025795,-1.61412 -4.885519,-1.75439 0.231687,-0.23169 2.21518,0.0468 3.76372,0.52846 0.936861,0.29139 2.314811,0.63549 3.062113,0.76467 0.747299,0.12917 1.461674,0.29877 1.5875,0.37689 0.125823,0.0781 1.101896,0.20076 2.169048,0.27254 2.773432,0.18655 3.660675,0.32888 4.022715,0.64532 0.257985,0.22549 0.383424,0.23791 0.659783,0.0653 0.239489,-0.14956 1.538179,-0.21577 4.355762,-0.22205 4.931572,-0.011 5.561002,-0.0447 7.485937,-0.40041 0.84211,-0.15563 2.05622,-0.33676 2.69801,-0.40251 0.93902,-0.0962 1.15636,-0.17491 1.11299,-0.40305 -0.0738,-0.3882 -1.95132,-0.49541 -2.49258,-0.14233 -0.77021,0.50244 -11.75968,0.82267 -13.231571,0.38556 -0.474222,-0.14083 -0.913246,-0.22451 -0.975612,-0.18597 -0.06237,0.0385 -0.508977,-0.006 -0.99247,-0.0986 -0.876434,-0.16821 -1.179004,-0.1981 -4.657348,-0.46011 -1.199529,-0.0904 -1.863312,-0.2144 -1.910879,-0.3571 -0.04163,-0.12489 -0.372551,-0.21866 -0.771668,-0.21866 -0.384332,0 -1.508811,-0.20647 -2.498843,-0.45882 -0.990032,-0.25235 -2.27506,-0.56389 -2.85562,-0.69232 -0.735374,-0.16266 -1.163408,-0.36821 -1.411111,-0.67762 -0.195551,-0.24427 -0.8318,-0.62243 -1.413884,-0.84034 -0.582083,-0.21792 -1.282705,-0.57964 -1.556937,-0.80383 -0.27423,-0.22419 -0.619423,-0.40763 -0.767092,-0.40763 -0.147669,0 -0.51861,-0.10982 -0.824313,-0.24405 -1.752872,-0.76968 -2.328944,-1.04322 -2.407908,-1.14338 -0.04851,-0.0615 -0.485069,-0.38777 -0.970139,-0.72499 -0.485069,-0.33722 -1.477257,-1.23289 -2.204861,-1.99038 -1.025163,-1.06728 -1.54127,-1.45993 -2.293055,-1.74455 -0.533577,-0.202 -1.109046,-0.37505 -1.27882,-0.38456 -0.169774,-0.01 -0.30868,-0.10442 -0.30868,-0.21091 0,-0.36544 -1.06325,-1.00252 -1.493101,-0.89463 -0.503562,0.12638 -0.748088,-0.14876 -0.937459,-1.05483 -0.111035,-0.53126 -0.228006,-0.69174 -0.504194,-0.69174 -0.197788,0 -0.471663,-0.0916 -0.608612,-0.20359 -0.136948,-0.11197 -0.447433,-0.23103 -0.689968,-0.26458 -0.331479,-0.0459 -0.45487,-0.18184 -0.49694,-0.54768 -0.03764,-0.3273 -0.22439,-0.57377 -0.57028,-0.75264 -0.501237,-0.2592 -1.049447,-1.06218 -1.049447,-1.53717 0,-0.13 -0.709384,-0.98317 -1.576408,-1.89593 -1.607588,-1.69238 -2.480536,-3.07201 -2.480536,-3.920305 0,-0.26057 -0.115593,-0.53846 -0.256874,-0.61752 -0.452529,-0.25325 -2.464662,-4.96301 -3.292677,-7.70711 -0.290083,-0.96136 -0.653922,-1.99254 -0.808531,-2.29152 -1.520534,-2.94039 -2.720555,-17.74816 -1.45446,-17.94744 0.557569,-0.0878 0.584911,-0.0373 0.542547,1.00069 -0.02385,0.58433 0.0497,1.29871 0.163437,1.5875 0.284644,0.72273 0.687349,2.44544 0.593574,2.53921 -0.04223,0.0422 -0.199151,-0.0762 -0.348726,-0.26312 -0.247856,-0.30979 -0.263465,-0.16797 -0.176158,1.60037 0.16936,3.43029 0.278094,4.12705 0.688963,4.41483 0.203751,0.14271 0.423073,0.25948 0.487383,0.25948 0.194936,0 0.05822,-1.80079 -0.199144,-2.62311 -0.216823,-0.69277 -0.210979,-0.79319 0.05759,-0.98958 0.40797,-0.29831 0.376722,-0.4234 -0.156404,-0.6261 -0.250421,-0.0952 -0.422877,-0.23215 -0.383238,-0.30431 0.03964,-0.0722 0.182556,-0.38918 0.317592,-0.70447 0.167018,-0.38997 0.365405,-0.57327 0.620469,-0.57327 0.36166,0 0.379526,-0.10159 0.504083,-2.86632 0.07102,-1.57647 0.142864,-3.06475 0.159644,-3.30729 0.02293,-0.3314 -0.06562,-0.45465 -0.356371,-0.49603 -0.304012,-0.0433 -0.398467,-0.19134 -0.440972,-0.69132 -0.04705,-0.55349 -0.186054,-0.72622 -1.068328,-1.3276 l -1.014236,-0.69132 0.0019,-2.6743 c 0.002,-2.84241 0.18317,-3.83979 0.911348,-5.01801 0.21432,-0.34678 0.403599,-0.91769 0.420622,-1.26869 0.0497,-1.02486 0.237868,-1.40528 0.750447,-1.51719 0.260322,-0.0568 0.568653,-0.13242 0.685179,-0.16796 0.116527,-0.0355 0.385062,0.0756 0.596745,0.24704 0.320467,0.2595 0.351767,0.37353 0.187026,0.68135 -0.108818,0.20333 -0.218604,0.85059 -0.243967,1.43836 -0.0393,0.91075 0.0129,1.1277 0.353212,1.46813 0.595765,0.59595 0.864774,0.30253 1.653687,-1.80379 0.954283,-2.54784 2.499945,-5.691828 4.00323,-8.142858 0.695142,-1.13339 1.263895,-2.13312 1.263895,-2.22162 0,-0.0885 -0.147369,-0.29427 -0.327487,-0.45727 -0.292345,-0.26457 -0.351444,-0.26751 -0.550764,-0.0273 -0.122803,0.14797 -0.327271,0.26903 -0.454377,0.26903 -0.127104,0 -0.284787,0.16916 -0.350404,0.3759 -0.06562,0.20675 -0.785343,1.08784 -1.599387,1.95798 -0.814044,0.87015 -1.48008,1.66579 -1.48008,1.76811 0,0.10231 -0.152069,0.0484 -0.33793,-0.1198 -0.332145,-0.30059 -0.332211,-0.31842 -0.0039,-1.04158 0.183731,-0.40466 0.336746,-0.8945 0.340034,-1.08852 0.0033,-0.19403 0.284957,-0.82903 0.625933,-1.41112 0.340976,-0.58208 0.712992,-1.2723 0.826701,-1.53382 0.156963,-0.36099 0.374033,-0.50375 0.901489,-0.59286 0.490336,-0.0828 0.90817,-0.33383 1.420152,-0.85306 0.711966,-0.72204 1.87194,-2.70862 1.87194,-3.2059 0,-0.1389 0.06407,-0.25255 0.142384,-0.25255 0.227166,0 1.295529,-0.89658 2.062477,-1.73086 0.388055,-0.42212 1.325903,-1.40447 2.084103,-2.183 0.758203,-0.77853 1.447798,-1.59766 1.532439,-1.82028 0.114067,-0.30002 0.349721,-0.43784 0.910655,-0.53261 0.920314,-0.15549 1.454191,-0.46739 2.263775,-1.32256 0.339549,-0.35866 0.865711,-0.77923 1.16925,-0.9346 0.303539,-0.15537 0.594373,-0.3932 0.646298,-0.52852 0.05192,-0.13531 0.319513,-0.29391 0.594639,-0.35245 0.275126,-0.0585 0.778042,-0.28493 1.117591,-0.50309 0.604597,-0.38846 1.943772,-1.10653 3.880555,-2.08077 1.125746,-0.56628 3.525335,-1.46598 4.976615,-1.86594 1.04617,-0.28832 1.910998,-0.83462 1.683195,-1.06327 -0.207049,-0.20781 -2.259148,0.48446 -2.809958,0.94794 -0.355454,0.29909 -0.498463,0.34686 -0.498463,0.1665 0,-0.28814 0.548857,-0.83677 0.837114,-0.83677 0.105585,0 0.575585,-0.16759 1.044443,-0.37243 0.736143,-0.32162 0.804331,-0.39213 0.499693,-0.51677 -0.194027,-0.0794 -0.610746,-0.14992 -0.926041,-0.15673 -0.754938,-0.0163 -0.724944,-0.22673 0.08819,-0.61867 1.339159,-0.64548 2.634931,-0.99824 3.937417,-1.07189 1.042153,-0.0589 1.526688,-0.18326 2.204861,-0.56571 0.864887,-0.48774 0.886172,-0.49023 4.308764,-0.50473 1.891771,-0.008 3.876143,-0.076 4.409723,-0.15119 0.6438,-0.0907 1.23715,-0.0616 1.76389,0.0865 l 0.793753,0.22313 -1.392973,0.22413 c -0.76613,0.12327 -1.58297,0.27182 -1.8152,0.3301 -0.74909,0.18801 -0.24183,0.4483 0.88143,0.45229 0.70405,0.002 1.3652,0.12783 1.86093,0.35277 1.008163,0.45747 2.034543,0.45587 2.494283,-0.004 0.42105,-0.42104 1.44515,-0.47225 1.76389,-0.0882 0.13847,0.16685 0.15029,0.26459 0.032,0.26459 -0.10317,0 -0.23663,-0.0794 -0.29659,-0.17639 -0.16473,-0.26653 -0.91899,-0.21134 -1.02898,0.0753 -0.1661,0.43286 0.29599,0.6145 1.655662,0.6508 0.72248,0.0193 1.7307,0.14736 2.2405,0.28461 0.509805,0.13726 1.065425,0.21814 1.234725,0.17974 0.1693,-0.0384 0.52226,0.0353 0.78435,0.16373 0.36409,0.17845 0.57884,0.18693 0.9102,0.0359 0.34639,-0.15783 0.51576,-0.1401 0.84154,0.0881 0.22433,0.15712 0.67258,0.28567 0.99612,0.28567 0.32354,0 1.31791,0.23128 2.20971,0.51396 0.8918,0.28267 2.41521,0.7627 3.38535,1.06672 0.97013,0.30402 2.06268,0.7493 2.42787,0.98952 0.39976,0.26296 1.24208,0.54478 2.116666,0.7082 1.12797,0.21076 2.02437,0.55921 4.01032,1.55891 1.4067,0.70812 2.79576,1.34193 3.0868,1.40847 0.29104,0.0665 0.66807,0.16224 0.83785,0.21268 0.90116,0.26772 0.0558,-0.51801 -2.96336,-2.75429 -0.32744,-0.24253 -0.59831,-0.50585 -0.60193,-0.58515 -0.0164,-0.35847 0.86279,0.19159 1.75574,1.09851 0.64492,0.655 1.22606,1.06808 1.70416,1.21133 0.51751,0.15505 0.95834,0.48989 1.53759,1.16791 0.44664,0.5228 1.22985,1.22817 1.74046,1.56749 0.89767,0.59653 2.40341,2.07718 3.31047,3.25533 0.24207,0.31441 0.53357,0.57238 0.64778,0.57326 0.1142,8.8e-4 0.4317,0.26623 0.70555,0.58967 0.27385,0.32344 0.87428,0.84273 1.33427,1.15398 0.54178,0.36659 0.87313,0.73412 0.94077,1.04352 0.184,0.84161 0.2338,0.9186 0.59418,0.9186 0.29584,0 0.33724,-0.0833 0.25235,-0.50778 -0.18384,-0.91918 0.26186,-0.79331 0.70015,0.19773 0.22941,0.51875 0.69178,1.33651 1.02748,1.81724 0.3357,0.48073 0.76021,1.23124 0.94335,1.66781 0.18314,0.43656 0.63443,1.22339 1.00286,1.7485 0.36842,0.52512 0.67039,1.08074 0.67103,1.23472 7e-4,0.15399 0.15886,0.5181 0.35161,0.80914 0.19275,0.29104 0.35098,0.81954 0.35162,1.17443 8.8e-4,0.5229 0.14789,0.79624 0.77483,1.44132 0.77323,0.79559 1.03245,1.37006 1.8713,4.146978 0.1858,0.61506 0.38997,1.80569 0.45373,2.64584 0.0861,1.13474 0.22421,1.71704 0.53708,2.2645 0.44072,0.77119 0.55367,1.79401 0.23346,2.11422 -0.20409,0.20409 0.5582,3.6194 1.00535,4.5043 0.17616,0.34862 0.24069,1.30853 0.24069,3.58063 0,2.26868 0.0647,3.23254 0.24021,3.58064 0.52811,1.04716 0.72409,5.05697 0.34226,7.0027 -0.11423,0.58208 -0.37656,2.04861 -0.58295,3.25895 -0.20639,1.21034 -0.46056,2.3034 -0.56483,2.42903 -0.10426,0.12564 -0.20929,0.40805 -0.23339,0.62758 -0.093,0.84701 -1.20975,4.1376 -2.11953,6.24523 -0.13446,0.3115 -0.2591,1.09831 -0.27699,1.74848 -0.0293,1.06483 -0.0897,1.24537 -0.60846,1.81961 -0.46295,0.51243 -0.54051,0.70083 -0.39533,0.96025 0.1384,0.24731 0.0936,0.44038 -0.19143,0.82599 -0.20463,0.27677 -0.37206,0.620815 -0.37206,0.764545 0,0.14372 -0.0704,0.30481 -0.15639,0.35797 -0.086,0.0532 -0.20923,0.39519 -0.27381,0.76006 -0.24214,1.36813 -1.02947,3.10622 -1.70861,3.77192 -0.72353,0.7092 -0.80488,0.9342 -0.91171,2.52172 -0.0939,1.39544 -0.59297,1.8663 -1.9781,1.8663 -0.5236,0 -1.13433,0.0739 -1.35718,0.16418 -0.22285,0.0903 -0.61912,0.20978 -0.8806,0.26552 -0.26149,0.0557 -0.84418,0.42049 -1.29486,0.81056 -0.45069,0.39006 -1.13521,0.87031 -1.52115,1.0672 -0.38595,0.1969 -1.17179,0.79014 -1.74632,1.31832 -0.57453,0.52818 -1.13421,0.96033 -1.24374,0.96033 -0.20578,0 -3.60935,2.39975 -4.39003,3.09527 -0.24254,0.21608 -0.61751,0.44617 -0.83327,0.51132 -0.21576,0.0651 -0.55085,0.34112 -0.74464,0.61328 -0.25666,0.36044 -0.5493,0.52125 -1.07749,0.5921 -0.82192,0.11024 -0.88066,0.14704 -0.94608,0.59281 -0.0299,0.20393 -0.29971,0.39659 -0.73642,0.52591 -0.37905,0.11225 -1.16457,0.49293 -1.7456,0.84596 -0.58102,0.35302 -1.612896,0.80734 -2.293046,1.00958 -0.68016,0.20225 -1.63352,0.5687 -2.11859,0.81435 -0.66056,0.33452 -1.30258,0.47997 -2.55764,0.57944 -0.92163,0.073 -1.95292,0.22022 -2.29176,0.32705 -0.33884,0.10683 -0.85478,0.14987 -1.14653,0.0956 -0.29175,-0.0542 -0.80827,0.0147 -1.14782,0.15327 -0.34709,0.14161 -1.06047,0.2337 -1.62951,0.21035 -0.59707,-0.0245 -1.08116,0.0416 -1.18043,0.16124 -0.0926,0.11153 -0.61758,0.22157 -1.16671,0.24455 -0.549135,0.023 -1.129185,0.11058 -1.289015,0.19466 -0.44029,0.23163 -5.955425,0.35098 -8.845455,0.19141 z M 50.419063,93.466145 c 0.260435,-0.13938 0.413468,-0.13938 0.552849,0 0.106001,0.106 0.2947,0.19273 0.419331,0.19273 0.299986,0 0.116493,-2.04007 -0.234012,-2.60174 -0.336874,-0.53983 -1.620846,-0.5643 -2.095388,-0.0399 -0.48774,0.53895 -0.107575,0.7995 0.585854,0.40153 0.415565,-0.23851 0.59875,-0.26556 0.753091,-0.11122 0.295867,0.29587 0.04144,0.58747 -0.512586,0.58747 -0.980802,0 -1.636515,0.9676 -1.051894,1.55222 0.264241,0.26424 1.105592,0.27431 1.582755,0.0189 z m -1.000671,-0.51283 c -0.174939,-0.28306 0.04413,-0.48266 0.622968,-0.56761 0.644061,-0.0945 0.806288,0.0833 0.424386,0.4652 -0.313764,0.31376 -0.882369,0.36936 -1.047354,0.10241 z m 7.992729,0.39688 c -0.03236,-0.16978 -0.233804,-0.33368 -0.447658,-0.36423 -0.366144,-0.0523 -0.391759,-0.15519 -0.439169,-1.76389 l -0.05035,-1.70834 h -0.779051 c -0.930875,0 -1.200277,0.38906 -0.382635,0.55259 l 0.544325,0.10886 v 1.37735 c 0,1.37035 -0.0025,1.37763 -0.483561,1.43316 -0.29165,0.0337 -0.506794,0.17832 -0.5421,0.3645 -0.05162,0.27217 0.100981,0.30868 1.290244,0.30868 1.189377,0 1.341831,-0.0365 1.289952,-0.30868 z m 5.981324,0.0161 c 0.03715,-0.11243 -0.171974,-0.25702 -0.464725,-0.32132 l -0.532276,-0.11691 -0.05033,-1.70715 -0.05033,-1.70714 h -0.779052 c -0.935141,0 -1.199279,0.38926 -0.375879,0.55394 l 0.551081,0.11022 -0.05085,1.43181 c -0.048,1.35134 -0.07347,1.43294 -0.453311,1.45209 -0.489719,0.0247 -0.642625,0.15672 -0.48215,0.41638 0.163132,0.26395 2.597111,0.16261 2.687828,-0.11192 z m 10.720391,-1.83376 c 0,-1.77779 -0.03619,-2.0209 -0.30868,-2.07338 -0.251922,-0.0485 -0.308681,0.0687 -0.308681,0.63738 v 0.69682 l -0.765415,-0.0863 c -0.676165,-0.0762 -0.809854,-0.0298 -1.146527,0.39823 -0.483308,0.61442 -0.48831,1.4878 -0.01199,2.09334 0.340117,0.43238 0.454456,0.46448 1.455209,0.40853 l 1.086088,-0.0607 v -2.01393 z m -1.993194,1.20915 c -0.116417,-0.11641 -0.211667,-0.37835 -0.211667,-0.58208 0,-0.20373 0.09525,-0.46567 0.211667,-0.58208 0.116417,-0.11642 0.378354,-0.21167 0.582083,-0.21167 0.203729,0 0.465667,0.0952 0.582084,0.21167 0.116416,0.11641 0.211666,0.37835 0.211666,0.58208 0,0.20373 -0.09525,0.46567 -0.211666,0.58208 -0.116417,0.11642 -0.378355,0.21167 -0.582084,0.21167 -0.203729,0 -0.465666,-0.0953 -0.582083,-0.21167 z m 7.050815,0.7245 c 0.26043,-0.13938 0.41347,-0.13938 0.55285,0 0.106,0.106 0.2947,0.19273 0.41933,0.19273 0.29998,0 0.11649,-2.04007 -0.23401,-2.60174 -0.43234,-0.6928 -2.356203,-0.43897 -2.356203,0.31087 0,0.31478 0.35625,0.35644 0.76391,0.0893 0.40793,-0.26728 0.999973,-0.20989 0.999973,0.0969 0,0.0829 -0.33734,0.24091 -0.749653,0.35115 -0.41231,0.11024 -0.84887,0.28177 -0.97014,0.38118 -0.28007,0.22959 -0.28505,0.88437 -0.009,1.1606 0.26424,0.26424 1.1056,0.27431 1.582763,0.0189 z m -0.912483,-0.51283 c 0,-0.097 -0.004,-0.2359 -0.009,-0.30863 -0.0139,-0.20433 1.059953,-0.37519 1.176183,-0.18713 0.12977,0.20997 -0.44869,0.65909 -0.858493,0.66654 -0.16977,0.003 -0.30868,-0.0738 -0.30868,-0.17078 z m 12.62155,0.27089 c 0.54836,-0.54836 0.57254,-1.4548 0.0563,-2.11107 -0.31653,-0.40241 -0.48825,-0.46833 -1.10243,-0.4232 -0.72581,0.0533 -0.72763,0.0519 -0.78289,-0.61623 -0.0428,-0.51708 -0.12315,-0.65671 -0.35278,-0.61276 -0.25226,0.0483 -0.30507,0.33585 -0.34801,1.89501 -0.0278,1.01095 -0.018,1.92283 0.0218,2.02641 0.0398,0.10357 0.52339,0.20739 1.07459,0.2307 0.85949,0.0363 1.06357,-0.019 1.43342,-0.38886 z m -1.69737,-0.64598 c -0.29455,-0.55038 0.0491,-1.21241 0.6293,-1.21241 0.3009,0 0.51133,0.13781 0.63929,0.41866 0.26017,0.571 -0.0668,1.16884 -0.63929,1.16884 -0.25653,0 -0.50914,-0.15057 -0.6293,-0.37509 z m 7.49404,0.97358 c 0.15346,-0.0589 0.27901,-0.22123 0.27901,-0.36077 0,-0.19457 -0.14435,-0.22662 -0.61929,-0.13753 -0.39123,0.0734 -0.71531,0.0365 -0.88,-0.10018 -0.42535,-0.35301 -0.12827,-0.52918 0.89234,-0.52918 0.89153,0 0.95973,-0.0296 0.95973,-0.41718 0,-0.22945 -0.16451,-0.62633 -0.36558,-0.88195 -0.80767,-1.02678 -2.4697,-0.35388 -2.50852,1.01561 -0.0321,1.13145 1.10554,1.8474 2.24231,1.41118 z m -1.39121,-1.82436 c -0.18122,-0.29322 0.56783,-0.57401 0.96467,-0.36163 0.19403,0.10384 0.35278,0.26538 0.35278,0.35898 0,0.2203 -1.18147,0.22267 -1.31745,0.003 z m 7.572486,1.6936 c 0.47631,-0.34829 0.20195,-0.6853 -0.35231,-0.43277 -0.32401,0.14763 -0.54948,0.14575 -0.8856,-0.007 -0.67682,-0.30838 -0.353,-0.55673 0.72592,-0.55673 0.9238,0 0.95972,-0.0177 0.95972,-0.4737 0,-1.17211 -1.52664,-1.71985 -2.38926,-0.85723 -0.933166,0.93317 -0.28122,2.56566 1.02462,2.56566 0.32541,0 0.73802,-0.10702 0.91691,-0.23783 z m -1.66893,-1.69625 c 0,-0.32916 0.68188,-0.56045 1.05833,-0.35898 0.56274,0.30117 0.41074,0.52917 -0.35278,0.52917 -0.38805,0 -0.70555,-0.0766 -0.70555,-0.17019 z m 7.9191,1.77279 c 0.41567,-0.2632 0.10576,-0.68844 -0.42743,-0.58651 -0.5616,0.10735 -0.78236,-0.16243 -0.78619,-0.96082 -0.002,-0.50557 0.0548,-0.56765 0.56911,-0.61736 0.3766,-0.0364 0.59179,-0.16066 0.6303,-0.36395 0.0467,-0.24638 -0.0663,-0.30869 -0.55955,-0.30869 -0.50663,0 -0.62819,-0.0715 -0.67439,-0.39687 -0.031,-0.21828 -0.17543,-0.39688 -0.32095,-0.39688 -0.14552,0 -0.28995,0.1786 -0.32095,0.39688 -0.0341,0.24026 -0.17914,0.39687 -0.36748,0.39687 -0.17111,0 -0.35856,0.0474 -0.41655,0.10544 -0.19743,0.19744 0.0832,0.60012 0.41829,0.60012 0.27996,0 0.33391,0.13312 0.33391,0.82396 0,0.51917 0.10798,0.94328 0.29192,1.14653 0.30735,0.33961 1.20764,0.42869 1.62996,0.16128 z m 5.74782,-0.12528 c 0.605,-0.605 0.0739,-1.30331 -1.18741,-1.56124 -0.26679,-0.0546 -0.48507,-0.16856 -0.48507,-0.25335 0,-0.31137 0.58578,-0.36588 1.1118,-0.10347 0.69228,0.34535 1.03614,0.0806 0.56767,-0.43704 -0.40804,-0.45088 -1.69398,-0.49362 -2.11723,-0.0704 -0.605,0.605 -0.0739,1.30331 1.18741,1.56124 0.60792,0.12432 0.62663,0.403 0.037,0.55099 -0.29543,0.0742 -0.55556,0.0152 -0.76355,-0.17303 -0.1735,-0.15702 -0.40843,-0.28549 -0.52206,-0.28549 -0.32139,0 -0.24294,0.66686 0.10209,0.86782 0.49034,0.2856 1.74599,0.22731 2.06935,-0.0961 z m -62.002981,-8.04781 c 0.08983,-0.21828 0.333438,-1.30969 0.541346,-2.42535 0.476543,-2.55717 0.501842,-2.64177 0.685729,-2.29305 0.07674,0.14552 0.319795,1.17739 0.540126,2.29305 0.599437,3.03527 0.434217,2.82223 2.188664,2.82223 1.482807,0 1.490124,-0.002 1.591461,-0.48507 0.05599,-0.26679 0.382861,-2.19164 0.726371,-4.27743 0.343513,-2.0858 0.747041,-4.53185 0.89673,-5.43567 0.149689,-0.90382 0.225282,-1.76547 0.167984,-1.91478 -0.08463,-0.22054 -0.366071,-0.25959 -1.499657,-0.20811 -0.767514,0.0349 -1.437178,0.10507 -1.488143,0.15603 -0.05097,0.051 -0.271175,1.54114 -0.489354,3.31151 -0.284759,2.31061 -0.444483,3.13343 -0.566076,2.91616 -0.09316,-0.16647 -0.398706,-1.37867 -0.678988,-2.69378 -0.280282,-1.31511 -0.574689,-2.45619 -0.654241,-2.53574 -0.239885,-0.23989 -1.642699,-0.0594 -1.793162,0.23076 -0.07547,0.14552 -0.25962,0.82021 -0.409222,1.49931 -0.724433,3.28847 -0.850403,3.81316 -0.902881,3.76068 -0.0613,-0.0613 -0.336348,-2.36288 -0.618059,-5.17179 -0.282124,-2.81305 -0.106308,-2.57962 -1.898267,-2.52034 -1.519626,0.0503 -1.537944,0.0563 -1.506053,0.49187 0.01776,0.24253 0.394194,2.82222 0.836528,5.73263 0.442334,2.91042 0.851292,5.60917 0.908794,5.99723 0.175779,1.18621 0.115255,1.14653 1.748416,1.14653 1.398512,0 1.520545,-0.029 1.671954,-0.39688 z m 16.056885,-1.5434 v -1.94028 h -2.293055 -2.293056 v -0.69959 -0.69959 l 1.896181,-0.0501 1.89618,-0.0501 v -1.23472 -1.23472 l -1.852083,-0.0882 -1.852084,-0.0882 -0.05424,-0.74965 -0.05424,-0.74966 h 2.303198 2.303198 v -1.94371 -1.94372 l -3.836458,0.0475 -3.836459,0.0475 -0.04622,6.65868 -0.04622,6.65869 h 3.882676 3.882677 z m 8.46313,1.74816 c 1.1304,-0.24242 1.854083,-0.84178 2.053883,-1.70105 0.085,-0.36546 0.11483,-1.52432 0.0663,-2.57525 -0.0873,-1.89076 -0.0942,-1.91617 -0.665433,-2.42641 -0.56155,-0.50162 -0.56994,-0.52976 -0.30868,-1.03498 0.33544,-0.64867 0.366583,-3.59173 0.0449,-4.24103 -0.12017,-0.24253 -0.5754,-0.62112 -1.01163,-0.84131 -0.75523,-0.38119 -0.95763,-0.39806 -4.232738,-0.35278 l -3.439583,0.0476 -0.05126,1.45686 c -0.0499,1.41834 -0.03941,1.46135 0.396875,1.62723 l 0.448132,0.17038 v 3.53651 3.53651 l -0.440972,0.16765 c -0.411207,0.15634 -0.440972,0.24932 -0.440972,1.37735 0,0.66533 0.05292,1.26261 0.117593,1.32728 0.19498,0.19498 6.500525,0.13203 7.463595,-0.0745 z m -3.136185,-2.489 c -0.128448,-0.12844 -0.211667,-0.75259 -0.211667,-1.5875 v -1.37583 l 0.661458,0.003 c 0.988244,0.004 1.156554,0.19029 1.242224,1.37462 0.0649,0.8967 0.021,1.10775 -0.29641,1.42513 -0.411992,0.41199 -1.068783,0.4877 -1.395605,0.16088 z m -0.137293,-5.31699 c -0.05002,-0.13035 -0.06737,-0.82488 -0.03856,-1.5434 0.04781,-1.19237 0.08623,-1.31123 0.440159,-1.36158 0.213276,-0.0304 0.550619,0.032 0.749653,0.13849 0.311456,0.16669 0.361876,0.36395 0.361876,1.41598 0,1.02794 -0.0543,1.25135 -0.341182,1.40491 -0.476342,0.25493 -1.063704,0.22767 -1.171944,-0.0544 z m 11.985448,5.57276 c 0.27221,-1.33394 0.53895,-2.54441 0.59276,-2.68993 0.13202,-0.35709 0.55762,1.25595 1.1984,4.54201 l 0.11178,0.57327 h 1.55947 1.55947 l 0.0955,-0.48507 c 0.0525,-0.26679 0.33763,-1.9932 0.63359,-3.83646 0.29596,-1.84327 0.66058,-4.02608 0.81026,-4.8507 0.14968,-0.82462 0.28759,-1.85649 0.30647,-2.29305 l 0.0343,-0.79375 -1.32291,-0.0452 c -0.72761,-0.0249 -1.41333,0.0148 -1.52384,0.0882 -0.19376,0.12868 -0.6336,2.7394 -0.87684,5.20462 -0.13041,1.32161 -0.34389,1.53754 -0.52315,0.52916 -0.0647,-0.3638 -0.3287,-1.57427 -0.58673,-2.68993 l -0.46914,-2.02847 -0.5922,-0.0571 c -1.15089,-0.11096 -1.33159,0.0313 -1.577075,1.24192 -0.43027,2.12196 -0.96617,4.37064 -1.02708,4.30973 -0.0337,-0.0337 -0.21876,-1.56161 -0.41118,-3.3953 -0.19243,-1.83369 -0.39596,-3.55226 -0.45228,-3.81905 l -0.10241,-0.48507 h -1.573492 c -0.86541,0 -1.57302,0.0595 -1.57246,0.13229 5.3e-4,0.0728 0.0809,0.60854 0.17861,1.19063 0.0977,0.58208 0.29375,1.85208 0.43574,2.82222 0.14199,0.97014 0.38039,2.55764 0.52978,3.52778 0.1494,0.97014 0.39518,2.59439 0.5462,3.60946 0.15101,1.01506 0.31317,1.90803 0.36035,1.98437 0.0472,0.0763 0.7782,0.13881 1.624482,0.13881 h 1.53869 z m 13.86582,2.23323 c 1.050156,-0.22521 1.881966,-0.86388 2.266086,-1.73993 0.35922,-0.81923 0.50941,-6.60233 0.21993,-8.46812 -0.24655,-1.58901 -0.62123,-2.13863 -1.80514,-2.64793 -0.792416,-0.34089 -1.154946,-0.38639 -2.612156,-0.32786 -2.19594,0.0882 -3.11093,0.55805 -3.68486,1.8922 -0.34924,0.81182 -0.37697,1.17274 -0.36981,4.81368 0.008,4.09978 0.11955,4.87336 0.81334,5.64366 0.80269,0.89121 3.14537,1.26907 5.17261,0.8343 z m -2.46093,-4.40437 c -0.64328,-0.27087 -0.70487,-0.45799 -0.70783,-2.15039 -0.003,-1.97132 0.2106,-2.24896 1.73385,-2.24896 1.45685,0 1.614826,0.21809 1.614826,2.22914 0,1.04086 -0.0806,1.69417 -0.234966,1.90533 -0.28006,0.38301 -1.74286,0.54406 -2.40588,0.26488 z m 11.339896,3.31767 c 0.1568,-0.70335 0.41723,-1.90513 0.57874,-2.67062 0.32002,-1.51677 0.45113,-1.50478 0.75285,0.0689 0.34344,1.79125 0.74603,3.58887 0.83654,3.73533 0.0494,0.0799 0.75825,0.14523 1.57529,0.14523 1.39938,0 1.49015,-0.023 1.56514,-0.39688 0.0438,-0.21828 0.20507,-1.15094 0.35842,-2.07257 0.15336,-0.92163 0.51144,-3.02507 0.79573,-4.67431 0.2843,-1.64923 0.57134,-3.4947 0.63786,-4.10104 l 0.12095,-1.10243 -1.3898,0.003 c -0.76439,10e-4 -1.48233,0.0616 -1.59544,0.13353 -0.16611,0.10568 -0.94088,5.15876 -0.94088,6.13647 0,0.13953 -0.0654,0.25369 -0.14526,0.25369 -0.0799,0 -0.2361,-0.4564 -0.34715,-1.01423 -0.44406,-2.2308 -0.92686,-4.17976 -1.07116,-4.32406 -0.24594,-0.24594 -1.64796,-0.0722 -1.79964,0.22301 -0.0748,0.14552 -0.27153,0.89959 -0.43725,1.6757 -0.3835,1.79602 -0.76024,3.29657 -0.85026,3.3866 -0.0707,0.0707 -0.29567,-1.69415 -0.69036,-5.41507 l -0.21517,-2.02848 -1.48291,-0.0517 c -0.81559,-0.0284 -1.53862,0.0113 -1.60672,0.0882 -0.0681,0.0769 0.0634,1.37018 0.29224,2.8739 0.57372,3.77015 0.87221,5.75636 1.20611,8.0257 0.15701,1.06715 0.31882,2.03949 0.35958,2.16076 0.0519,0.15428 0.54455,0.22049 1.64079,0.22049 h 1.56669 z M 83.623589,65.528205 c 1.88372,-0.33566 3.381065,-1.10534 4.682845,-2.40712 4.57319,-4.57319 2.83791,-12.293938 -3.285675,-14.618858 -0.82987,-0.31507 -1.3902,-0.39033 -2.882222,-0.38711 -2.17761,0.005 -3.292413,0.32843 -4.907273,1.42506 -2.571998,1.74661 -3.90799,4.25642 -3.90799,7.341608 0,2.60146 0.766683,4.40676 2.66627,6.27823 0.66451,0.65468 1.59275,1.35818 2.12388,1.60965 0.817053,0.38686 1.374243,0.54366 3.231363,0.90937 0.6099,0.1201 0.84613,0.10446 2.278802,-0.15083 z M 40.951725,46.355127 c 0.485069,-0.68803 1.421894,-1.87521 2.08183,-2.63819 1.165569,-1.34756 1.26701,-1.92478 0.150798,-0.85807 -0.304548,0.29104 -0.63382,0.52917 -0.731718,0.52917 -0.0979,0 -0.177994,0.18078 -0.177994,0.40172 0,0.54139 -0.400503,1.07749 -1.151879,1.54186 -0.604326,0.3735 -1.317565,1.46598 -1.317565,2.01814 0,0.49196 0.253513,0.27203 1.146528,-0.99463 z m 0.705555,63.002353 c -0.05996,-0.097 -0.02964,-0.17639 0.06738,-0.17639 0.09701,0 0.225444,0.0794 0.285402,0.17639 0.05996,0.097 0.02964,0.17639 -0.06737,0.17639 -0.09701,0 -0.225445,-0.0794 -0.285403,-0.17639 z m 87.22431,-13.317355 c 0,-0.69862 -0.0462,-0.79375 -0.3855,-0.79375 -0.21203,0 -0.56891,0.17229 -0.79306,0.38287 -0.5996,0.5633 -0.65967,0.30478 -0.15132,-0.6513 0.24637,-0.46335 0.44846,-1.04891 0.4491,-1.30125 7.1e-4,-0.25234 0.15887,-0.69692 0.35162,-0.98796 0.19275,-0.29104 0.35097,-0.73256 0.35161,-0.98115 0.001,-0.52675 0.84179,-3.08499 1.37719,-4.19208 0.21051,-0.43529 0.41497,-1.30728 0.47564,-2.02847 0.0585,-0.69573 0.18951,-1.59309 0.29108,-1.99411 0.13581,-0.5362 0.12913,-0.83294 -0.0252,-1.12137 -0.1518,-0.28365 -0.15656,-0.44557 -0.0172,-0.58496 0.106,-0.106 0.19273,-0.40848 0.19273,-0.67219 0,-0.2637 0.0482,-0.60501 0.10707,-0.75847 0.18628,-0.48545 0.4221,-0.30223 0.4221,0.32794 0,0.33382 0.0914,0.66345 0.20315,0.73251 0.28333,0.1751 0.67879,-0.42448 0.67879,-1.02915 0,-0.27732 0.12362,-0.74327 0.27471,-1.03544 0.1559,-0.30148 0.28007,-1.00331 0.28711,-1.62284 0.009,-0.82467 0.11883,-1.27493 0.44761,-1.84127 0.45296,-0.78022 0.75446,-0.96145 0.75446,-0.45349 0,0.16288 0.0969,0.5641 0.21531,0.89158 0.17985,0.49737 0.17259,0.6227 -0.0441,0.76107 -0.21203,0.13539 -0.15471,0.24871 0.31386,0.62051 0.46288,0.36727 0.57327,0.58147 0.57327,1.11236 0,0.36162 -0.0789,0.73636 -0.17527,0.83275 -0.0964,0.0964 -0.26361,0.84649 -0.3716,1.66688 -0.14342,1.08962 -0.29822,1.6024 -0.57439,1.9027 -0.35614,0.38727 -0.36016,0.42417 -0.0694,0.6368 0.16977,0.12415 0.30868,0.36947 0.30868,0.54516 0,0.1757 -0.13891,0.47314 -0.30868,0.66098 -0.16977,0.18784 -0.31851,0.59096 -0.33051,0.89583 -0.0355,0.9001 -0.74393,3.44661 -1.2035,4.32579 -0.2342,0.44804 -0.59356,1.37025 -0.79857,2.04935 -0.53673,1.77787 -1.39517,3.44052 -1.8695,3.62086 -0.21887,0.0832 -0.44977,0.31459 -0.51312,0.51417 -0.20009,0.63045 -0.44418,0.39368 -0.44418,-0.43086 z m 3.88056,-22.39098 c 0,-0.33383 0.0847,-0.65927 0.18812,-0.72322 0.27105,-0.16752 0.30085,-0.072 0.20852,0.66871 -0.1034,0.82942 -0.39664,0.86972 -0.39664,0.0545 z M 36.775587,50.629887 c 0.167653,-0.39457 0.362225,-0.62948 0.449563,-0.54276 0.0875,0.0869 -0.01286,0.38721 -0.232499,0.69565 -0.515637,0.72415 -0.572653,0.68399 -0.217064,-0.15289 z m 0.031,-5.15694 c 0,-0.31938 1.236839,-2.14159 1.365969,-2.01246 0.144311,0.14431 -0.878917,2.08912 -1.145483,2.17717 -0.121267,0.0401 -0.220486,-0.0341 -0.220486,-0.16471 z m 1.852083,-1.73213 c 0.05996,-0.097 0.183706,-0.17639 0.274994,-0.17639 0.09129,0 0.165978,0.0794 0.165978,0.17639 0,0.097 -0.123747,0.17639 -0.274993,0.17639 -0.151247,0 -0.225937,-0.0794 -0.165979,-0.17639 z m -0.09888,-0.94205 c 0.292045,-0.76813 1.390348,-2.34816 1.834569,-2.63923 0.241339,-0.15813 0.693066,-0.64157 1.003837,-1.07431 0.310772,-0.43275 0.786015,-0.87834 1.056095,-0.99021 0.270081,-0.11187 0.671484,-0.39546 0.892005,-0.63019 0.815051,-0.86758 0.935371,-0.40277 0.179954,0.69519 -0.716046,1.04074 -4.061314,4.50316 -4.643806,4.80644 -0.470601,0.24503 -0.478088,0.24114 -0.322654,-0.16769 z m 6.991277,-6.79631 c 0.18675,-0.18151 0.370699,-0.30249 0.408776,-0.26884 0.111244,0.0983 -0.359066,0.59886 -0.562664,0.59886 -0.10211,0 -0.03286,-0.14851 0.153888,-0.33002 z m -0.983373,-0.0802 c 0,-0.31486 0.748616,-1.00089 1.092202,-1.00089 0.151641,0 0.374526,-0.11906 0.495298,-0.26458 0.120772,-0.14552 0.309085,-0.26098 0.418472,-0.25658 0.219567,0.009 -1.634229,1.75588 -1.863176,1.75588 -0.07854,0 -0.142796,-0.10522 -0.142796,-0.23383 z m 3.175,-2.59247 c 0,-0.0857 0.209741,-0.29845 0.46609,-0.47275 0.256351,-0.17431 0.670902,-0.5352 0.921225,-0.80199 0.250322,-0.26679 0.523305,-0.48507 0.606627,-0.48507 0.131061,0 -0.4238,1.07136 -0.755249,1.45829 -0.186863,0.21814 -1.238693,0.47418 -1.238693,0.30152 z m 55.827096,-4.22925 c -0.34443,-0.2281 -0.42822,-0.35086 -0.24003,-0.35162 0.30787,-10e-4 1.24433,0.6894 0.94558,0.69737 -0.097,0.003 -0.41451,-0.153 -0.70555,-0.34575 z m -47.92943,-1.05899 c 0.31764,-0.19367 0.673652,-0.35212 0.791138,-0.35212 0.117486,0 -0.08258,0.15875 -0.444595,0.35278 -0.851479,0.45636 -1.09537,0.4559 -0.346543,-6.6e-4 z m 40.863494,-1.66943 c -0.2599,-0.19657 -0.27864,-0.25974 -0.0778,-0.26217 0.45542,-0.006 1.05833,0.20261 1.05833,0.36533 0,0.24543 -0.6036,0.18193 -0.98052,-0.10316 z m -11.543095,-1.15214 c 0,-0.097 0.12375,-0.17639 0.27499,-0.17639 0.15125,0 0.22594,0.0794 0.16598,0.17639 -0.06,0.097 -0.1837,0.17639 -0.27499,0.17639 -0.0913,0 -0.16598,-0.0794 -0.16598,-0.17639 z m 8.231485,0.0588 c -0.23078,-0.23077 -0.11185,-0.37704 0.2332,-0.28681 0.19294,0.0504 0.30732,0.16208 0.25418,0.24807 -0.11467,0.18552 -0.32396,0.20216 -0.48738,0.0387 z m -4.91316,-1.5904 c 0.12733,-0.051 0.27946,-0.0447 0.33807,0.0139 0.0586,0.0586 -0.0456,0.1003 -0.23151,0.0926 -0.20548,-0.008 -0.24728,-0.0503 -0.10656,-0.10657 z m -5.576237,-0.58267 c -0.32022,-0.0758 -0.63772,-0.1978 -0.70556,-0.27103 -0.18245,-0.19695 1.959452,0.076 2.158532,0.27508 0.20253,0.20254 -0.58999,0.20033 -1.452972,-0.004 z m 2.919372,0.0495 c 0.218285,-0.042 0.575475,-0.042 0.793755,0 0.21828,0.042 0.0397,0.0764 -0.39688,0.0764 -0.436565,0 -0.615155,-0.0344 -0.396875,-0.0764 z"
       id="path53" />
  </g>
</svg>
