<?xml version="1.0" encoding="UTF-8"?>
<!-- Created with Inkscape (http://www.inkscape.org/) -->
<svg width="22.066mm" height="21.166mm" version="1.1" viewBox="0 0 22.066 21.166" xmlns="http://www.w3.org/2000/svg">
 <g transform="translate(-45.781 -192.86)">
  <path d="m55.519 214.01c-0.55158-0.0305-1.295-0.14773-1.5124-0.2386-0.06961-0.0291-0.1835-0.0529-0.25309-0.0529-0.06959 0-0.25658-0.0311-0.41554-0.069-0.32783-0.0783-1.0393-0.33377-1.0103-0.36278 0.04791-0.0479 0.45806 0.01 0.77828 0.10928 0.19373 0.0602 0.47867 0.13141 0.6332 0.15812 0.15453 0.0267 0.30225 0.0618 0.32827 0.0779 0.02602 0.0161 0.22786 0.0415 0.44853 0.0564 0.5735 0.0386 0.75697 0.068 0.83184 0.13344 0.05335 0.0466 0.07929 0.0492 0.13643 0.0135 0.04952-0.0309 0.31807-0.0446 0.90071-0.0459 1.0198-2e-3 1.1499-9e-3 1.548-0.0828 0.17414-0.0322 0.4252-0.0696 0.55791-0.0832 0.19418-0.0199 0.23912-0.0362 0.23015-0.0833-0.01526-0.0803-0.4035-0.10244-0.51543-0.0294-0.15927 0.1039-2.4317 0.17012-2.7361 0.0797-0.09806-0.0291-0.18884-0.0464-0.20174-0.0385-0.0129 8e-3 -0.10525-1e-3 -0.20523-0.0204-0.18123-0.0348-0.2438-0.041-0.96307-0.0951-0.24804-0.0187-0.3853-0.0443-0.39514-0.0738-0.0086-0.0258-0.07704-0.0452-0.15957-0.0452-0.07947 0-0.312-0.0427-0.51672-0.0949-0.20472-0.0522-0.47045-0.1166-0.5905-0.14316-0.15206-0.0336-0.24058-0.0761-0.2918-0.14012-0.04044-0.0505-0.172-0.12871-0.29237-0.17377-0.12037-0.0451-0.26524-0.11986-0.32195-0.16622-0.05671-0.0464-0.12809-0.0843-0.15862-0.0843-0.03054 0-0.10724-0.0227-0.17046-0.0505-0.36247-0.15916-0.48159-0.21572-0.49792-0.23643-0.01003-0.0127-0.1003-0.0802-0.20061-0.14992-0.1003-0.0697-0.30547-0.25494-0.45593-0.41158-0.21199-0.2207-0.31871-0.30189-0.47417-0.36075-0.11034-0.0418-0.22933-0.0776-0.26444-0.0795-0.03511-2e-3 -0.06383-0.0216-0.06383-0.0436 0-0.0756-0.21986-0.2073-0.30875-0.18499-0.10413 0.0261-0.15469-0.0308-0.19385-0.21812-0.02296-0.10986-0.04715-0.14304-0.10426-0.14304-0.0409 0-0.09753-0.0189-0.12585-0.0421-0.02832-0.0231-0.09252-0.0478-0.14268-0.0547-0.06854-0.01-0.09406-0.0376-0.10276-0.11325-0.0078-0.0677-0.0464-0.11864-0.11793-0.15563-0.10365-0.0536-0.21701-0.21964-0.21701-0.31786 0-0.0269-0.14669-0.20331-0.32598-0.39206-0.33242-0.34995-0.51294-0.63524-0.51294-0.81065 0-0.0539-0.0239-0.11135-0.05312-0.1277-0.09358-0.0524-0.50966-1.0263-0.68088-1.5937-0.05999-0.1988-0.13522-0.41203-0.16719-0.47385-0.31442-0.60803-0.56257-3.67-0.30076-3.7113 0.1153-0.0182 0.12095-8e-3 0.11219 0.20693-0.0049 0.12083 0.01028 0.26855 0.0338 0.32827 0.05886 0.14945 0.14213 0.50568 0.12274 0.52507-0.0087 9e-3 -0.04118-0.0158-0.07211-0.0544-0.05125-0.0641-0.05448-0.0347-0.03643 0.33093 0.03502 0.70933 0.0575 0.85341 0.14247 0.91292 0.04213 0.0295 0.08749 0.0537 0.10078 0.0537 0.04031 0 0.01204-0.37238-0.04118-0.54242-0.04484-0.14325-0.04363-0.16402 0.01191-0.20463 0.08436-0.0617 0.0779-0.0875-0.03234-0.12947-0.05178-0.0197-0.08744-0.048-0.07925-0.0629 0.0082-0.0149 0.03775-0.0805 0.06567-0.14567 0.03454-0.0806 0.07556-0.11855 0.1283-0.11855 0.07479 0 0.07848-0.021 0.10424-0.59271 0.01469-0.32599 0.02954-0.63374 0.03301-0.68389 0.0047-0.0685-0.01357-0.094-0.07369-0.10258-0.06287-9e-3 -0.0824-0.0396-0.09119-0.14295-0.0097-0.11445-0.03847-0.15017-0.22091-0.27453l-0.20973-0.14295 3.93e-4 -0.55301c4.14e-4 -0.58776 0.03788-0.79401 0.18845-1.0376 0.04432-0.0717 0.08346-0.18976 0.08698-0.26234 0.01028-0.21193 0.04919-0.29059 0.15518-0.31373 0.05383-0.0118 0.11759-0.0274 0.14168-0.0347 0.0241-7e-3 0.07963 0.0156 0.1234 0.0511 0.06627 0.0537 0.07274 0.0772 0.03867 0.14089-0.0225 0.042-0.0452 0.17589-0.05045 0.29743-0.0081 0.18833 0.0027 0.23319 0.07304 0.30359 0.1232 0.12323 0.17882 0.0626 0.34196-0.373 0.19733-0.52685 0.51695-1.177 0.82781-1.6838 0.14374-0.23437 0.26135-0.4411 0.26135-0.4594s-0.03047-0.0609-0.06772-0.0946c-0.06045-0.0547-0.07267-0.0553-0.11389-6e-3 -0.02539 0.0306-0.06767 0.0556-0.09396 0.0556-0.02628 0-0.05889 0.035-0.07246 0.0777-0.01357 0.0428-0.1624 0.22495-0.33073 0.40488-0.16833 0.17994-0.30606 0.34446-0.30606 0.36562 0 0.0212-0.03145 0.01-0.06988-0.0248-0.06868-0.0622-0.0687-0.0658-8.06e-4 -0.21538 0.03799-0.0837 0.06963-0.18497 0.07031-0.22509 6.83e-4 -0.0401 0.05892-0.17143 0.12943-0.2918 0.07051-0.12036 0.14744-0.26309 0.17095-0.31717 0.03246-0.0746 0.07734-0.10417 0.18641-0.12259 0.10139-0.0171 0.1878-0.069 0.29367-0.1764 0.14722-0.14931 0.38709-0.56011 0.38709-0.66294 0-0.0287 0.01325-0.0522 0.02944-0.0522 0.04697 0 0.2679-0.18539 0.42649-0.35791 0.08024-0.0873 0.27418-0.29042 0.43096-0.45141s0.29938-0.33037 0.31688-0.37641c0.02359-0.062 0.07232-0.0905 0.18831-0.11013 0.19031-0.0322 0.3007-0.0967 0.46811-0.27349 0.07021-0.0742 0.17902-0.16113 0.24178-0.19326 0.06277-0.0321 0.12291-0.0813 0.13364-0.10929 0.01074-0.028 0.06607-0.0608 0.12296-0.0729 0.05689-0.0121 0.16089-0.0589 0.2311-0.10403 0.12502-0.0803 0.40194-0.22882 0.80244-0.43027 0.23279-0.1171 0.72899-0.30315 1.0291-0.38585 0.21633-0.0596 0.39517-0.17259 0.34806-0.21987-0.04281-0.043-0.46716 0.10018-0.58106 0.19602-0.0735 0.0618-0.10308 0.0717-0.10308 0.0344 0-0.0596 0.1135-0.17303 0.1731-0.17303 0.02183 0 0.11902-0.0347 0.21598-0.077 0.15222-0.0665 0.16632-0.0811 0.10333-0.10686-0.04012-0.0164-0.12629-0.031-0.19149-0.0324-0.15611-3e-3 -0.14991-0.0469 0.01824-0.12793 0.27692-0.13348 0.54486-0.20642 0.8142-0.22165 0.2155-0.0122 0.3157-0.0379 0.45593-0.11698 0.17884-0.10086 0.18325-0.10138 0.89099-0.10437 0.39119-2e-3 0.80153-0.0157 0.91186-0.0313 0.13313-0.0188 0.25582-0.0127 0.36474 0.0179l0.16414 0.0461-0.28804 0.0464c-0.15842 0.0255-0.32734 0.0562-0.37536 0.0683-0.1549 0.0389-0.05001 0.0927 0.18227 0.0935 0.14559 4.1e-4 0.2823 0.0264 0.38481 0.0729 0.20847 0.0946 0.42071 0.0943 0.51578-8.3e-4 0.08707-0.0871 0.29884-0.0976 0.36475-0.0182 0.02863 0.0345 0.03108 0.0547 0.0066 0.0547-0.02133 0-0.04893-0.0164-0.06133-0.0365-0.03406-0.0551-0.19003-0.0437-0.21278 0.0156-0.03435 0.0895 0.06121 0.12707 0.34237 0.13457 0.1494 4e-3 0.35788 0.0305 0.4633 0.0588 0.10542 0.0284 0.22031 0.0451 0.25532 0.0372 0.03501-8e-3 0.108 7e-3 0.16219 0.0339 0.07529 0.0369 0.1197 0.0386 0.18822 7e-3 0.07163-0.0326 0.10665-0.029 0.17402 0.0182 0.04639 0.0325 0.13908 0.0591 0.20598 0.0591 0.0669 0 0.27252 0.0478 0.45694 0.10628 0.18441 0.0585 0.49943 0.15772 0.70004 0.22059 0.20061 0.0629 0.42653 0.15494 0.50205 0.20461 0.08266 0.0544 0.25684 0.11266 0.43769 0.14645 0.23325 0.0436 0.41861 0.11563 0.82927 0.32236 0.29088 0.14643 0.57812 0.27749 0.6383 0.29125 0.06018 0.0138 0.13815 0.0336 0.17325 0.044 0.18635 0.0554 0.01154-0.10712-0.61278-0.56955-0.06771-0.0502-0.12372-0.1046-0.12447-0.121-0.0034-0.0741 0.17841 0.0396 0.36306 0.22716 0.13336 0.13544 0.25353 0.22086 0.35239 0.25048 0.10701 0.0321 0.19817 0.1013 0.31795 0.24151 0.09236 0.10811 0.25431 0.25396 0.3599 0.32413 0.18562 0.12335 0.49699 0.42953 0.68456 0.67315 0.05006 0.065 0.11034 0.11836 0.13395 0.11855 0.02361 1.8e-4 0.08927 0.055 0.1459 0.12193 0.05663 0.0669 0.18079 0.17426 0.27591 0.23863 0.11203 0.0758 0.18055 0.1518 0.19454 0.21578 0.03805 0.17403 0.04835 0.18995 0.12287 0.18995 0.06117 0 0.06974-0.0172 0.05218-0.105-0.03802-0.19007 0.05415-0.16404 0.14478 0.0409 0.04744 0.10727 0.14305 0.27637 0.21247 0.37578 0.06942 0.0994 0.1572 0.2546 0.19507 0.34488 0.03787 0.0903 0.13119 0.25298 0.20738 0.36156 0.07618 0.10859 0.13863 0.22348 0.13876 0.25532 1.45e-4 0.0318 0.03285 0.10714 0.07271 0.16732 0.03986 0.0602 0.07258 0.16947 0.07271 0.24285 1.82e-4 0.10813 0.03058 0.16465 0.16022 0.29805 0.15989 0.16451 0.2135 0.2833 0.38696 0.85753 0.03842 0.12718 0.08064 0.37339 0.09382 0.54712 0.01781 0.23465 0.04636 0.35506 0.11106 0.46826 0.09113 0.15947 0.11449 0.37098 0.04828 0.43719-0.0422 0.0422 0.11543 0.74844 0.20789 0.93142 0.03643 0.0721 0.04977 0.27059 0.04977 0.74042 0 0.46913 0.01338 0.66844 0.04967 0.74042 0.10921 0.21654 0.14973 1.0457 0.07077 1.4481-0.02362 0.12036-0.07787 0.42362-0.12055 0.6739-0.04268 0.25028-0.09524 0.47631-0.1168 0.50229-0.02156 0.026-0.04328 0.0844-0.04826 0.12977-0.01923 0.17515-0.25016 0.85559-0.43829 1.2914-0.0278 0.0644-0.05358 0.22711-0.05728 0.36156-0.0061 0.22019-0.01855 0.25752-0.12582 0.37626-0.09573 0.10597-0.11177 0.14493-0.08175 0.19857 0.02862 0.0511 0.01935 0.0911-0.03959 0.1708-0.04231 0.0572-0.07694 0.12838-0.07694 0.1581 0 0.0297-0.01456 0.063-0.03234 0.074s-0.04327 0.0817-0.05662 0.15717c-0.05007 0.28291-0.21288 0.64232-0.35332 0.77997-0.14962 0.14665-0.16644 0.19318-0.18853 0.52146-0.01942 0.28855-0.12262 0.38592-0.40904 0.38592-0.10827 0-0.23456 0.0153-0.28064 0.034-0.04608 0.0187-0.12802 0.0434-0.1821 0.0549-0.05407 0.0115-0.17456 0.087-0.26776 0.16761-0.0932 0.0807-0.23474 0.17997-0.31455 0.22068-0.07981 0.0407-0.24231 0.16339-0.36111 0.27261s-0.23454 0.19858-0.25719 0.19858c-0.04255 0-0.74636 0.49623-0.90779 0.64006-0.05015 0.0447-0.12769 0.0923-0.17231 0.10573-0.04462 0.0135-0.11391 0.0705-0.15398 0.12682-0.05307 0.0745-0.11359 0.10778-0.22281 0.12243-0.16996 0.0228-0.18211 0.0304-0.19564 0.12259-0.0062 0.0422-0.06197 0.082-0.15228 0.10875-0.07838 0.0232-0.24082 0.10193-0.36096 0.17493-0.12015 0.073-0.33352 0.16695-0.47417 0.20877-0.14065 0.0418-0.33779 0.11759-0.43809 0.16839-0.13659 0.0692-0.26935 0.0993-0.52888 0.11982-0.19058 0.0151-0.40384 0.0455-0.4739 0.0676-0.07007 0.0221-0.17676 0.031-0.23708 0.0198s-0.16714 3e-3 -0.23735 0.0317c-0.07177 0.0293-0.21929 0.0483-0.33696 0.0435-0.12346-5e-3 -0.22357 9e-3 -0.2441 0.0333-0.01915 0.0231-0.12771 0.0458-0.24126 0.0506-0.11355 5e-3 -0.2335 0.0229-0.26655 0.0403-0.09104 0.0479-1.2315 0.0726-1.8291 0.0396zm-4.7064-8.2156c0.01858-0.0451 0.06895-0.27082 0.11194-0.50152 0.09854-0.52879 0.10377-0.54628 0.1418-0.47417 0.01587 0.0301 0.06613 0.24347 0.11169 0.47417 0.12396 0.62765 0.08979 0.58359 0.45258 0.58359 0.30662 0 0.30814-4.1e-4 0.32909-0.1003 0.01158-0.0552 0.07917-0.4532 0.1502-0.88451 0.07103-0.43131 0.15448-0.93712 0.18543-1.124 0.03095-0.18689 0.04659-0.36507 0.03474-0.39594-0.0175-0.0456-0.0757-0.0537-0.31011-0.043-0.15871 7e-3 -0.29719 0.0217-0.30772 0.0323-0.01054 0.0106-0.05607 0.31868-0.10119 0.68477-0.05888 0.4778-0.09191 0.64794-0.11706 0.60302-0.01926-0.0344-0.08245-0.28509-0.1404-0.55704-0.05796-0.27194-0.11884-0.5079-0.13529-0.52435-0.0496-0.0496-0.33969-0.0123-0.3708 0.0477-0.01561 0.0301-0.05369 0.16961-0.08462 0.31004-0.1498 0.68-0.17585 0.7885-0.1867 0.77765-0.01268-0.0127-0.06955-0.48861-0.1278-1.0694-0.05834-0.5817-0.02198-0.53343-0.39253-0.52117-0.31424 0.0104-0.31802 0.0116-0.31143 0.10171 0.0037 0.0502 0.08151 0.58359 0.17298 1.1854 0.09147 0.60183 0.17603 1.1599 0.18792 1.2401 0.03635 0.24529 0.02383 0.23708 0.36155 0.23708 0.28919 0 0.31443-6e-3 0.34574-0.0821zm3.3203-0.31915v-0.40122h-0.94834v-0.28933l0.7842-0.0208v-0.51064l-0.76597-0.0364-0.02244-0.31004h0.95253v-0.80386l-1.5866 0.02-0.0096 1.3769-0.0096 1.3769h1.6058zm1.75 0.36149c0.23375-0.0501 0.3834-0.17406 0.42471-0.35175 0.01758-0.0756 0.02374-0.3152 0.01371-0.53252-0.01805-0.39098-0.01948-0.39623-0.1376-0.50174-0.11612-0.10373-0.11786-0.10955-0.06383-0.21402 0.06936-0.13414 0.0758-0.74272 0.0093-0.87698-0.02485-0.0502-0.11898-0.12844-0.20919-0.17397-0.15617-0.0788-0.19802-0.0823-0.87527-0.073l-0.71125 0.01-0.0106 0.30125c-0.01032 0.2933-0.0081 0.30219 0.08207 0.33649l0.09267 0.0352v1.4626l-0.09119 0.0347c-0.08503 0.0323-0.09119 0.0516-0.09119 0.28482 0 0.13758 0.01094 0.26109 0.02432 0.27446 0.04032 0.0403 1.3442 0.0273 1.5434-0.0154zm-0.64852-0.51468c-0.02656-0.0266-0.04377-0.15563-0.04377-0.32827v-0.2845l0.13678 6.2e-4c0.20435 8.2e-4 0.23916 0.0394 0.25687 0.28425 0.01342 0.18542 0.0043 0.22906-0.06129 0.29469-0.08519 0.0852-0.22101 0.10085-0.28859 0.0333zm-0.02839-1.0995c-0.01034-0.0269-0.01393-0.17057-8e-3 -0.31915 0.0099-0.24656 0.01783-0.27114 0.09102-0.28155 0.0441-6e-3 0.11386 7e-3 0.15502 0.0286 0.0644 0.0345 0.07483 0.0753 0.07483 0.2928 0 0.21256-0.01123 0.25876-0.07055 0.29052-0.0985 0.0527-0.21996 0.0471-0.24234-0.0113zm2.4784 1.1524c0.05629-0.27584 0.11145-0.52615 0.12257-0.55624 0.0273-0.0738 0.11531 0.25971 0.24781 0.93922l0.02311 0.11854h0.64495l0.01975-0.1003c0.01086-0.0552 0.06982-0.41217 0.13102-0.79332 0.0612-0.38117 0.1366-0.83254 0.16755-1.0031 0.03095-0.17052 0.05947-0.38389 0.06337-0.47416l0.0071-0.16414-0.27356-9e-3c-0.15046-5e-3 -0.29226 3e-3 -0.31511 0.0182-0.04007 0.0266-0.13102 0.56647-0.18132 1.0762-0.02697 0.27329-0.07111 0.31794-0.10818 0.10942-0.01338-0.0752-0.06797-0.32554-0.12133-0.55624l-0.09701-0.41945-0.12246-0.0118c-0.23799-0.0229-0.27535 6e-3 -0.32612 0.25681-0.08897 0.43878-0.19979 0.90378-0.21238 0.89118-7e-3 -7e-3 -0.04524-0.32291-0.08503-0.70209s-0.08188-0.73456-0.09352-0.78973l-0.02118-0.1003h-0.32538c-0.17895 0-0.32528 0.0123-0.32516 0.0274 1.09e-4 0.0151 0.01673 0.12584 0.03693 0.2462 0.0202 0.12037 0.06074 0.38299 0.09011 0.5836 0.02936 0.20061 0.07866 0.52888 0.10955 0.72949s0.08172 0.53648 0.11295 0.74638c0.03123 0.2099 0.06476 0.39455 0.07452 0.41034 0.0098 0.0158 0.16092 0.0287 0.33592 0.0287h0.31818zm2.8672 0.46179c0.21716-0.0466 0.38916-0.17863 0.46859-0.35979 0.07428-0.1694 0.10534-1.3653 0.04548-1.7511-0.05098-0.32858-0.12846-0.44223-0.37328-0.54755-0.16386-0.0705-0.23882-0.0799-0.54015-0.0678-0.45409 0.0182-0.64329 0.1154-0.76197 0.39128-0.07222 0.16787-0.07795 0.24251-0.07647 0.9954 0.0017 0.84777 0.02472 1.0077 0.16819 1.167 0.16598 0.18429 0.65042 0.26242 1.0696 0.17252zm-0.50888-0.91075c-0.13302-0.056-0.14576-0.0947-0.14637-0.44467-6.2e-4 -0.40764 0.04355-0.46505 0.35853-0.46505 0.30125 0 0.33392 0.0451 0.33392 0.46095 0 0.21524-0.01667 0.35033-0.04859 0.39399-0.05791 0.0792-0.3604 0.11251-0.4975 0.0548zm2.3449 0.68604c0.03242-0.14544 0.08628-0.39395 0.11968-0.55224 0.06618-0.31365 0.09329-0.31117 0.15568 0.0142 0.07102 0.3704 0.15427 0.74212 0.17298 0.77241 0.01022 0.0165 0.1568 0.03 0.32575 0.03 0.28937 0 0.30814-5e-3 0.32365-0.0821 0.0091-0.0451 0.04241-0.238 0.07412-0.42858s0.10576-0.62554 0.16454-0.96657c0.05879-0.34104 0.11814-0.72266 0.1319-0.84804l0.02501-0.22796-0.28739 6.2e-4c-0.15806 2e-4 -0.30652 0.0127-0.32991 0.0276-0.03435 0.0219-0.19456 1.0668-0.19456 1.2689 0 0.0289-0.01352 0.0525-0.03004 0.0525s-0.04882-0.0944-0.07178-0.20973c-0.09183-0.4613-0.19166-0.86431-0.2215-0.89415-0.05086-0.0509-0.34077-0.0149-0.37214 0.0461-0.01547 0.0301-0.05615 0.18602-0.09042 0.34651-0.0793 0.37139-0.15721 0.68168-0.17582 0.7003-0.01462 0.0146-0.06114-0.35033-0.14276-1.1198l-0.04449-0.41946-0.30664-0.0107c-0.16865-6e-3 -0.31816 2e-3 -0.33224 0.0182-0.01408 0.0159 0.01311 0.28333 0.06043 0.59428 0.11864 0.77961 0.18036 1.1903 0.2494 1.6596 0.03247 0.22067 0.06593 0.42174 0.07436 0.44682 0.01073 0.0319 0.1126 0.0456 0.33929 0.0456h0.32397zm-5.2121-3.9112c0.38952-0.0694 0.69915-0.22857 0.96834-0.49775 0.94567-0.94567 0.58684-2.5422-0.67943-3.023-0.1716-0.0652-0.28747-0.0807-0.596-0.08-0.4503 1e-3 -0.68082 0.0679-1.0147 0.29468-0.53185 0.36117-0.80811 0.88016-0.80811 1.5181 0 0.53794 0.15854 0.91125 0.55134 1.2982 0.13741 0.13538 0.32936 0.28086 0.43919 0.33286 0.16895 0.08 0.28417 0.11242 0.6682 0.18804 0.12612 0.0248 0.17497 0.0216 0.47122-0.0312zm-8.8239-3.9647c0.1003-0.14227 0.29403-0.38776 0.43049-0.54554 0.24102-0.27865 0.262-0.39801 0.03118-0.17743-0.06298 0.0602-0.13106 0.10942-0.15131 0.10942-0.02025 0-0.03681 0.0374-0.03681 0.0831 0 0.11195-0.08282 0.22281-0.23819 0.31883-0.12496 0.0772-0.27245 0.30315-0.27245 0.41732 0 0.10173 0.05242 0.0563 0.23708-0.20567zm0.1459 13.028c-0.0124-0.0201-0.0061-0.0365 0.01393-0.0365 0.02006 0 0.04662 0.0164 0.05902 0.0365s0.0061 0.0365-0.01393 0.0365c-0.02006 0-0.04662-0.0164-0.05902-0.0365zm18.037-2.7538c0-0.14447-0.0096-0.16414-0.07972-0.16414-0.04384 0-0.11764 0.0356-0.16399 0.0792-0.12399 0.11648-0.13641 0.063-0.03129-0.13468 0.05094-0.0958 0.09273-0.2169 0.09287-0.26908 1.47e-4 -0.0522 0.03285-0.14411 0.07271-0.20429 0.03986-0.0602 0.07258-0.15149 0.07271-0.20289 2.07e-4 -0.10892 0.17407-0.63793 0.28478-0.86686 0.04353-0.09 0.08581-0.27033 0.09835-0.41946 0.0121-0.14386 0.03919-0.32942 0.06019-0.41235 0.02808-0.11088 0.0267-0.17224-0.0052-0.23188-0.03139-0.0587-0.03237-0.0921-0.0036-0.12096 0.02192-0.0219 0.03985-0.0845 0.03985-0.139s0.01-0.12511 0.02214-0.15684c0.03852-0.10038 0.08728-0.0625 0.08728 0.0678 0 0.069 0.0189 0.13719 0.04201 0.15147 0.05859 0.0362 0.14036-0.0878 0.14036-0.21281 0-0.0573 0.02556-0.1537 0.05681-0.21411 0.03224-0.0623 0.05791-0.20747 0.05937-0.33558 0.0019-0.17053 0.02457-0.26364 0.09256-0.38075 0.09367-0.16134 0.15601-0.19881 0.15601-0.0938 0 0.0337 0.02004 0.11665 0.04452 0.18437 0.03719 0.10284 0.03569 0.12876-0.0091 0.15737-0.04384 0.028-0.03199 0.0514 0.0649 0.12832 0.09572 0.076 0.11854 0.12023 0.11854 0.23001 0 0.0748-0.01632 0.15227-0.03624 0.1722-0.01993 0.0199-0.05451 0.17505-0.07684 0.34469-0.02966 0.22532-0.06167 0.33135-0.11878 0.39345-0.07364 0.0801-0.07447 0.0877-0.01435 0.13168 0.03511 0.0257 0.06383 0.0764 0.06383 0.11273 0 0.0363-0.02873 0.0978-0.06383 0.13668-0.03511 0.0388-0.06586 0.1222-0.06834 0.18525-0.0073 0.18612-0.15383 0.7127-0.24887 0.8945-0.04843 0.0926-0.12274 0.28335-0.16513 0.42378-0.11099 0.36763-0.2885 0.71145-0.38658 0.74874-0.04526 0.0172-0.09301 0.0651-0.10611 0.10632-0.04138 0.13037-0.09185 0.0814-0.09185-0.0891zm0.80244-4.6301c0-0.069 0.01751-0.13633 0.0389-0.14955 0.05605-0.0346 0.06221-0.0149 0.04312 0.13828-0.02138 0.17151-0.08202 0.17984-0.08202 0.0113zm-19.849-4.76c0.03467-0.0816 0.0749-0.13017 0.09296-0.11224 0.01809 0.018-0.0027 0.0801-0.04808 0.14385-0.10663 0.14974-0.11842 0.14144-0.04489-0.0316zm0.0064-1.0664c0-0.066 0.25576-0.44285 0.28246-0.41615 0.02984 0.0298-0.18175 0.432-0.23687 0.45021-0.02508 8e-3 -0.04559-7e-3 -0.04559-0.0341zm0.38298-0.35818c0.0124-0.0201 0.03799-0.0365 0.05687-0.0365s0.03432 0.0164 0.03432 0.0365-0.02559 0.0365-0.05687 0.0365c-0.03127 0-0.04672-0.0164-0.03432-0.0365zm-0.02045-0.1948c0.06039-0.15884 0.2875-0.48556 0.37936-0.54575 0.04991-0.0327 0.14332-0.13267 0.20758-0.22215 0.06426-0.0895 0.16254-0.18163 0.21838-0.20476 0.05585-0.0231 0.13885-0.0818 0.18445-0.13032 0.16854-0.1794 0.19342-0.0833 0.03721 0.14376-0.14807 0.2152-0.83982 0.93118-0.96027 0.9939-0.09731 0.0507-0.09886 0.0498-0.06672-0.0347zm1.4457-1.4054c0.03862-0.0375 0.07666-0.0625 0.08453-0.0556 0.023 0.0203-0.07425 0.12383-0.11635 0.12383-0.02111 0-0.0068-0.0307 0.03182-0.0682zm-0.20335-0.0166c0-0.0651 0.1548-0.20697 0.22585-0.20697 0.03136 0 0.07745-0.0246 0.10242-0.0547s0.06391-0.054 0.08653-0.0531c0.0454 2e-3 -0.33793 0.36309-0.38528 0.36309-0.01624 0-0.02953-0.0218-0.02953-0.0483zm0.65654-0.53609c0-0.0177 0.04337-0.0617 0.09638-0.0978 0.05301-0.036 0.13873-0.11067 0.1905-0.16584 0.05176-0.0552 0.10821-0.1003 0.12544-0.1003 0.0271 0-0.08764 0.22154-0.15617 0.30155-0.03864 0.0451-0.25614 0.0981-0.25614 0.0624zm11.544-0.87454c-0.07122-0.0472-0.08855-0.0725-0.04963-0.0727 0.06366-2.1e-4 0.25731 0.14256 0.19553 0.1442-0.02006 6.2e-4 -0.08571-0.0316-0.1459-0.0715zm-9.9111-0.21899c0.06568-0.0401 0.1393-0.0728 0.1636-0.0728 0.02429 0-0.01708 0.0328-0.09194 0.073-0.17607 0.0944-0.22651 0.0943-0.07166-1.4e-4zm8.45-0.34521c-0.05374-0.0406-0.05762-0.0537-0.01609-0.0542 0.09417-1e-3 0.21885 0.0419 0.21885 0.0755 0 0.0507-0.12482 0.0376-0.20276-0.0213zm-2.3869-0.23825c0-0.0201 0.02559-0.0365 0.05686-0.0365 0.03128 0 0.04672 0.0164 0.03432 0.0365-0.01241 0.0201-0.03799 0.0365-0.05686 0.0365-0.01888 0-0.03432-0.0164-0.03432-0.0365zm1.7021 0.0122c-0.04772-0.0477-0.02313-0.078 0.04822-0.0593 0.0399 0.0104 0.06355 0.0335 0.05256 0.0513-0.02371 0.0384-0.06699 0.0418-0.10078 8e-3zm-1.016-0.32887c0.02633-0.0105 0.05779-9e-3 0.06991 3e-3 0.01212 0.0121-0.0094 0.0207-0.04787 0.0191-0.04249-2e-3 -0.05113-0.0104-0.02204-0.022zm-1.1531-0.12049c-0.06622-0.0157-0.13187-0.0409-0.1459-0.056-0.03773-0.0407 0.40518 0.0157 0.44635 0.0569 0.04188 0.0419-0.122 0.0414-0.30045-8.2e-4zm0.60368 0.0102c0.04514-9e-3 0.119-9e-3 0.16414 0 0.04514 9e-3 0.0082 0.0158-0.08207 0.0158s-0.1272-7e-3 -0.08207-0.0158z" style="fill:#2e3440;stroke-width:.036475"/>
 </g>
</svg>
