<?xml version="1.0" encoding="UTF-8" standalone="no"?>
<!-- Created with Inkscape (http://www.inkscape.org/) -->

<svg
   inkscape:version="1.1.2 (b8e25be8, 2022-02-05)"
   width="22.065678mm"
   height="21.166668mm"
   viewBox="0 0 22.065675 21.166667"
   version="1.1"
   id="svg5"
   sodipodi:docname="logo-nord-light.svg"
   xmlns:inkscape="http://www.inkscape.org/namespaces/inkscape"
   xmlns:sodipodi="http://sodipodi.sourceforge.net/DTD/sodipodi-0.dtd"
   xmlns="http://www.w3.org/2000/svg"
   xmlns:svg="http://www.w3.org/2000/svg">
  <sodipodi:namedview
     id="namedview7"
     pagecolor="#ffffff"
     bordercolor="#666666"
     borderopacity="1.0"
     inkscape:pageshadow="2"
     inkscape:pageopacity="0.0"
     inkscape:pagecheckerboard="0"
     inkscape:document-units="mm"
     showgrid="false"
     inkscape:zoom="17.577515"
     inkscape:cx="32.968255"
     inkscape:cy="20.196256"
     inkscape:window-width="1904"
     inkscape:window-height="1036"
     inkscape:window-x="908"
     inkscape:window-y="273"
     inkscape:window-maximized="0"
     inkscape:current-layer="layer1" />
  <defs
     id="defs2" />
  <g
     inkscape:label="Layer 1"
     inkscape:groupmode="layer"
     id="layer1"
     transform="translate(-35.506327,-23.200756)">
    <path
       style="fill:#eceff4;stroke-width:0.0364744"
       d="m 45.243809,44.352202 c -0.551574,-0.03046 -1.294962,-0.147719 -1.512437,-0.238592 -0.06962,-0.02908 -0.183499,-0.05288 -0.253089,-0.05288 -0.06958,0 -0.256579,-0.03106 -0.415538,-0.06902 -0.327825,-0.0783 -1.039255,-0.333776 -1.010248,-0.362782 0.0479,-0.04792 0.458064,0.0096 0.778277,0.109279 0.193719,0.06026 0.478666,0.13142 0.633195,0.15812 0.154539,0.0267 0.302251,0.06178 0.32827,0.07794 0.02602,0.0162 0.227853,0.04152 0.448524,0.05636 0.573502,0.03858 0.756969,0.068 0.831833,0.133439 0.05334,0.04662 0.07928,0.0492 0.136439,0.0136 0.04952,-0.03092 0.31807,-0.04462 0.9007,-0.04592 1.019769,-0.0022 1.149926,-0.0092 1.547971,-0.0828 0.174139,-0.03218 0.425194,-0.06964 0.557905,-0.08324 0.194179,-0.0198 0.239117,-0.03616 0.230149,-0.08334 -0.0152,-0.08028 -0.403502,-0.10244 -0.515426,-0.02944 -0.159259,0.103899 -2.431712,0.170119 -2.736075,0.07972 -0.09806,-0.02912 -0.188839,-0.04642 -0.201741,-0.03846 -0.0128,0.008 -0.10524,-0.0012 -0.205227,-0.0204 -0.181239,-0.03478 -0.243799,-0.04096 -0.963064,-0.09514 -0.248043,-0.0186 -0.385302,-0.04434 -0.39514,-0.07384 -0.0086,-0.02582 -0.07704,-0.04522 -0.159559,-0.04522 -0.07948,0 -0.311999,-0.0427 -0.516722,-0.09488 -0.204721,-0.05218 -0.470446,-0.116599 -0.590495,-0.143159 -0.152059,-0.03364 -0.240575,-0.07614 -0.291795,-0.14012 -0.04044,-0.05052 -0.171999,-0.128699 -0.292368,-0.173759 -0.12036,-0.04506 -0.265243,-0.119859 -0.321951,-0.166219 -0.0567,-0.04636 -0.128079,-0.08428 -0.158619,-0.08428 -0.03054,0 -0.10724,-0.02272 -0.170459,-0.05046 -0.362465,-0.15916 -0.481588,-0.215721 -0.497916,-0.236433 -0.01,-0.0128 -0.1003,-0.08018 -0.200609,-0.14992 -0.1003,-0.06974 -0.305473,-0.25494 -0.45593,-0.411578 -0.211987,-0.220697 -0.318711,-0.30189 -0.474168,-0.360744 -0.110339,-0.04176 -0.229333,-0.07756 -0.264439,-0.07952 -0.0351,-0.002 -0.06382,-0.0216 -0.06382,-0.04362 0,-0.07556 -0.219863,-0.207305 -0.308749,-0.184999 -0.104119,0.02614 -0.154699,-0.03076 -0.193859,-0.218123 -0.02296,-0.109859 -0.04716,-0.143039 -0.104259,-0.143039 -0.0409,0 -0.09754,-0.019 -0.12586,-0.0421 -0.02832,-0.02316 -0.09252,-0.04778 -0.142679,-0.05472 -0.06854,-0.0094 -0.09406,-0.0376 -0.10276,-0.113259 -0.0078,-0.06768 -0.0464,-0.11864 -0.117919,-0.155639 -0.10364,-0.0536 -0.217009,-0.219641 -0.217009,-0.317861 0,-0.02688 -0.1467,-0.203305 -0.325977,-0.392048 -0.332422,-0.349956 -0.512933,-0.635243 -0.512933,-0.810654 0,-0.05388 -0.0239,-0.11134 -0.05312,-0.1277 -0.09358,-0.05236 -0.509652,-1.026271 -0.680873,-1.593706 -0.05998,-0.198799 -0.135219,-0.412026 -0.167199,-0.47385 -0.314421,-0.608025 -0.562568,-3.670033 -0.300759,-3.711241 0.1153,-0.0182 0.12096,-0.0078 0.1122,0.206927 -0.005,0.120819 0.0102,0.268553 0.0338,0.328268 0.05886,0.14946 0.142139,0.505678 0.122739,0.525068 -0.0088,0.0088 -0.04118,-0.0158 -0.07212,-0.0544 -0.05126,-0.06406 -0.05448,-0.03474 -0.03642,0.330931 0.03502,0.709329 0.0575,0.853408 0.14246,0.912916 0.04214,0.02952 0.08748,0.05366 0.100779,0.05366 0.0403,0 0.012,-0.372374 -0.04118,-0.542417 -0.04484,-0.14326 -0.04362,-0.164019 0.012,-0.204629 0.08436,-0.06168 0.0779,-0.08756 -0.03234,-0.12946 -0.05178,-0.0196 -0.08744,-0.048 -0.07924,-0.06292 0.0082,-0.015 0.03776,-0.08048 0.06568,-0.14568 0.03454,-0.08064 0.07556,-0.118539 0.128299,-0.118539 0.07478,0 0.07848,-0.021 0.10424,-0.592707 0.0146,-0.325989 0.02954,-0.633741 0.03302,-0.683895 0.0048,-0.06852 -0.0136,-0.09402 -0.0737,-0.10258 -0.06286,-0.009 -0.0824,-0.03956 -0.09118,-0.142959 -0.0098,-0.11446 -0.03848,-0.150179 -0.220913,-0.274527 l -0.209729,-0.142959 3.94e-4,-0.553002 c 4.14e-4,-0.587765 0.03788,-0.794008 0.188459,-1.037645 0.04432,-0.0717 0.08346,-0.189759 0.08698,-0.262343 0.0102,-0.211925 0.04918,-0.29059 0.155179,-0.31373 0.05382,-0.0118 0.11758,-0.02738 0.14168,-0.03474 0.0241,-0.0074 0.07962,0.0156 0.123399,0.05108 0.06626,0.05366 0.07274,0.07724 0.03868,0.140899 -0.0225,0.04204 -0.0452,0.175899 -0.05044,0.297431 -0.0082,0.188319 0.0026,0.233189 0.07304,0.303584 0.123199,0.12324 0.178819,0.06256 0.341956,-0.372994 0.197339,-0.526852 0.516948,-1.176979 0.827804,-1.683812 0.14374,-0.234367 0.261353,-0.441094 0.261353,-0.459394 0,-0.0184 -0.03048,-0.06086 -0.06772,-0.09456 -0.06046,-0.0547 -0.07268,-0.05532 -0.113879,-0.0056 -0.0254,0.0306 -0.06768,0.05564 -0.09396,0.05564 -0.02628,0 -0.0589,0.03498 -0.07246,0.07774 -0.0136,0.04276 -0.1624,0.224947 -0.330727,0.404878 -0.168339,0.179939 -0.306056,0.344458 -0.306056,0.365616 0,0.02116 -0.03144,0.01 -0.06988,-0.02478 -0.06868,-0.06216 -0.0687,-0.06584 -8.06e-4,-0.215383 0.038,-0.08368 0.06964,-0.184959 0.07032,-0.225087 6.82e-4,-0.04012 0.05892,-0.171439 0.129439,-0.291798 0.0705,-0.12036 0.147439,-0.263091 0.170939,-0.317169 0.03246,-0.07464 0.07734,-0.104159 0.186419,-0.122599 0.1014,-0.0172 0.1878,-0.06904 0.293665,-0.176399 0.147219,-0.1493 0.387088,-0.5601 0.387088,-0.662929 0,-0.02872 0.0132,-0.05222 0.02944,-0.05222 0.04698,0 0.267895,-0.185399 0.426488,-0.357912 0.08024,-0.08728 0.274175,-0.290423 0.430958,-0.45141 0.156779,-0.16098 0.299381,-0.330371 0.316885,-0.376405 0.02358,-0.06204 0.07232,-0.09054 0.188299,-0.110139 0.190299,-0.03216 0.300704,-0.09664 0.468114,-0.273485 0.07022,-0.07416 0.179019,-0.161139 0.241781,-0.193259 0.06276,-0.03212 0.122899,-0.0813 0.133639,-0.109299 0.0108,-0.02798 0.06608,-0.06078 0.122959,-0.07288 0.0569,-0.012 0.16088,-0.05892 0.231099,-0.10404 0.12502,-0.08032 0.40194,-0.228813 0.802437,-0.43027 0.232787,-0.117099 0.728982,-0.30314 1.029083,-0.385846 0.216331,-0.05962 0.395164,-0.172579 0.348058,-0.219867 -0.04282,-0.04298 -0.467156,0.10018 -0.581055,0.196019 -0.0735,0.06184 -0.10308,0.07172 -0.10308,0.03444 0,-0.05958 0.1135,-0.173019 0.1731,-0.173019 0.02184,0 0.119019,-0.03466 0.215975,-0.07702 0.152219,-0.0665 0.166319,-0.08108 0.103319,-0.106859 -0.04012,-0.0164 -0.126299,-0.031 -0.191499,-0.0324 -0.156099,-0.0034 -0.149899,-0.04688 0.0182,-0.12792 0.276917,-0.133479 0.544861,-0.206421 0.814194,-0.221651 0.215501,-0.0122 0.315695,-0.0379 0.45593,-0.116979 0.178839,-0.10086 0.183239,-0.10138 0.890982,-0.10438 0.391188,-0.0017 0.801524,-0.0158 0.91186,-0.03126 0.133119,-0.0188 0.255823,-0.0128 0.364744,0.0178 l 0.164139,0.04614 -0.288044,0.04634 c -0.15842,0.02548 -0.327333,0.0562 -0.375355,0.06826 -0.154899,0.03888 -0.05,0.0927 0.18226,0.09352 0.145579,4.14e-4 0.2823,0.02644 0.38481,0.07294 0.208471,0.0946 0.42071,0.09426 0.515777,-8.28e-4 0.08706,-0.08706 0.298833,-0.09766 0.364743,-0.0182 0.02864,0.0345 0.03108,0.05472 0.0066,0.05472 -0.02134,0 -0.04894,-0.0164 -0.06134,-0.03648 -0.03406,-0.05512 -0.190039,-0.0437 -0.212777,0.0156 -0.03434,0.0895 0.0612,0.127059 0.342364,0.134579 0.1494,0.004 0.357881,0.03048 0.4633,0.05886 0.10542,0.02838 0.220313,0.0451 0.255321,0.03716 0.035,-0.008 0.108,0.0072 0.162199,0.03386 0.07528,0.0369 0.1197,0.03866 0.188219,0.0074 0.07162,-0.03264 0.10666,-0.02898 0.17402,0.0182 0.04638,0.0325 0.139079,0.05908 0.205983,0.05908 0.0669,0 0.27252,0.04782 0.456932,0.10628 0.184419,0.05846 0.499427,0.157719 0.700036,0.220581 0.200607,0.06286 0.426528,0.154939 0.502044,0.204617 0.08266,0.05438 0.256843,0.112659 0.437692,0.146439 0.233245,0.04358 0.418606,0.11564 0.829268,0.322357 0.290883,0.146419 0.578119,0.277488 0.638301,0.291248 0.06018,0.0138 0.13814,0.03354 0.173259,0.04398 0.18634,0.05536 0.0116,-0.107119 -0.612775,-0.569543 -0.0677,-0.05016 -0.123719,-0.1046 -0.124479,-0.121 -0.0034,-0.07412 0.178419,0.03962 0.36306,0.227153 0.13336,0.13544 0.253529,0.220863 0.352392,0.250485 0.10702,0.03206 0.19816,0.1013 0.317949,0.241505 0.09236,0.1081 0.254313,0.253965 0.359898,0.324131 0.18562,0.123359 0.496988,0.429528 0.684553,0.67315 0.05006,0.06502 0.11034,0.11836 0.13394,0.11854 0.02362,1.82e-4 0.08926,0.05506 0.145899,0.121939 0.05662,0.06688 0.180779,0.17426 0.275905,0.238625 0.112039,0.0758 0.180539,0.1518 0.194539,0.215783 0.03804,0.174039 0.04834,0.189959 0.122859,0.189959 0.06118,0 0.06974,-0.0172 0.05218,-0.104999 -0.03802,-0.190079 0.05414,-0.164039 0.144779,0.04088 0.04744,0.107259 0.14306,0.276368 0.212465,0.375776 0.06942,0.0994 0.1572,0.254601 0.195079,0.344876 0.03786,0.09028 0.1312,0.252977 0.207375,0.361563 0.07618,0.108579 0.13862,0.223479 0.13876,0.255318 1.44e-4,0.03184 0.03284,0.10714 0.0727,0.16732 0.03986,0.06018 0.07258,0.169459 0.07272,0.242853 1.82e-4,0.108119 0.03058,0.164659 0.160219,0.298042 0.1599,0.164519 0.213495,0.283307 0.386957,0.857528 0.03842,0.12718 0.08064,0.373389 0.09382,0.547118 0.0178,0.234645 0.04636,0.355056 0.11106,0.468262 0.09114,0.159459 0.114499,0.370972 0.04828,0.437186 -0.0422,0.0422 0.11542,0.748434 0.207889,0.931417 0.03642,0.07208 0.04978,0.270583 0.04978,0.740417 0,0.469126 0.0134,0.668437 0.04968,0.740418 0.109199,0.216535 0.149739,1.0457 0.07078,1.448046 -0.02362,0.120359 -0.07786,0.423618 -0.12054,0.673897 -0.04268,0.250278 -0.09524,0.476305 -0.116799,0.502285 -0.02156,0.02598 -0.04328,0.08438 -0.04826,0.12978 -0.0192,0.175139 -0.250159,0.855588 -0.438286,1.291412 -0.0278,0.06442 -0.05358,0.227113 -0.05728,0.361558 -0.006,0.220189 -0.0186,0.257521 -0.125819,0.376264 -0.09574,0.10596 -0.11176,0.14492 -0.08174,0.198559 0.02862,0.05114 0.0194,0.09106 -0.03958,0.1708 -0.04232,0.05724 -0.07694,0.128379 -0.07694,0.158099 0,0.02972 -0.0146,0.06304 -0.03234,0.07402 -0.0178,0.011 -0.04326,0.08172 -0.05662,0.157179 -0.05006,0.282907 -0.212877,0.642315 -0.353312,0.77997 -0.149619,0.14666 -0.166439,0.193179 -0.188519,0.521452 -0.0194,0.288555 -0.12262,0.38592 -0.40904,0.38592 -0.10828,0 -0.234561,0.0152 -0.280643,0.03396 -0.04608,0.0186 -0.12802,0.04338 -0.182099,0.0549 -0.05408,0.0116 -0.174559,0.08696 -0.267757,0.167619 -0.0932,0.08066 -0.234743,0.179959 -0.314549,0.220679 -0.07982,0.04072 -0.242306,0.163399 -0.36111,0.272609 -0.118799,0.109219 -0.234537,0.198579 -0.257187,0.198579 -0.04256,0 -0.746354,0.496229 -0.907788,0.640053 -0.05016,0.04468 -0.127699,0.09226 -0.172299,0.105739 -0.04462,0.0134 -0.113899,0.07054 -0.153979,0.12682 -0.05308,0.07454 -0.11358,0.107779 -0.222809,0.122439 -0.169959,0.0228 -0.182099,0.0304 -0.195639,0.12258 -0.0062,0.04216 -0.06198,0.082 -0.152279,0.108759 -0.07838,0.02322 -0.240815,0.10192 -0.360963,0.174939 -0.120139,0.073 -0.33352,0.166939 -0.474164,0.208765 -0.140639,0.04182 -0.337786,0.1176 -0.43809,0.168399 -0.136599,0.06918 -0.269352,0.09924 -0.528879,0.11982 -0.190579,0.015 -0.403832,0.04554 -0.4739,0.06762 -0.07006,0.0221 -0.176759,0.031 -0.237083,0.0198 -0.06032,-0.0112 -0.167139,0.003 -0.237351,0.0317 -0.07178,0.02928 -0.219289,0.04832 -0.336956,0.0435 -0.12346,-0.005 -0.223567,0.0086 -0.244095,0.03334 -0.0192,0.02306 -0.127699,0.04582 -0.241257,0.05058 -0.113559,0.0048 -0.233497,0.02286 -0.266547,0.04026 -0.09104,0.0479 -1.231486,0.07258 -1.829097,0.03958 z m -5.209522,-6.531973 c 0.05386,-0.02882 0.0855,-0.02882 0.114319,0 0.02192,0.02192 0.06094,0.03986 0.08672,0.03986 0.06204,0 0.02408,-0.421854 -0.04838,-0.537997 -0.06966,-0.11162 -0.335166,-0.11668 -0.433294,-0.0082 -0.100859,0.111439 -0.02224,0.165319 0.12114,0.08304 0.08594,-0.04932 0.123819,-0.05492 0.155719,-0.023 0.06118,0.06118 0.0086,0.121479 -0.106,0.121479 -0.202815,0 -0.338406,0.200085 -0.217515,0.320975 0.05464,0.05464 0.228619,0.05672 0.327289,0.004 z m -0.206923,-0.10604 c -0.03618,-0.05854 0.0092,-0.0998 0.128819,-0.117379 0.13318,-0.0196 0.166719,0.0172 0.08776,0.0962 -0.06488,0.06488 -0.182459,0.07638 -0.216575,0.02118 z m 1.652766,0.08208 c -0.0066,-0.0351 -0.04834,-0.069 -0.09256,-0.07532 -0.07572,-0.0108 -0.08102,-0.03208 -0.09082,-0.364744 l -0.0104,-0.353257 h -0.161099 c -0.192499,0 -0.248197,0.08046 -0.07912,0.11426 l 0.11256,0.02252 v 0.284812 c 0,0.283367 -5.16e-4,0.284873 -0.1,0.296355 -0.0603,0.007 -0.104799,0.03688 -0.112099,0.07538 -0.0106,0.05628 0.02088,0.06384 0.266802,0.06384 0.245943,0 0.277469,-0.0076 0.266741,-0.06384 z m 1.236842,0.0034 c 0.0076,-0.02324 -0.03556,-0.05314 -0.0961,-0.06644 l -0.11006,-0.02418 -0.0104,-0.353012 -0.0104,-0.353009 h -0.161099 c -0.193379,0 -0.247991,0.0805 -0.07772,0.11454 l 0.113959,0.0228 -0.0106,0.296074 c -0.01,0.279437 -0.0152,0.296311 -0.09374,0.300271 -0.10126,0.0052 -0.13288,0.0324 -0.0997,0.0861 0.03374,0.05458 0.53704,0.03362 0.555799,-0.02314 z m 2.216804,-0.379191 c 0,-0.367618 -0.0074,-0.41789 -0.06382,-0.428742 -0.0521,-0.01 -0.06382,0.0142 -0.06382,0.1318 v 0.144099 l -0.158279,-0.0178 c -0.13982,-0.0158 -0.16746,-0.0062 -0.237083,0.08234 -0.09994,0.127059 -0.10098,0.307652 -0.0024,0.43287 0.07032,0.0894 0.09398,0.09604 0.300912,0.08448 l 0.224585,-0.0126 v -0.416448 z m -0.41216,0.250031 c -0.02408,-0.02406 -0.04376,-0.07824 -0.04376,-0.120359 0,-0.04212 0.0196,-0.0963 0.04376,-0.12036 0.02408,-0.02408 0.07824,-0.04376 0.12036,-0.04376 0.04212,0 0.0963,0.0196 0.120359,0.04376 0.02408,0.02408 0.04376,0.07824 0.04376,0.12036 0,0.04212 -0.0196,0.0963 -0.04376,0.120359 -0.02408,0.02408 -0.07824,0.04378 -0.120359,0.04378 -0.04212,0 -0.0963,-0.0198 -0.12036,-0.04378 z m 1.457995,0.14982 c 0.05386,-0.02882 0.0855,-0.02882 0.11432,0 0.02192,0.02192 0.06094,0.03986 0.08672,0.03986 0.06202,0 0.02408,-0.421854 -0.04838,-0.537997 -0.0894,-0.143259 -0.487226,-0.09078 -0.487226,0.06428 0,0.06508 0.07366,0.0737 0.157959,0.0184 0.08436,-0.05526 0.206777,-0.0434 0.206777,0.02004 0,0.0172 -0.06976,0.04982 -0.155019,0.07262 -0.08526,0.0228 -0.175539,0.05826 -0.200609,0.07882 -0.05792,0.04748 -0.05894,0.182879 -0.0019,0.239993 0.05464,0.05464 0.228621,0.05672 0.32729,0.004 z m -0.188679,-0.10604 c 0,-0.02006 -8.28e-4,-0.04878 -0.0019,-0.06382 -0.0028,-0.04226 0.219181,-0.07758 0.243217,-0.0387 0.02684,0.04342 -0.09278,0.136299 -0.177519,0.137839 -0.0351,6.2e-4 -0.06382,-0.0152 -0.06382,-0.03532 z m 2.609932,0.05602 c 0.1134,-0.1134 0.1184,-0.300831 0.0116,-0.436536 -0.06546,-0.08322 -0.100959,-0.09684 -0.227965,-0.08752 -0.150079,0.011 -0.150459,0.0108 -0.161879,-0.127419 -0.0088,-0.10692 -0.02546,-0.1358 -0.07296,-0.1267 -0.05216,0.01 -0.06308,0.06944 -0.07196,0.391859 -0.0058,0.209047 -0.0038,0.39761 0.0046,0.419028 0.0082,0.02142 0.108219,0.04288 0.222209,0.0477 0.177719,0.0076 0.219929,-0.004 0.296406,-0.08042 z m -0.350988,-0.13358 c -0.0609,-0.113819 0.0102,-0.250706 0.130139,-0.250706 0.06222,0 0.10574,0.0285 0.1322,0.08658 0.0538,0.11808 -0.0138,0.241699 -0.1322,0.241699 -0.05304,0 -0.105279,-0.03114 -0.130139,-0.07756 z m 1.549647,0.201321 c 0.03174,-0.0122 0.0577,-0.04574 0.0577,-0.0746 0,-0.04024 -0.02986,-0.04686 -0.128059,-0.02844 -0.0809,0.0152 -0.147919,0.0076 -0.181979,-0.02072 -0.08796,-0.073 -0.02652,-0.109419 0.184519,-0.109419 0.184359,0 0.198459,-0.0062 0.198459,-0.08626 0,-0.04744 -0.03402,-0.129519 -0.0756,-0.182379 -0.167019,-0.212321 -0.510695,-0.07318 -0.518721,0.210013 -0.0066,0.233965 0.228607,0.382012 0.463672,0.291808 z m -0.287679,-0.377248 c -0.03748,-0.06064 0.117419,-0.118699 0.199479,-0.07478 0.04012,0.02148 0.07294,0.05488 0.07294,0.07424 0,0.04556 -0.244309,0.04604 -0.272427,6.2e-4 z m 1.565867,0.350209 c 0.0985,-0.07202 0.04176,-0.1417 -0.07286,-0.08948 -0.067,0.03052 -0.113619,0.03014 -0.183139,-0.0014 -0.139959,-0.06376 -0.073,-0.115119 0.150099,-0.115119 0.191019,0 0.198459,-0.0036 0.198459,-0.09796 0,-0.242375 -0.315684,-0.355638 -0.494061,-0.177259 -0.19296,0.192959 -0.05816,0.530535 0.211875,0.530535 0.06728,0 0.152619,-0.02214 0.189599,-0.04918 z m -0.345109,-0.350757 c 0,-0.06806 0.141,-0.115899 0.218845,-0.07424 0.11636,0.06228 0.08494,0.109419 -0.07294,0.109419 -0.08024,0 -0.1459,-0.0158 -0.1459,-0.0352 z m 1.637543,0.366585 c 0.08596,-0.05442 0.02188,-0.14236 -0.08838,-0.12128 -0.116119,0.0222 -0.161779,-0.03358 -0.162579,-0.198679 -4.14e-4,-0.10454 0.0114,-0.117379 0.117679,-0.127659 0.07788,-0.0076 0.12238,-0.03322 0.13034,-0.07526 0.0096,-0.05094 -0.0138,-0.06384 -0.1157,-0.06384 -0.104759,0 -0.129899,-0.0148 -0.139459,-0.08206 -0.0064,-0.04514 -0.03628,-0.08206 -0.06636,-0.08206 -0.0301,0 -0.05996,0.03694 -0.06636,0.08206 -0.007,0.04968 -0.03704,0.08206 -0.07598,0.08206 -0.03538,0 -0.07414,0.0098 -0.08614,0.0218 -0.04082,0.04082 0.0172,0.1241 0.0865,0.1241 0.0579,0 0.06904,0.02752 0.06904,0.170379 0,0.107359 0.02232,0.195059 0.06036,0.237085 0.06356,0.07022 0.249719,0.08864 0.337049,0.03336 z m 1.188556,-0.0259 c 0.1251,-0.1251 0.0152,-0.269503 -0.245537,-0.322839 -0.05516,-0.0112 -0.100299,-0.03486 -0.100299,-0.05238 0,-0.06438 0.121119,-0.07566 0.229903,-0.0214 0.143159,0.07142 0.214257,0.0166 0.117379,-0.09038 -0.08438,-0.09324 -0.350288,-0.10208 -0.43781,-0.0146 -0.125099,0.125099 -0.0152,0.269503 0.245537,0.322838 0.1257,0.0257 0.12958,0.08334 0.0076,0.11394 -0.06108,0.0154 -0.114879,0.0032 -0.157879,-0.03578 -0.03588,-0.03246 -0.08446,-0.05904 -0.10796,-0.05904 -0.06646,0 -0.05024,0.1379 0.02112,0.17946 0.1014,0.05906 0.361043,0.047 0.427908,-0.0198 z M 40.537484,36.13678 c 0.0186,-0.04514 0.06896,-0.270822 0.11194,-0.501521 0.09854,-0.528782 0.103779,-0.546276 0.141799,-0.474166 0.0158,0.0301 0.06612,0.243465 0.1117,0.474166 0.123959,0.627645 0.08978,0.583591 0.45258,0.583591 0.30662,0 0.308132,-4.14e-4 0.329088,-0.1003 0.0116,-0.05516 0.07916,-0.453195 0.150199,-0.884504 0.07104,-0.431308 0.15448,-0.937111 0.18542,-1.124008 0.03096,-0.186899 0.04658,-0.365071 0.03474,-0.395944 -0.0174,-0.0456 -0.0757,-0.05368 -0.310104,-0.04304 -0.158699,0.0072 -0.297185,0.02172 -0.307723,0.03226 -0.0106,0.0106 -0.05608,0.318682 -0.101199,0.684766 -0.05888,0.477798 -0.09192,0.647943 -0.11706,0.603016 -0.0192,-0.03442 -0.08244,-0.285087 -0.140399,-0.557032 -0.05796,-0.271943 -0.118839,-0.507899 -0.135279,-0.524349 -0.0496,-0.0496 -0.339683,-0.0122 -0.370797,0.04772 -0.0156,0.0301 -0.05368,0.1696 -0.08462,0.310033 -0.1498,0.680003 -0.175859,0.7885 -0.186699,0.777648 -0.0126,-0.0126 -0.06956,-0.488605 -0.1278,-1.069443 -0.05834,-0.581693 -0.02198,-0.533423 -0.39253,-0.521165 -0.314235,0.0104 -0.318023,0.0116 -0.311429,0.101719 0.0036,0.05016 0.08152,0.58359 0.17298,1.185415 0.09146,0.601829 0.176039,1.159886 0.187919,1.24013 0.03634,0.245289 0.02384,0.237085 0.361544,0.237085 0.289191,0 0.314425,-0.006 0.345732,-0.08206 z m 3.320299,-0.319254 v -0.40122 h -0.474168 -0.474167 v -0.14466 -0.144659 l 0.3921,-0.0104 0.3921,-0.0104 v -0.255321 -0.255319 l -0.382982,-0.0182 -0.382981,-0.0182 -0.0112,-0.15502 -0.0112,-0.155019 h 0.476263 0.476264 V 33.84718 33.44525 l -0.793316,0.0098 -0.793319,0.0098 -0.0096,1.376907 -0.0096,1.37691 h 0.802876 0.802874 z m 1.750038,0.36149 c 0.233749,-0.05012 0.383394,-0.174059 0.42471,-0.35175 0.0176,-0.07558 0.02374,-0.315205 0.0138,-0.53252 -0.018,-0.390978 -0.0194,-0.396232 -0.137599,-0.501741 -0.11612,-0.10372 -0.11786,-0.10954 -0.06382,-0.214017 0.06936,-0.13414 0.0758,-0.742713 0.0092,-0.876978 -0.02484,-0.05016 -0.11898,-0.12844 -0.209189,-0.17396 -0.156179,-0.07882 -0.198019,-0.08232 -0.875262,-0.07294 l -0.711249,0.0098 -0.0106,0.301254 c -0.0104,0.293291 -0.0082,0.302185 0.08206,0.336485 l 0.09266,0.03524 v 0.731294 0.731293 l -0.09118,0.03466 c -0.08504,0.03232 -0.09118,0.05156 -0.09118,0.284812 0,0.13758 0.011,0.261089 0.02432,0.274461 0.04032,0.04032 1.344204,0.0273 1.543351,-0.0154 z m -0.648513,-0.514685 c -0.02656,-0.02656 -0.04378,-0.15562 -0.04378,-0.328269 v -0.284499 l 0.13678,6.2e-4 c 0.204353,8.26e-4 0.239157,0.03934 0.256872,0.284249 0.0134,0.185419 0.0044,0.229065 -0.0613,0.294695 -0.0852,0.0852 -0.221007,0.100839 -0.288589,0.03326 z m -0.0284,-1.099467 c -0.0104,-0.02696 -0.014,-0.17058 -0.008,-0.319151 0.0098,-0.246563 0.0178,-0.271141 0.09102,-0.281553 0.0441,-0.0062 0.113859,0.0066 0.155019,0.02864 0.0644,0.03446 0.07482,0.07526 0.07482,0.292801 0,0.212563 -0.0112,0.258761 -0.07056,0.290515 -0.0985,0.05272 -0.219955,0.04708 -0.242339,-0.0112 z m 2.478399,1.152356 c 0.05628,-0.275836 0.111439,-0.526143 0.122579,-0.556233 0.0273,-0.07384 0.1153,0.259709 0.247811,0.939213 l 0.02312,0.11854 h 0.322472 0.322475 l 0.0198,-0.1003 c 0.0108,-0.05516 0.06982,-0.41216 0.131019,-0.793318 0.0612,-0.381158 0.1366,-0.832528 0.167559,-1.003045 0.03096,-0.17052 0.05946,-0.383893 0.06338,-0.474166 l 0.007,-0.164139 -0.273557,-0.0094 c -0.150459,-0.0052 -0.292252,0.003 -0.315104,0.0182 -0.04006,0.0266 -0.13102,0.566463 -0.181319,1.076231 -0.02696,0.273288 -0.07112,0.317938 -0.10818,0.109419 -0.0134,-0.07522 -0.06798,-0.325532 -0.121319,-0.556233 l -0.09702,-0.419454 -0.122459,-0.0118 c -0.237985,-0.02294 -0.275351,0.0064 -0.326113,0.256809 -0.08898,0.438787 -0.199779,0.903777 -0.212385,0.891181 -0.007,-0.007 -0.04524,-0.322914 -0.08502,-0.702092 -0.0398,-0.379177 -0.08188,-0.734551 -0.09352,-0.789719 l -0.02118,-0.100299 h -0.325372 c -0.178959,0 -0.325277,0.0124 -0.325161,0.02736 1.1e-4,0.015 0.0168,0.125839 0.03694,0.246202 0.0202,0.12036 0.06074,0.382981 0.0901,0.58359 0.02936,0.200609 0.07866,0.528877 0.109559,0.729488 0.0309,0.200609 0.08172,0.536478 0.11294,0.746377 0.03122,0.209899 0.06476,0.39455 0.07452,0.410336 0.0098,0.0158 0.16092,0.0287 0.335917,0.0287 h 0.318176 z m 2.867229,0.461796 c 0.217153,-0.04658 0.389158,-0.178639 0.468587,-0.359788 0.07428,-0.169399 0.10534,-1.365256 0.04548,-1.751072 -0.05098,-0.328581 -0.128459,-0.442234 -0.373274,-0.54755 -0.163859,-0.07048 -0.238823,-0.0799 -0.54015,-0.0678 -0.454086,0.0182 -0.643291,0.115399 -0.76197,0.391276 -0.07222,0.167879 -0.07796,0.242505 -0.07648,0.995391 0.0017,0.847768 0.02472,1.007734 0.168179,1.167019 0.16598,0.184279 0.650411,0.262423 1.069614,0.172519 z m -0.508882,-0.910752 c -0.13302,-0.05602 -0.145759,-0.0947 -0.146359,-0.444666 -6.2e-4,-0.407638 0.04354,-0.465049 0.358532,-0.465049 0.301252,0 0.333918,0.0451 0.333918,0.460949 0,0.215233 -0.0166,0.350329 -0.04858,0.393993 -0.05792,0.0792 -0.360397,0.112499 -0.497498,0.05478 z m 2.344907,0.686041 c 0.03242,-0.145439 0.08628,-0.39395 0.119679,-0.552241 0.06618,-0.313645 0.09328,-0.311165 0.15568,0.0142 0.07102,0.370402 0.154259,0.74212 0.172979,0.772406 0.0102,0.0166 0.156799,0.03004 0.325744,0.03004 0.289369,0 0.308139,-0.0048 0.323645,-0.08206 0.009,-0.04514 0.0424,-0.237997 0.07412,-0.428574 0.03172,-0.190579 0.105759,-0.625537 0.164539,-0.966573 0.05878,-0.341035 0.118139,-0.722647 0.131899,-0.848028 l 0.025,-0.227965 -0.287389,6.2e-4 c -0.158059,2.08e-4 -0.30652,0.0128 -0.32991,0.02762 -0.03436,0.02186 -0.194559,1.066749 -0.194559,1.268924 0,0.02886 -0.0136,0.05246 -0.03004,0.05246 -0.0166,0 -0.04882,-0.09438 -0.07178,-0.209726 -0.09182,-0.461293 -0.191659,-0.864308 -0.221499,-0.894145 -0.05086,-0.05086 -0.340772,-0.015 -0.372136,0.04612 -0.0154,0.0301 -0.05616,0.18602 -0.09042,0.346509 -0.0793,0.371388 -0.1572,0.681677 -0.17582,0.700295 -0.0146,0.0146 -0.06114,-0.350325 -0.142759,-1.119751 l -0.0445,-0.419456 -0.306642,-0.0106 c -0.16866,-0.0058 -0.318161,0.0024 -0.332243,0.0182 -0.014,0.016 0.0132,0.28333 0.06042,0.594275 0.118639,0.779606 0.180359,1.190322 0.249405,1.659586 0.03246,0.220669 0.06592,0.421732 0.07436,0.44681 0.0108,0.0319 0.1126,0.0456 0.339291,0.0456 h 0.323966 z m -5.212124,-3.911192 c 0.389522,-0.0694 0.699149,-0.228567 0.968336,-0.497753 0.945663,-0.945662 0.586835,-2.542189 -0.679423,-3.022945 -0.171599,-0.06516 -0.287473,-0.08072 -0.595997,-0.08004 -0.450296,0.001 -0.680819,0.06792 -1.014746,0.294678 -0.531847,0.361173 -0.80811,0.88016 -0.80811,1.518127 0,0.53794 0.158539,0.911246 0.551341,1.298236 0.13742,0.13538 0.329357,0.280851 0.439184,0.332851 0.16896,0.08 0.284173,0.112419 0.668195,0.188039 0.12612,0.02484 0.174959,0.0216 0.47122,-0.0312 z M 38.076584,28.07843 c 0.100299,-0.14228 0.294024,-0.387763 0.430488,-0.545534 0.241021,-0.278655 0.261997,-0.398014 0.03118,-0.177439 -0.06298,0.06018 -0.13106,0.109419 -0.1513,0.109419 -0.02024,0 -0.0368,0.03738 -0.0368,0.08306 0,0.111959 -0.08282,0.222807 -0.238189,0.318831 -0.12496,0.07724 -0.272453,0.30314 -0.272453,0.41732 0,0.101719 0.05242,0.05624 0.237085,-0.205675 z m 0.145899,13.027869 c -0.0124,-0.02006 -0.0062,-0.03648 0.014,-0.03648 0.02006,0 0.04662,0.0164 0.05902,0.03648 0.0124,0.02006 0.0062,0.03648 -0.014,0.03648 -0.02006,0 -0.04662,-0.0164 -0.05902,-0.03648 z m 18.036581,-2.753813 c 0,-0.144459 -0.0096,-0.164139 -0.07972,-0.164139 -0.04384,0 -0.117639,0.03562 -0.163999,0.07918 -0.123979,0.11648 -0.136419,0.06302 -0.0313,-0.134679 0.05094,-0.09582 0.09274,-0.216899 0.09286,-0.269079 1.48e-4,-0.05218 0.03286,-0.144119 0.07272,-0.204293 0.03986,-0.06018 0.07258,-0.151479 0.0727,-0.202887 2.08e-4,-0.108919 0.174079,-0.637925 0.284781,-0.866854 0.04354,-0.09002 0.0858,-0.270325 0.09836,-0.419454 0.012,-0.143859 0.03918,-0.329426 0.0602,-0.41235 0.02808,-0.110879 0.0267,-0.172239 -0.0052,-0.231881 -0.0314,-0.05866 -0.03238,-0.09214 -0.0036,-0.120959 0.02192,-0.02192 0.03986,-0.08446 0.03986,-0.139 0,-0.05452 0.01,-0.125099 0.02214,-0.156839 0.03852,-0.100379 0.08728,-0.0625 0.08728,0.06782 0,0.06902 0.019,0.137199 0.042,0.151479 0.05858,0.0362 0.14036,-0.08778 0.14036,-0.212811 0,-0.05734 0.02556,-0.153699 0.0568,-0.214113 0.03224,-0.06234 0.05792,-0.207467 0.05938,-0.335576 0.0019,-0.17052 0.02458,-0.263635 0.09256,-0.380745 0.09366,-0.161339 0.155999,-0.198819 0.155999,-0.09378 0,0.03368 0.02004,0.116639 0.04452,0.184359 0.0372,0.102839 0.0357,0.128759 -0.0092,0.157379 -0.04384,0.028 -0.032,0.05144 0.0649,0.12832 0.09572,0.07594 0.11854,0.120239 0.11854,0.230017 0,0.07478 -0.0164,0.152259 -0.03624,0.172199 -0.02,0.02 -0.0545,0.175039 -0.07684,0.344684 -0.02966,0.225317 -0.06166,0.331351 -0.118779,0.393448 -0.07364,0.08008 -0.07448,0.08772 -0.0144,0.13168 0.0351,0.02568 0.06384,0.0764 0.06384,0.112739 0,0.03634 -0.02872,0.09784 -0.06384,0.13668 -0.0351,0.03884 -0.06586,0.122199 -0.06834,0.185239 -0.0074,0.186119 -0.153839,0.712702 -0.248865,0.894504 -0.04842,0.09264 -0.122739,0.283344 -0.165139,0.423772 -0.110979,0.367634 -0.288498,0.711444 -0.386582,0.748736 -0.04526,0.0172 -0.093,0.06506 -0.1061,0.10632 -0.04138,0.130359 -0.09184,0.0814 -0.09184,-0.0891 z m 0.802438,-4.630093 c 0,-0.06904 0.0176,-0.136319 0.0389,-0.149559 0.05604,-0.03464 0.06222,-0.0148 0.04312,0.13828 -0.02138,0.171519 -0.08202,0.179839 -0.08202,0.0112 z M 37.213028,28.962381 c 0.03466,-0.08158 0.0749,-0.130159 0.09296,-0.112239 0.018,0.018 -0.0026,0.08006 -0.04808,0.143859 -0.10662,0.14974 -0.11842,0.14144 -0.04488,-0.03162 z m 0.0064,-1.066371 c 0,-0.06604 0.255759,-0.442848 0.28246,-0.416144 0.02984,0.02984 -0.181739,0.431996 -0.236866,0.450202 -0.02508,0.0082 -0.0456,-0.007 -0.0456,-0.03406 z m 0.38298,-0.358176 c 0.0124,-0.02006 0.03798,-0.03648 0.05686,-0.03648 0.0188,0 0.03432,0.0164 0.03432,0.03648 0,0.02006 -0.02558,0.03648 -0.05686,0.03648 -0.03128,0 -0.04672,-0.0164 -0.03432,-0.03648 z m -0.02044,-0.194799 c 0.06038,-0.158839 0.287501,-0.485562 0.379358,-0.545752 0.0499,-0.0327 0.14332,-0.132659 0.207577,-0.222149 0.06426,-0.08948 0.16254,-0.181619 0.218385,-0.204759 0.05584,-0.02314 0.13886,-0.08178 0.18446,-0.130319 0.168539,-0.179399 0.193419,-0.08328 0.03722,0.143759 -0.148059,0.215209 -0.839814,0.931182 -0.960263,0.993896 -0.09732,0.05066 -0.09886,0.04986 -0.06672,-0.03468 z m 1.445683,-1.405368 c 0.03862,-0.03754 0.07666,-0.06254 0.08452,-0.0556 0.023,0.02032 -0.07426,0.123839 -0.116359,0.123839 -0.02112,0 -0.0068,-0.0307 0.03182,-0.06824 z m -0.203345,-0.0166 c 0,-0.0651 0.1548,-0.206969 0.225849,-0.206969 0.03136,0 0.07744,-0.02462 0.10242,-0.05472 0.02498,-0.0301 0.06392,-0.05396 0.08654,-0.05306 0.0454,0.0019 -0.337932,0.363088 -0.385274,0.363088 -0.0162,0 -0.02952,-0.02176 -0.02952,-0.04836 z m 0.656537,-0.536081 c 0,-0.0178 0.04338,-0.06172 0.09638,-0.09776 0.053,-0.03604 0.138739,-0.110659 0.190499,-0.165839 0.05176,-0.05516 0.10822,-0.100299 0.125439,-0.100299 0.0271,0 -0.08764,0.221541 -0.156179,0.30155 -0.03864,0.0451 -0.256143,0.09806 -0.256143,0.06236 z m 11.544143,-0.87454 c -0.07122,-0.04716 -0.08854,-0.07256 -0.04964,-0.07272 0.06366,-2.08e-4 0.257307,0.14256 0.195539,0.1442 -0.02006,6.2e-4 -0.08572,-0.03164 -0.145899,-0.0715 z m -9.91102,-0.218969 c 0.06568,-0.04004 0.139299,-0.07282 0.163599,-0.07282 0.0243,0 -0.017,0.03282 -0.09194,0.07294 -0.176079,0.09438 -0.226504,0.09428 -0.07166,-1.36e-4 z m 8.449913,-0.34521 c -0.05374,-0.04064 -0.05762,-0.0537 -0.016,-0.05422 0.09418,-0.0012 0.218845,0.0419 0.218845,0.07554 0,0.05076 -0.12482,0.03762 -0.202755,-0.02134 z m -2.386927,-0.238245 c 0,-0.02006 0.02558,-0.03648 0.05686,-0.03648 0.03128,0 0.04672,0.0164 0.03432,0.03648 -0.0124,0.02006 -0.03798,0.03648 -0.05686,0.03648 -0.0188,0 -0.03432,-0.0164 -0.03432,-0.03648 z m 1.702138,0.0122 c -0.04772,-0.04772 -0.02312,-0.07796 0.04822,-0.0593 0.0399,0.0104 0.06354,0.03352 0.05256,0.0513 -0.02372,0.03836 -0.067,0.0418 -0.10078,0.008 z m -1.015961,-0.328871 c 0.02634,-0.0106 0.05778,-0.0092 0.0699,0.0028 0.0122,0.0122 -0.0094,0.02074 -0.04788,0.0192 -0.0425,-0.0017 -0.05114,-0.0104 -0.02204,-0.02204 z m -1.153077,-0.120479 c -0.06622,-0.0156 -0.131859,-0.0409 -0.145899,-0.05604 -0.03772,-0.04072 0.405184,0.0158 0.44635,0.05688 0.04188,0.04188 -0.122,0.04142 -0.300451,-8.26e-4 z m 0.603679,0.0102 c 0.04514,-0.0086 0.119,-0.0086 0.164139,0 0.04514,0.0086 0.0082,0.0158 -0.08206,0.0158 -0.09028,0 -0.1272,-0.0072 -0.08206,-0.0158 z"
       id="path53" />
  </g>
</svg>
