<?xml version="1.0" encoding="UTF-8"?>
<!-- Created with Inkscape (http://www.inkscape.org/) -->
<svg width="22.066mm" height="21.167mm" version="1.1" viewBox="0 0 22.066 21.167" xmlns="http://www.w3.org/2000/svg">
 <g transform="translate(-28.522 -22.767)">
  <style>
    path {
      fill: #2e3440;
      stroke-width: 0.036475;
    }
    @media (prefers-color-scheme: dark) {
      path {
        fill: #eceff4;
      }
    }
  </style>
  <path d="m38.26 43.918c-0.55158-0.03046-1.295-0.14773-1.5124-0.2386-0.06961-0.02909-0.1835-0.05288-0.25309-0.05288-0.06959 0-0.25658-0.03106-0.41554-0.06903-0.32783-0.0783-1.0393-0.33378-1.0103-0.36278 0.04791-0.04791 0.45806 0.0097 0.77828 0.10928 0.19373 0.06025 0.47867 0.13141 0.6332 0.15812 0.15453 0.02671 0.30225 0.06178 0.32827 0.07794 0.02602 0.01615 0.22786 0.04151 0.44853 0.05636 0.5735 0.03858 0.75697 0.06801 0.83184 0.13344 0.05335 0.04663 0.07929 0.0492 0.13643 0.0135 0.04952-0.03093 0.31807-0.04462 0.90071-0.04592 1.0198-0.0023 1.1499-0.0092 1.548-0.0828 0.17414-0.03218 0.4252-0.06964 0.55791-0.08323 0.19418-0.01989 0.23912-0.03617 0.23015-0.08335-0.01526-0.08027-0.4035-0.10244-0.51543-0.02943-0.15927 0.1039-2.4317 0.17012-2.7361 0.07973-0.09806-0.02912-0.18884-0.04643-0.20174-0.03846-0.0129 8e-3 -0.10525-0.0012-0.20523-0.02039-0.18123-0.03478-0.2438-0.04096-0.96307-0.09514-0.24804-0.01869-0.3853-0.04433-0.39514-0.07384-0.0086-0.02583-0.07704-0.04522-0.15957-0.04522-0.07947 0-0.312-0.04269-0.51672-0.09488-0.20472-0.05218-0.47045-0.1166-0.5905-0.14316-0.15206-0.03363-0.24058-0.07614-0.2918-0.14012-0.04044-0.05051-0.172-0.12871-0.29237-0.17377-0.12037-0.04506-0.26524-0.11986-0.32195-0.16622-0.05671-0.04636-0.12809-0.08429-0.15862-0.08429-0.03054 0-0.10724-0.02271-0.17046-0.05047-0.36247-0.15916-0.48159-0.21572-0.49792-0.23643-0.01003-0.01272-0.1003-0.08019-0.20061-0.14992-0.1003-0.06973-0.30547-0.25494-0.45593-0.41158-0.21199-0.2207-0.31871-0.30189-0.47417-0.36075-0.11034-0.04177-0.22933-0.07755-0.26444-0.07952-0.03511-0.0021-0.06383-0.02159-0.06383-0.04361 0-0.07557-0.21986-0.20731-0.30875-0.185-0.10413 0.02613-0.15469-0.03076-0.19385-0.21812-0.02296-0.10986-0.04715-0.14304-0.10426-0.14304-0.0409 0-0.09753-0.01894-0.12585-0.0421-0.02832-0.02315-0.09252-0.04777-0.14268-0.05471-0.06854-0.0095-0.09406-0.0376-0.10276-0.11325-0.0078-0.06768-0.0464-0.11865-0.11793-0.15564-0.10365-0.0536-0.21701-0.21964-0.21701-0.31786 0-0.02688-0.14669-0.2033-0.32598-0.39205-0.33242-0.34996-0.51294-0.63524-0.51294-0.81066 0-0.05388-0.0239-0.11135-0.05312-0.12769-0.09358-0.05237-0.50966-1.0263-0.68088-1.5937-0.05999-0.19879-0.13522-0.41203-0.16719-0.47385-0.31442-0.60803-0.56257-3.67-0.30076-3.7113 0.1153-0.01816 0.12095-0.0077 0.11219 0.20693-0.0049 0.12083 0.01028 0.26855 0.0338 0.32827 0.05886 0.14945 0.14213 0.50568 0.12274 0.52507-0.0087 0.0087-0.04118-0.01576-0.07211-0.05441-0.05125-0.06406-0.05448-0.03473-0.03643 0.33093 0.03502 0.70933 0.0575 0.85341 0.14247 0.91292 0.04213 0.02951 0.08749 0.05366 0.10078 0.05366 0.04031 0 0.01204-0.37238-0.04118-0.54242-0.04484-0.14325-0.04363-0.16402 0.01191-0.20463 0.08436-0.06169 0.0779-0.08755-0.03234-0.12947-0.05178-0.01969-0.08744-0.04801-0.07925-0.06293 0.0082-0.01493 0.03775-0.08048 0.06567-0.14567 0.03454-0.08064 0.07556-0.11854 0.1283-0.11854 0.07479 0 0.07848-0.02101 0.10424-0.59271 0.01469-0.32599 0.02954-0.63374 0.03301-0.6839 0.0047-0.06853-0.01357-0.09401-0.07369-0.10257-0.06287-9e-3 -0.0824-0.03957-0.09119-0.14296-0.0097-0.11445-0.03847-0.15017-0.22091-0.27453l-0.20973-0.14296 3.93e-4 -0.553c4.14e-4 -0.58777 0.03788-0.79401 0.18845-1.0376 0.04432-0.07171 0.08346-0.18976 0.08698-0.26235 0.01028-0.21192 0.04919-0.29059 0.15518-0.31373 0.05383-0.01175 0.11759-0.02738 0.14168-0.03473 0.0241-0.0073 0.07963 0.01563 0.1234 0.05108 0.06627 0.05366 0.07274 0.07724 0.03867 0.14089-0.0225 0.04204-0.0452 0.17589-0.05045 0.29743-0.0081 0.18833 0.0027 0.23319 0.07304 0.30359 0.1232 0.12323 0.17882 0.06256 0.34196-0.373 0.19733-0.52685 0.51695-1.177 0.82781-1.6838 0.14374-0.23437 0.26135-0.4411 0.26135-0.4594 0-0.0183-0.03047-0.06085-0.06772-0.09456-0.06045-0.05471-0.07267-0.05532-0.11389-0.0056-0.02539 0.0306-0.06767 0.05563-0.09396 0.05563-0.02628 0-0.05889 0.03498-0.07246 0.07773s-0.1624 0.22495-0.33073 0.40488c-0.16833 0.17993-0.30606 0.34446-0.30606 0.36562 0 0.02116-0.03145 0.01001-0.06988-0.02477-0.06868-0.06216-0.0687-0.06584-8.06e-4 -0.21538 0.03799-0.08368 0.06963-0.18497 0.07031-0.22509 6.83e-4 -0.04012 0.05892-0.17143 0.12943-0.2918 0.07051-0.12036 0.14744-0.26309 0.17095-0.31717 0.03246-0.07465 0.07734-0.10417 0.18641-0.12259 0.10139-0.01712 0.1878-0.06903 0.29367-0.1764 0.14722-0.14931 0.38709-0.5601 0.38709-0.66293 0-0.02872 0.01325-0.05222 0.02944-0.05222 0.04697 0 0.2679-0.1854 0.42649-0.35792 0.08024-0.08729 0.27418-0.29042 0.43096-0.45141s0.29938-0.33037 0.31688-0.37641c0.02359-0.06204 0.07232-0.09054 0.18831-0.11014 0.19031-0.03215 0.3007-0.09665 0.46811-0.27348 0.07021-0.07417 0.17902-0.16113 0.24178-0.19326 0.06277-0.03213 0.12291-0.08131 0.13364-0.10929 0.01074-0.02798 0.06607-0.06078 0.12296-0.07288 0.05689-0.0121 0.16089-0.05892 0.2311-0.10403 0.12502-0.08033 0.40194-0.22881 0.80244-0.43027 0.23279-0.1171 0.72899-0.30314 1.0291-0.38585 0.21633-0.05962 0.39517-0.17259 0.34806-0.21987-0.04281-0.04297-0.46716 0.10018-0.58106 0.19602-0.0735 0.06185-0.10308 0.07173-0.10308 0.03443 0-0.05958 0.1135-0.17303 0.1731-0.17303 0.02183 0 0.11902-0.03466 0.21598-0.07701 0.15222-0.06651 0.16632-0.08109 0.10333-0.10686-0.04012-0.01642-0.12629-0.031-0.19149-0.03241-0.15611-0.0034-0.14991-0.04688 0.01824-0.12793 0.27692-0.13348 0.54486-0.20642 0.8142-0.22165 0.2155-0.01218 0.3157-0.0379 0.45593-0.11698 0.17884-0.10086 0.18325-0.10137 0.89099-0.10437 0.39119-0.0017 0.80153-0.01572 0.91186-0.03126 0.13313-0.01876 0.25582-0.01274 0.36474 0.01789l0.16414 0.04614-0.28804 0.04635c-0.15842 0.02549-0.32734 0.05621-0.37536 0.06826-0.1549 0.03888-0.05001 0.0927 0.18227 0.09353 0.14559 4.13e-4 0.2823 0.02643 0.38481 0.07295 0.20847 0.0946 0.42071 0.09427 0.51578-8.27e-4 0.08707-0.08707 0.29884-0.09765 0.36475-0.01824 0.02863 0.0345 0.03108 0.05471 0.0066 0.05471-0.02133 0-0.04893-0.01642-0.06133-0.03647-0.03406-0.05511-0.19003-0.0437-0.21278 0.01557-0.03435 0.08951 0.06121 0.12707 0.34237 0.13458 0.1494 4e-3 0.35788 0.03047 0.4633 0.05885 0.10542 0.02838 0.22031 0.04511 0.25532 0.03717 0.03501-0.0079 0.108 0.0073 0.16219 0.03386 0.07529 0.0369 0.1197 0.03865 0.18822 0.0074 0.07163-0.03264 0.10665-0.02897 0.17402 0.01822 0.04639 0.03249 0.13908 0.05907 0.20598 0.05907 0.0669 0 0.27252 0.04783 0.45694 0.10628s0.49943 0.15771 0.70004 0.22058c0.20061 0.06287 0.42653 0.15494 0.50205 0.20462 0.08266 0.05438 0.25684 0.11265 0.43769 0.14644 0.23325 0.04358 0.41861 0.11564 0.82927 0.32236 0.29088 0.14643 0.57812 0.27749 0.6383 0.29125 0.06018 0.01375 0.13815 0.03355 0.17325 0.04398 0.18635 0.05536 0.01154-0.10712-0.61278-0.56954-0.06771-0.05015-0.12372-0.1046-0.12447-0.121-0.0034-0.07413 0.17841 0.03962 0.36306 0.22716 0.13336 0.13544 0.25353 0.22086 0.35239 0.25048 0.10701 0.03206 0.19817 0.1013 0.31795 0.24151 0.09236 0.10811 0.25431 0.25397 0.3599 0.32413 0.18562 0.12335 0.49699 0.42953 0.68456 0.67315 0.05006 0.06502 0.11034 0.11836 0.13395 0.11854 0.02361 1.82e-4 0.08927 0.05505 0.1459 0.12194 0.05663 0.06688 0.18079 0.17426 0.27591 0.23862 0.11203 0.07581 0.18055 0.1518 0.19454 0.21578 0.03805 0.17403 0.04835 0.18995 0.12287 0.18995 0.06117 0 0.06974-0.01722 0.05218-0.105-0.03802-0.19007 0.05415-0.16404 0.14478 0.04089 0.04744 0.10727 0.14305 0.27637 0.21247 0.37578 0.06942 0.09941 0.1572 0.2546 0.19507 0.34488 0.03787 0.09027 0.13119 0.25298 0.20738 0.36156 0.07618 0.10859 0.13863 0.22348 0.13876 0.25532 1.45e-4 0.03184 0.03285 0.10714 0.07271 0.16732 0.03986 0.06018 0.07258 0.16947 0.07271 0.24286 1.82e-4 0.10813 0.03058 0.16465 0.16022 0.29804 0.15989 0.16452 0.2135 0.28331 0.38696 0.85753 0.03842 0.12718 0.08064 0.37339 0.09382 0.54712 0.01781 0.23465 0.04636 0.35506 0.11106 0.46826 0.09113 0.15947 0.11449 0.37097 0.04828 0.43719-0.0422 0.0422 0.11543 0.74844 0.20789 0.93142 0.03643 0.07209 0.04977 0.27058 0.04977 0.74042 0 0.46913 0.01338 0.66844 0.04967 0.74042 0.10921 0.21654 0.14973 1.0457 0.07077 1.4481-0.02362 0.12036-0.07787 0.42362-0.12055 0.6739-0.04268 0.25028-0.09524 0.47631-0.1168 0.50229-0.02156 0.02598-0.04328 0.08438-0.04826 0.12977-0.01923 0.17515-0.25016 0.85559-0.43829 1.2914-0.0278 0.06441-0.05358 0.22711-0.05728 0.36156-0.0061 0.22019-0.01855 0.25752-0.12582 0.37627-0.09573 0.10596-0.11177 0.14492-0.08175 0.19857 0.02862 0.05114 0.01935 0.09106-0.03959 0.1708-0.04231 0.05723-0.07694 0.12838-0.07694 0.1581 0 0.02972-0.01456 0.06303-0.03234 0.07402-0.01778 0.011-0.04327 0.08172-0.05662 0.15717-0.05007 0.28291-0.21288 0.64232-0.35332 0.77998-0.14962 0.14665-0.16644 0.19318-0.18853 0.52145-0.01942 0.28856-0.12262 0.38592-0.40904 0.38592-0.10827 0-0.23456 0.01528-0.28064 0.03395-0.04608 0.01867-0.12802 0.04338-0.1821 0.05491-0.05407 0.01152-0.17456 0.08695-0.26776 0.16761-0.0932 0.08066-0.23474 0.17997-0.31455 0.22068-0.07981 0.04072-0.24231 0.16339-0.36111 0.27261-0.1188 0.10922-0.23454 0.19858-0.25719 0.19858-0.04255 0-0.74636 0.49623-0.90779 0.64005-0.05015 0.04468-0.12769 0.09226-0.17231 0.10573-0.04462 0.01346-0.11391 0.07054-0.15398 0.12682-0.05307 0.07453-0.11359 0.10779-0.22281 0.12244-0.16996 0.0228-0.18211 0.03041-0.19564 0.12258-0.0062 0.04217-0.06197 0.08201-0.15228 0.10875-0.07838 0.02321-0.24082 0.10193-0.36096 0.17493-0.12015 0.073-0.33352 0.16695-0.47417 0.20877-0.14065 0.04182-0.33779 0.1176-0.43809 0.1684-0.13659 0.06917-0.26935 0.09925-0.52888 0.11982-0.19058 0.0151-0.40384 0.04554-0.4739 0.06763-0.07007 0.02209-0.17676 0.03099-0.23708 0.01977-0.06033-0.01121-0.16714 3e-3 -0.23735 0.03169-0.07177 0.02928-0.21929 0.04833-0.33696 0.0435-0.12346-0.0051-0.22357 0.0086-0.2441 0.03334-0.01915 0.02306-0.12771 0.04582-0.24126 0.05057-0.11355 0.0048-0.2335 0.02287-0.26655 0.04025-0.09104 0.0479-1.2315 0.07258-1.8291 0.03958zm-5.2095-6.532c0.05385-0.02882 0.0855-0.02882 0.11432 0 0.02192 0.02192 0.06094 0.03985 0.08671 0.03985 0.06203 0 0.02409-0.42186-0.04839-0.538-0.06966-0.11163-0.33517-0.11669-0.43329-0.0083-0.10086 0.11145-0.02224 0.16532 0.12114 0.08303 0.08593-0.04932 0.12381-0.05491 0.15573-0.023 0.06118 0.06118 0.0086 0.12148-0.106 0.12148-0.20282 0-0.33841 0.20008-0.21752 0.32098 0.05464 0.05464 0.22862 0.05672 0.32729 0.0039zm-0.20692-0.10605c-0.03618-0.05853 0.0091-0.09981 0.12882-0.11737 0.13318-0.01954 0.16673 0.01723 0.08776 0.0962-0.06488 0.06488-0.18246 0.07638-0.21658 0.02118zm1.6528 0.08207c-0.0067-0.03511-0.04835-0.069-0.09257-0.07532-0.07571-0.01082-0.08101-0.03209-0.09081-0.36475l-0.01041-0.35326h-0.1611c-0.19249 0-0.2482 0.08045-0.07912 0.11427l0.11256 0.02251v0.28482c0 0.28337-5.17e-4 0.28487-0.09999 0.29636-0.06031 7e-3 -0.1048 0.03687-0.1121 0.07537-0.01067 0.05628 0.02088 0.06383 0.2668 0.06383 0.24594 0 0.27747-0.0075 0.26674-0.06383zm1.2368 0.0033c0.0077-0.02325-0.03556-0.05315-0.0961-0.06644l-0.11007-0.02417-0.01041-0.35301-0.01041-0.35301h-0.1611c-0.19337 0-0.24799 0.08049-0.07773 0.11455l0.11396 0.02279-0.01051 0.29608c-0.0099 0.27944-0.01519 0.29631-0.09374 0.30027-0.10127 0.0051-0.13288 0.03241-0.0997 0.0861 0.03373 0.05458 0.53704 0.03363 0.5558-0.02314zm2.2168-0.37919c0-0.36762-0.0075-0.41789-0.06383-0.42874-0.05209-0.01003-0.06383 0.01421-0.06383 0.1318v0.14409l-0.15828-0.01785c-0.13982-0.01576-0.16747-0.0062-0.23708 0.08235-0.09994 0.12705-0.10098 0.30765-0.0025 0.43287 0.07033 0.08941 0.09398 0.09605 0.30092 0.08448l0.22459-0.01255v-0.41645zm-0.41216 0.25003c-0.02407-0.02407-0.04377-0.07824-0.04377-0.12036 0-0.04213 0.0197-0.09629 0.04377-0.12036 0.02407-0.02407 0.07824-0.04377 0.12037-0.04377 0.04213 0 0.09629 0.01969 0.12037 0.04377 0.02407 0.02407 0.04377 0.07824 0.04377 0.12036 0 0.04213-0.0197 0.09629-0.04377 0.12036-0.02407 0.02407-0.07824 0.04377-0.12037 0.04377-0.04213 0-0.09629-0.01971-0.12037-0.04377zm1.458 0.14982c0.05385-0.02882 0.0855-0.02882 0.11432 0 0.02192 0.02192 0.06094 0.03985 0.08671 0.03985 0.06203 0 0.02409-0.42186-0.04839-0.538-0.0894-0.14326-0.48723-0.09077-0.48723 0.06428 0 0.06509 0.07367 0.07371 0.15796 0.01846 0.08435-0.05527 0.20678-0.0434 0.20678 0.02004 0 0.01714-0.06976 0.04982-0.15502 0.07261-0.08526 0.0228-0.17553 0.05827-0.20061 0.07882-0.05791 0.04747-0.05894 0.18287-0.0019 0.23999 0.05464 0.05464 0.22862 0.05672 0.32729 0.0039zm-0.18869-0.10604c0-0.02006-8.27e-4 -0.04878-0.0019-0.06382-0.0029-0.04225 0.21918-0.07758 0.24322-0.0387 0.02683 0.04342-0.09278 0.13629-0.17752 0.13783-0.03511 6.21e-4 -0.06383-0.01526-0.06383-0.03531zm2.6099 0.05602c0.11339-0.11339 0.11839-0.30083 0.01164-0.43654-0.06545-0.08321-0.10096-0.09684-0.22797-0.08751-0.15009 0.01102-0.15046 0.01073-0.16189-0.12743-0.0088-0.10692-0.02546-0.1358-0.07295-0.12671-0.05216 0.01-0.06308 0.06945-0.07196 0.39186-0.0057 0.20905-0.0037 0.39761 0.0045 0.41903 0.0082 0.02142 0.10823 0.04289 0.22221 0.04771 0.17773 0.0075 0.21993-0.0039 0.29641-0.08041zm-0.35099-0.13358c-0.06091-0.11381 0.01015-0.25071 0.13013-0.25071 0.06222 0 0.10574 0.0285 0.1322 0.08657 0.0538 0.11807-0.01381 0.2417-0.1322 0.2417-0.05305 0-0.10528-0.03114-0.13013-0.07756zm1.5497 0.20132c0.03173-0.01218 0.05769-0.04575 0.05769-0.0746 0-0.04023-0.02985-0.04686-0.12806-0.02844-0.0809 0.01518-0.14792 0.0075-0.18197-0.02072-0.08796-0.073-0.02652-0.10943 0.18452-0.10943 0.18436 0 0.19846-0.0061 0.19846-0.08627 0-0.04745-0.03402-0.12952-0.0756-0.18237-0.16701-0.21232-0.5107-0.07318-0.51872 0.21001-0.0066 0.23397 0.22861 0.38201 0.46368 0.29181zm-0.28768-0.37725c-0.03747-0.06063 0.11742-0.1187 0.19948-0.07478 0.04012 0.02147 0.07295 0.05488 0.07295 0.07423 0 0.04556-0.24431 0.04604-0.27243 6.21e-4zm1.5659 0.35021c0.09849-0.07202 0.04176-0.14171-0.07285-0.08949-0.067 0.03053-0.11362 0.03014-0.18313-0.0014-0.13996-0.06377-0.07299-0.11512 0.15011-0.11512 0.19103 0 0.19846-0.0037 0.19846-0.09795 0-0.24238-0.31569-0.35564-0.49406-0.17726-0.19296 0.19296-0.05815 0.53054 0.21188 0.53054 0.06729 0 0.15261-0.02213 0.1896-0.04918zm-0.34511-0.35076c0-0.06807 0.141-0.11589 0.21885-0.07423 0.11637 0.06228 0.08493 0.10942-0.07295 0.10942-0.08024 0-0.1459-0.01584-0.1459-0.03519zm1.6376 0.36659c0.08595-0.05443 0.02187-0.14236-0.08839-0.12128-0.11613 0.0222-0.16178-0.03359-0.16257-0.19868-4.14e-4 -0.10454 0.01133-0.11738 0.11768-0.12766 0.07787-0.0075 0.12237-0.03322 0.13034-0.07526 0.0097-0.05095-0.01371-0.06383-0.11571-0.06383-0.10476 0-0.1299-0.01479-0.13945-0.08207-0.0064-0.04514-0.03628-0.08207-0.06637-0.08207s-0.05996 0.03693-0.06637 0.08207c-0.0071 0.04968-0.03704 0.08207-0.07599 0.08207-0.03538 0-0.07415 0.0098-0.08614 0.0218-0.04083 0.04083 0.0172 0.1241 0.0865 0.1241 0.05789 0 0.06905 0.02753 0.06905 0.17038 0 0.10736 0.02233 0.19506 0.06037 0.23708 0.06356 0.07023 0.24972 0.08865 0.33705 0.03335zm1.1886-0.02591c0.1251-0.1251 0.01528-0.2695-0.24554-0.32284-0.05517-0.01129-0.1003-0.03486-0.1003-0.05239 0-0.06439 0.12113-0.07566 0.2299-0.0214 0.14315 0.07141 0.21426 0.01667 0.11738-0.09037-0.08438-0.09323-0.35029-0.10207-0.43781-0.01456-0.1251 0.1251-0.01528 0.2695 0.24554 0.32284 0.12571 0.02571 0.12958 0.08333 0.0077 0.11394-0.06109 0.01534-0.11488 0.0031-0.15789-0.03578-0.03588-0.03247-0.08446-0.05903-0.10795-0.05903-0.06646 0-0.05024 0.1379 0.02111 0.17945 0.1014 0.05906 0.36104 0.047 0.42791-0.01987zm-12.821-1.6641c0.01858-0.04514 0.06895-0.27082 0.11194-0.50152 0.09854-0.52878 0.10377-0.54628 0.1418-0.47417 0.01587 0.03009 0.06613 0.24347 0.11169 0.47417 0.12396 0.62765 0.08979 0.58359 0.45258 0.58359 0.30662 0 0.30814-4.14e-4 0.32909-0.1003 0.01158-0.05517 0.07917-0.4532 0.1502-0.88451 0.07103-0.43131 0.15448-0.93712 0.18543-1.124 0.03095-0.1869 0.04659-0.36507 0.03474-0.39595-0.0175-0.0456-0.0757-0.05368-0.31011-0.04303-0.15871 0.0072-0.29719 0.02173-0.30772 0.03226-0.01054 0.01055-0.05607 0.31868-0.10119 0.68477-0.05888 0.4778-0.09191 0.64795-0.11706 0.60302-0.01926-0.03442-0.08245-0.28509-0.1404-0.55703-0.05796-0.27194-0.11884-0.5079-0.13529-0.52435-0.0496-0.04961-0.33969-0.01228-0.3708 0.04772-0.01561 0.03009-0.05369 0.16961-0.08462 0.31004-0.1498 0.68001-0.17585 0.7885-0.1867 0.77765-0.01268-0.01268-0.06955-0.48861-0.1278-1.0694-0.05834-0.5817-0.02198-0.53343-0.39253-0.52117-0.31424 0.0104-0.31802 0.01164-0.31143 0.10171 0.0037 0.05015 0.08151 0.58359 0.17298 1.1854 0.09147 0.60183 0.17603 1.1599 0.18792 1.2401 0.03635 0.24529 0.02383 0.23708 0.36155 0.23708 0.28919 0 0.31443-6e-3 0.34574-0.08207zm3.3203-0.31915v-0.40122h-0.94834v-0.28933l0.7842-0.02072v-0.51064l-0.76597-0.03648-0.01122-0.15502-0.01122-0.15502h0.95253v-0.80386l-1.5866 0.0196-0.0096 1.3769-0.0096 1.3769h1.6058zm1.75 0.36149c0.23375-0.05013 0.3834-0.17407 0.42471-0.35175 0.01758-0.07557 0.02374-0.31521 0.01371-0.53252-0.01805-0.39098-0.01948-0.39624-0.1376-0.50174-0.11612-0.10373-0.11786-0.10955-0.06383-0.21402 0.06936-0.13414 0.0758-0.74272 0.0093-0.87698-0.02485-0.05015-0.11898-0.12844-0.20919-0.17397-0.15617-0.07882-0.19802-0.08231-0.87527-0.07295l-0.71125 0.0098-0.0106 0.30126c-0.01032 0.29329-0.0081 0.30218 0.08207 0.33649l0.09267 0.03523v1.4626l-0.09119 0.03467c-0.08503 0.03233-0.09119 0.05156-0.09119 0.28482 0 0.13758 0.01094 0.26109 0.02432 0.27446 0.04032 0.04032 1.3442 0.0273 1.5434-0.01541zm-0.64852-0.51469c-0.02656-0.02656-0.04377-0.15562-0.04377-0.32827v-0.2845l0.13678 6.21e-4c0.20435 8.27e-4 0.23916 0.03935 0.25687 0.28425 0.01342 0.18542 0.0043 0.22907-0.06129 0.2947-0.08519 0.08519-0.22101 0.10085-0.28859 0.03327zm-0.02839-1.0995c-0.01034-0.02695-0.01393-0.17057-8e-3 -0.31915 0.0099-0.24656 0.01783-0.27114 0.09102-0.28155 0.0441-0.0063 0.11386 0.0066 0.15502 0.02864 0.0644 0.03447 0.07483 0.07526 0.07483 0.2928 0 0.21256-0.01123 0.25876-0.07055 0.29051-0.0985 0.05272-0.21996 0.04708-0.24234-0.01125zm2.4784 1.1524c0.05629-0.27584 0.11145-0.52614 0.12257-0.55624 0.0273-0.07384 0.11531 0.25971 0.24781 0.93922l0.02311 0.11854h0.64495l0.01975-0.1003c0.01086-0.05517 0.06982-0.41216 0.13102-0.79332 0.0612-0.38116 0.1366-0.83253 0.16755-1.0031 0.03095-0.17052 0.05947-0.38389 0.06337-0.47417l0.0071-0.16414-0.27356-0.0093c-0.15046-0.0051-0.29226 0.0031-0.31511 0.01824-0.04007 0.02661-0.13102 0.56647-0.18132 1.0762-0.02697 0.27329-0.07111 0.31794-0.10818 0.10942-0.01338-0.07523-0.06797-0.32554-0.12133-0.55624l-0.09701-0.41946-0.12246-0.01181c-0.23799-0.02294-0.27535 0.0065-0.32612 0.25681-0.08897 0.43879-0.19979 0.90378-0.21238 0.89119-7e-3 -7e-3 -0.04524-0.32292-0.08503-0.7021-0.03979-0.37918-0.08188-0.73455-0.09352-0.78972l-0.02118-0.1003h-0.32538c-0.17895 0-0.32528 0.0123-0.32516 0.02736 1.09e-4 0.01505 0.01673 0.12584 0.03693 0.2462 0.0202 0.12036 0.06074 0.38298 0.09011 0.58359 0.02936 0.20061 0.07866 0.52888 0.10955 0.72949 0.03089 0.20061 0.08172 0.53648 0.11295 0.74638 0.03123 0.2099 0.06476 0.39455 0.07452 0.41034 0.0098 0.01578 0.16092 0.0287 0.33592 0.0287h0.31818zm2.8672 0.4618c0.21716-0.04657 0.38916-0.17864 0.46859-0.35979 0.07428-0.1694 0.10534-1.3653 0.04548-1.7511-0.05098-0.32858-0.12846-0.44224-0.37328-0.54755-0.16386-0.07049-0.23882-0.0799-0.54015-0.0678-0.45409 0.01824-0.64329 0.1154-0.76197 0.39128-0.07222 0.16787-0.07795 0.2425-0.07647 0.9954 0.0017 0.84777 0.02472 1.0077 0.16819 1.167 0.16598 0.18429 0.65042 0.26242 1.0696 0.17252zm-0.50888-0.91076c-0.13302-0.05601-0.14576-0.09471-0.14637-0.44467-6.2e-4 -0.40764 0.04355-0.46505 0.35853-0.46505 0.30125 0 0.33392 0.0451 0.33392 0.46095 0 0.21523-0.01667 0.35033-0.04859 0.39399-0.05791 0.0792-0.3604 0.1125-0.4975 0.05477zm2.3449 0.68604c0.03242-0.14544 0.08628-0.39395 0.11968-0.55224 0.06618-0.31364 0.09329-0.31117 0.15568 0.01425 0.07102 0.3704 0.15427 0.74212 0.17298 0.77241 0.01022 0.01652 0.1568 0.03003 0.32575 0.03003 0.28937 0 0.30814-0.0048 0.32365-0.08207 0.0091-0.04514 0.04241-0.238 0.07412-0.42858s0.10576-0.62554 0.16454-0.96658c0.05879-0.34104 0.11814-0.72265 0.1319-0.84803l0.02501-0.22797-0.28739 6.21e-4c-0.15806 2.06e-4 -0.30652 0.01274-0.32991 0.02761-0.03435 0.02185-0.19456 1.0668-0.19456 1.2689 0 0.02885-0.01352 0.05246-0.03004 0.05246s-0.04882-0.09438-0.07178-0.20973c-0.09183-0.4613-0.19166-0.86431-0.2215-0.89415-0.05086-0.05086-0.34077-0.01493-0.37214 0.04612-0.01547 0.03009-0.05615 0.18602-0.09042 0.34651-0.0793 0.37139-0.15721 0.68168-0.17582 0.7003-0.01462 0.01462-0.06114-0.35032-0.14276-1.1198l-0.04449-0.41946-0.30664-0.01069c-0.16865-0.0059-0.31816 0.0023-0.33224 0.01824-0.01408 0.0159 0.01311 0.28333 0.06043 0.59428 0.11864 0.77961 0.18036 1.1903 0.2494 1.6596 0.03247 0.22067 0.06593 0.42174 0.07436 0.44681 0.01073 0.0319 0.1126 0.04559 0.33929 0.04559h0.32397zm-5.2121-3.9112c0.38952-0.06941 0.69915-0.22857 0.96834-0.49776 0.94567-0.94567 0.58684-2.5422-0.67943-3.023-0.1716-0.06515-0.28747-0.08071-0.596-0.08005-0.4503 1e-3 -0.68082 0.06791-1.0147 0.29468-0.53185 0.36117-0.80811 0.88016-0.80811 1.5181 0 0.53794 0.15854 0.91125 0.55134 1.2982 0.13741 0.13538 0.32936 0.28085 0.43919 0.33285 0.16895 0.08 0.28417 0.11242 0.6682 0.18804 0.12612 0.02483 0.17497 0.0216 0.47122-0.03119zm-8.8239-3.9647c0.1003-0.14227 0.29403-0.38776 0.43049-0.54554 0.24102-0.27866 0.262-0.39802 0.03118-0.17744-0.06298 0.06018-0.13106 0.10942-0.15131 0.10942-0.02025 0-0.03681 0.03738-0.03681 0.08307 0 0.11195-0.08282 0.22281-0.23819 0.31883-0.12496 0.07723-0.27245 0.30314-0.27245 0.41732 0 0.10173 0.05242 0.05625 0.23708-0.20567zm0.1459 13.028c-0.0124-0.02006-0.0061-0.03648 0.01393-0.03648 0.02006 0 0.04662 0.01642 0.05902 0.03648s0.0061 0.03647-0.01393 0.03647c-0.02006 0-0.04662-0.01642-0.05902-0.03647zm18.037-2.7538c0-0.14446-0.0096-0.16414-0.07972-0.16414-0.04384 0-0.11764 0.03563-0.16399 0.07917-0.12399 0.11648-0.13641 0.06302-0.03129-0.13468 0.05094-0.09581 0.09273-0.2169 0.09287-0.26908 1.47e-4 -0.05218 0.03285-0.14411 0.07271-0.2043 0.03986-0.06018 0.07258-0.15148 0.07271-0.20289 2.07e-4 -0.10892 0.17407-0.63793 0.28478-0.86686 0.04353-0.09001 0.08581-0.27033 0.09835-0.41946 0.0121-0.14387 0.03919-0.32943 0.06019-0.41235 0.02808-0.11088 0.0267-0.17224-0.0052-0.23188-0.03139-0.05866-0.03237-0.09214-0.0036-0.12096 0.02192-0.02192 0.03985-0.08447 0.03985-0.139 0-0.05453 0.01-0.12511 0.02214-0.15684 0.03852-0.10038 0.08728-0.0625 0.08728 0.06781 0 0.06903 0.0189 0.13719 0.04201 0.15147 0.05859 0.03621 0.14036-0.08778 0.14036-0.21281 0-0.05735 0.02556-0.1537 0.05681-0.21411 0.03224-0.06234 0.05791-0.20747 0.05937-0.33558 0.0019-0.17053 0.02457-0.26364 0.09256-0.38075 0.09367-0.16134 0.15601-0.19881 0.15601-0.09377 0 0.03368 0.02004 0.11665 0.04452 0.18436 0.03719 0.10285 0.03569 0.12876-0.0091 0.15738-0.04384 0.028-0.03199 0.05143 0.0649 0.12831 0.09572 0.07595 0.11854 0.12024 0.11854 0.23002 0 0.07478-0.01632 0.15227-0.03624 0.1722-0.01993 0.01993-0.05451 0.17504-0.07684 0.34469-0.02966 0.22532-0.06167 0.33135-0.11878 0.39345-0.07364 0.08008-0.07447 0.08771-0.01435 0.13168 0.03511 0.02567 0.06383 0.0764 0.06383 0.11273 0 0.03633-0.02873 0.09784-0.06383 0.13668-0.03511 0.03884-0.06586 0.1222-0.06834 0.18524-0.0073 0.18613-0.15383 0.71271-0.24887 0.89451-0.04843 0.09265-0.12274 0.28335-0.16513 0.42378-0.11099 0.36764-0.2885 0.71145-0.38658 0.74874-0.04526 0.0172-0.09301 0.06505-0.10611 0.10632-0.04138 0.13037-0.09185 0.08141-0.09185-0.0891zm0.80244-4.6301c0-0.06903 0.01751-0.13633 0.0389-0.14955 0.05605-0.03464 0.06221-0.01489 0.04312 0.13828-0.02138 0.17151-0.08202 0.17984-0.08202 0.01127zm-19.849-4.76c0.03467-0.08159 0.0749-0.13017 0.09296-0.11223 0.01809 0.01797-0.0027 0.08007-0.04808 0.14385-0.10663 0.14974-0.11842 0.14144-0.04489-0.03162zm0.0064-1.0664c0-0.06604 0.25576-0.44285 0.28246-0.41615 0.02984 0.02984-0.18175 0.432-0.23687 0.45021-0.02508 0.0083-0.04559-0.0071-0.04559-0.03406zm0.38298-0.35818c0.0124-0.02006 0.03799-0.03647 0.05687-0.03647s0.03432 0.01642 0.03432 0.03647c0 0.02006-0.02559 0.03647-0.05687 0.03647-0.03127 0-0.04672-0.01642-0.03432-0.03647zm-0.02045-0.1948c0.06039-0.15884 0.2875-0.48556 0.37936-0.54575 0.04991-0.0327 0.14332-0.13267 0.20758-0.22215 0.06426-0.08949 0.16254-0.18163 0.21838-0.20476 0.05585-0.02313 0.13885-0.08178 0.18445-0.13031 0.16854-0.1794 0.19342-0.08329 0.03721 0.14376-0.14807 0.21521-0.83982 0.93118-0.96027 0.9939-0.09731 0.05067-0.09886 0.04986-0.06672-0.03468zm1.4457-1.4054c0.03862-0.03753 0.07666-0.06255 0.08453-0.05559 0.023 0.02033-0.07425 0.12384-0.11635 0.12384-0.02111 0-0.0068-0.03071 0.03182-0.06824zm-0.20335-0.01658c0-0.06511 0.1548-0.20697 0.22585-0.20697 0.03136 0 0.07745-0.02462 0.10242-0.05471s0.06391-0.05397 0.08653-0.05306c0.0454 0.0019-0.33793 0.36309-0.38528 0.36309-0.01624 0-0.02953-0.02176-0.02953-0.04835zm0.65654-0.53608c0-0.01772 0.04337-0.06171 0.09638-0.09776 0.05301-0.03604 0.13873-0.11067 0.1905-0.16584 0.05176-0.05517 0.10821-0.1003 0.12544-0.1003 0.0271 0-0.08764 0.22154-0.15617 0.30155-0.03864 0.04511-0.25614 0.09805-0.25614 0.06235zm11.544-0.87454c-0.07122-0.04717-0.08855-0.07255-0.04963-0.07271 0.06366-2.06e-4 0.25731 0.14256 0.19553 0.14421-0.02006 6.2e-4 -0.08571-0.03164-0.1459-0.0715zm-9.9111-0.21899c0.06568-0.04005 0.1393-0.07281 0.1636-0.07281 0.02429 0-0.01708 0.03283-0.09194 0.07295-0.17607 0.09437-0.22651 0.09427-0.07166-1.37e-4zm8.45-0.34521c-0.05374-0.04065-0.05762-0.05371-0.01609-0.05421 0.09417-0.0012 0.21885 0.0419 0.21885 0.07555 0 0.05075-0.12482 0.03762-0.20276-0.02133zm-2.3869-0.23824c0-0.02006 0.02559-0.03647 0.05686-0.03647 0.03128 0 0.04672 0.01642 0.03432 0.03647-0.01241 0.02006-0.03799 0.03647-0.05686 0.03647-0.01888 0-0.03432-0.01642-0.03432-0.03647zm1.7021 0.01216c-0.04772-0.04772-0.02313-0.07797 0.04822-0.05931 0.0399 0.01042 0.06355 0.03352 0.05256 0.0513-0.02371 0.03836-0.06699 0.0418-0.10078 8e-3zm-1.016-0.32887c0.02633-0.01055 0.05779-0.0092 0.06991 0.0029 0.01212 0.01212-0.0094 0.02074-0.04787 0.01915-0.04249-0.0017-0.05113-0.0104-0.02204-0.02204zm-1.1531-0.12049c-0.06622-0.01567-0.13187-0.0409-0.1459-0.05605-0.03773-0.04073 0.40518 0.01572 0.44635 0.05688 0.04188 0.04188-0.122 0.04143-0.30045-8.27e-4zm0.60368 0.01024c0.04514-0.0087 0.119-0.0087 0.16414 0 0.04514 0.0087 0.0082 0.0158-0.08207 0.0158s-0.1272-0.0071-0.08207-0.0158z" />
 </g>
</svg>
